<svg width="32" height="27" viewBox="0 0 32 27" fill="none" xmlns="http://www.w3.org/2000/svg">
<path d="M9.14286 10.8571H12C12.1516 10.8571 12.2969 10.7969 12.4041 10.6898C12.5112 10.5826 12.5714 10.4373 12.5714 10.2857C12.5714 10.1342 12.5112 9.98882 12.4041 9.88165C12.2969 9.77449 12.1516 9.71429 12 9.71429H9.14286C8.9913 9.71429 8.84596 9.77449 8.7388 9.88165C8.63163 9.98882 8.57143 10.1342 8.57143 10.2857C8.57143 10.4373 8.63163 10.5826 8.7388 10.6898C8.84596 10.7969 8.9913 10.8571 9.14286 10.8571ZM14.2857 10.8571H14.8571C15.0087 10.8571 15.154 10.7969 15.2612 10.6898C15.3684 10.5826 15.4286 10.4373 15.4286 10.2857C15.4286 10.1342 15.3684 9.98882 15.2612 9.88165C15.154 9.77449 15.0087 9.71429 14.8571 9.71429H14.2857C14.1342 9.71429 13.9888 9.77449 13.8817 9.88165C13.7745 9.98882 13.7143 10.1342 13.7143 10.2857C13.7143 10.4373 13.7745 10.5826 13.8817 10.6898C13.9888 10.7969 14.1342 10.8571 14.2857 10.8571ZM9.14286 13.1429H9.71429C9.86584 13.1429 10.0112 13.0827 10.1183 12.9755C10.2255 12.8683 10.2857 12.723 10.2857 12.5714C10.2857 12.4199 10.2255 12.2745 10.1183 12.1674C10.0112 12.0602 9.86584 12 9.71429 12H9.14286C8.9913 12 8.84596 12.0602 8.7388 12.1674C8.63163 12.2745 8.57143 12.4199 8.57143 12.5714C8.57143 12.723 8.63163 12.8683 8.7388 12.9755C8.84596 13.0827 8.9913 13.1429 9.14286 13.1429ZM14.8571 12H12C11.8484 12 11.7031 12.0602 11.5959 12.1674C11.4888 12.2745 11.4286 12.4199 11.4286 12.5714C11.4286 12.723 11.4888 12.8683 11.5959 12.9755C11.7031 13.0827 11.8484 13.1429 12 13.1429H14.8571C15.0087 13.1429 15.154 13.0827 15.2612 12.9755C15.3684 12.8683 15.4286 12.723 15.4286 12.5714C15.4286 12.4199 15.3684 12.2745 15.2612 12.1674C15.154 12.0602 15.0087 12 14.8571 12ZM9.14286 15.4286H14.8571C15.0087 15.4286 15.154 15.3684 15.2612 15.2612C15.3684 15.154 15.4286 15.0087 15.4286 14.8571C15.4286 14.7056 15.3684 14.5602 15.2612 14.4531C15.154 14.3459 15.0087 14.2857 14.8571 14.2857H9.14286C8.9913 14.2857 8.84596 14.3459 8.7388 14.4531C8.63163 14.5602 8.57143 14.7056 8.57143 14.8571C8.57143 15.0087 8.63163 15.154 8.7388 15.2612C8.84596 15.3684 8.9913 15.4286 9.14286 15.4286ZM17.1429 14.2857V15.4286C17.1429 15.5801 17.0827 15.7255 16.9755 15.8326C16.8683 15.9398 16.723 16 16.5714 16C16.4199 16 16.2745 16.0602 16.1674 16.1674C16.0602 16.2745 16 16.4199 16 16.5714C16 16.723 16.0602 16.8683 16.1674 16.9755C16.2745 17.0827 16.4199 17.1429 16.5714 17.1429C17.0261 17.1429 17.4621 16.9622 17.7836 16.6408C18.1051 16.3193 18.2857 15.8832 18.2857 15.4286V14.2857C18.2857 13.9826 18.4061 13.6919 18.6204 13.4776C18.8348 13.2633 19.1255 13.1429 19.4286 13.1429C19.5801 13.1429 19.7255 13.0827 19.8326 12.9755C19.9398 12.8683 20 12.723 20 12.5714C20 12.4199 19.9398 12.2745 19.8326 12.1674C19.7255 12.0602 19.5801 12 19.4286 12C19.1255 12 18.8348 11.8796 18.6204 11.6653C18.4061 11.4509 18.2857 11.1602 18.2857 10.8571V9.71429C18.2857 9.25963 18.1051 8.82359 17.7836 8.5021C17.4621 8.18061 17.0261 8 16.5714 8C16.4199 8 16.2745 8.0602 16.1674 8.16737C16.0602 8.27453 16 8.41988 16 8.57143C16 8.72298 16.0602 8.86833 16.1674 8.97549C16.2745 9.08265 16.4199 9.14286 16.5714 9.14286C16.723 9.14286 16.8683 9.20306 16.9755 9.31022C17.0827 9.41739 17.1429 9.56273 17.1429 9.71429V10.8571C17.1447 11.1826 17.216 11.5038 17.352 11.7995C17.488 12.0951 17.6855 12.3583 17.9314 12.5714C17.6855 12.7846 17.488 13.0478 17.352 13.3434C17.216 13.639 17.1447 13.9603 17.1429 14.2857ZM4.57143 13.1429C4.87453 13.1429 5.16522 13.2633 5.37955 13.4776C5.59388 13.6919 5.71429 13.9826 5.71429 14.2857V15.4286C5.71429 15.8832 5.8949 16.3193 6.21639 16.6408C6.53788 16.9622 6.97391 17.1429 7.42857 17.1429C7.58012 17.1429 7.72547 17.0827 7.83263 16.9755C7.9398 16.8683 8 16.723 8 16.5714C8 16.4199 7.9398 16.2745 7.83263 16.1674C7.72547 16.0602 7.58012 16 7.42857 16C7.27702 16 7.13167 15.9398 7.02451 15.8326C6.91735 15.7255 6.85714 15.5801 6.85714 15.4286V14.2857C6.85531 13.9603 6.78401 13.639 6.64801 13.3434C6.51202 13.0478 6.31447 12.7846 6.06857 12.5714C6.31447 12.3583 6.51202 12.0951 6.64801 11.7995C6.78401 11.5038 6.85531 11.1826 6.85714 10.8571V9.71429C6.85714 9.56273 6.91735 9.41739 7.02451 9.31022C7.13167 9.20306 7.27702 9.14286 7.42857 9.14286C7.58012 9.14286 7.72547 9.08265 7.83263 8.97549C7.9398 8.86833 8 8.72298 8 8.57143C8 8.41988 7.9398 8.27453 7.83263 8.16737C7.72547 8.0602 7.58012 8 7.42857 8C6.97391 8 6.53788 8.18061 6.21639 8.5021C5.8949 8.82359 5.71429 9.25963 5.71429 9.71429V10.8571C5.71429 11.1602 5.59388 11.4509 5.37955 11.6653C5.16522 11.8796 4.87453 12 4.57143 12C4.41988 12 4.27453 12.0602 4.16737 12.1674C4.0602 12.2745 4 12.4199 4 12.5714C4 12.723 4.0602 12.8683 4.16737 12.9755C4.27453 13.0827 4.41988 13.1429 4.57143 13.1429Z" fill="#E8395C"/>
<path d="M30.8571 22.2857H30.2857V4.57143C30.2857 4.41988 30.2255 4.27453 30.1183 4.16737C30.0112 4.0602 29.8658 4 29.7143 4H2.28571C2.13416 4 1.98882 4.0602 1.88165 4.16737C1.77449 4.27453 1.71429 4.41988 1.71429 4.57143V22.2857H1.14286C0.839753 22.2857 0.549062 22.4061 0.334735 22.6204C0.120408 22.8348 0 23.1255 0 23.4286V24C0 24.7578 0.30102 25.4845 0.836838 26.0203C1.37266 26.5561 2.09938 26.8571 2.85714 26.8571H29.1429C29.9006 26.8571 30.6273 26.5561 31.1632 26.0203C31.699 25.4845 32 24.7578 32 24V23.4286C32 23.1255 31.8796 22.8348 31.6653 22.6204C31.4509 22.4061 31.1602 22.2857 30.8571 22.2857ZM25.7143 17.7143C25.4883 17.7143 25.2673 17.6473 25.0793 17.5217C24.8914 17.3961 24.7449 17.2176 24.6584 17.0088C24.5719 16.7999 24.5493 16.5702 24.5934 16.3485C24.6375 16.1268 24.7463 15.9231 24.9062 15.7633C25.066 15.6035 25.2696 15.4946 25.4913 15.4505C25.713 15.4064 25.9428 15.4291 26.1516 15.5156C26.3605 15.6021 26.539 15.7485 26.6645 15.9365C26.7901 16.1244 26.8571 16.3454 26.8571 16.5714C26.8571 16.8745 26.7367 17.1652 26.5224 17.3796C26.3081 17.5939 26.0174 17.7143 25.7143 17.7143ZM24.7143 18.6171C25.0241 18.7747 25.3667 18.8569 25.7143 18.8569C26.0619 18.8569 26.4045 18.7747 26.7143 18.6171C26.934 18.7749 27.1133 18.9825 27.2374 19.2228C27.3616 19.4632 27.4271 19.7295 27.4286 20H24C24.0015 19.7295 24.067 19.4632 24.1912 19.2228C24.3153 18.9825 24.4946 18.7749 24.7143 18.6171ZM27.5714 17.8629C27.8066 17.5195 27.9436 17.1185 27.9676 16.703C27.9916 16.2876 27.9018 15.8734 27.7077 15.5053C27.5137 15.1372 27.2228 14.829 26.8665 14.614C26.5101 14.399 26.1019 14.2854 25.6857 14.2854C25.2696 14.2854 24.8613 14.399 24.505 14.614C24.1486 14.829 23.8578 15.1372 23.6637 15.5053C23.4697 15.8734 23.3798 16.2876 23.4038 16.703C23.4278 17.1185 23.5648 17.5195 23.8 17.8629C23.4994 18.1312 23.2598 18.4607 23.0971 18.8293C22.9345 19.198 22.8527 19.5971 22.8571 20H22.2857V13.1429H29.1429V20H28.5714C28.5723 19.5949 28.486 19.1944 28.3184 18.8257C28.1508 18.4569 27.9058 18.1285 27.6 17.8629H27.5714ZM25.7143 9.71429C25.4883 9.71429 25.2673 9.64726 25.0793 9.52168C24.8914 9.3961 24.7449 9.21761 24.6584 9.00878C24.5719 8.79995 24.5493 8.57016 24.5934 8.34847C24.6375 8.12678 24.7463 7.92314 24.9062 7.76331C25.066 7.60348 25.2696 7.49463 25.4913 7.45053C25.713 7.40643 25.9428 7.42907 26.1516 7.51557C26.3605 7.60207 26.539 7.74855 26.6645 7.93649C26.7901 8.12443 26.8571 8.34539 26.8571 8.57143C26.8571 8.87453 26.7367 9.16522 26.5224 9.37955C26.3081 9.59388 26.0174 9.71429 25.7143 9.71429ZM24.7143 10.6171C25.0241 10.7747 25.3667 10.8569 25.7143 10.8569C26.0619 10.8569 26.4045 10.7747 26.7143 10.6171C26.934 10.7749 27.1133 10.9825 27.2374 11.2228C27.3616 11.4632 27.4271 11.7295 27.4286 12H24C24.0015 11.7295 24.067 11.4632 24.1912 11.2228C24.3153 10.9825 24.4946 10.7749 24.7143 10.6171ZM29.1429 5.14286V12H28.5714C28.5723 11.5949 28.486 11.1944 28.3184 10.8257C28.1508 10.4569 27.9058 10.1285 27.6 9.86286C27.8352 9.51953 27.9722 9.11851 27.9962 8.70304C28.0202 8.28758 27.9303 7.87344 27.7363 7.5053C27.5422 7.13716 27.2514 6.82898 26.895 6.614C26.5387 6.39903 26.1304 6.28541 25.7143 6.28541C25.2981 6.28541 24.8899 6.39903 24.5335 6.614C24.1772 6.82898 23.8863 7.13716 23.6923 7.5053C23.4982 7.87344 23.4084 8.28758 23.4324 8.70304C23.4564 9.11851 23.5934 9.51953 23.8286 9.86286C23.5228 10.1285 23.2778 10.4569 23.1102 10.8257C22.9425 11.1944 22.8562 11.5949 22.8571 12H22.2857V5.14286H29.1429ZM21.1429 5.14286V20H2.85714V5.14286H21.1429ZM2.85714 21.1429H29.1429V22.2857H20.5714C20.4962 22.2853 20.4217 22.2997 20.3521 22.3281C20.2824 22.3566 20.2191 22.3985 20.1657 22.4514L19.1943 23.4286H12.8057L11.8343 22.4514C11.7809 22.3985 11.7176 22.3566 11.6479 22.3281C11.5783 22.2997 11.5038 22.2853 11.4286 22.2857H2.85714V21.1429ZM30.8571 24C30.8571 24.4547 30.6765 24.8907 30.355 25.2122C30.0336 25.5337 29.5975 25.7143 29.1429 25.7143H2.85714C2.40249 25.7143 1.96645 25.5337 1.64496 25.2122C1.32347 24.8907 1.14286 24.4547 1.14286 24V23.4286H11.1943L12.1657 24.4057C12.2191 24.4587 12.2824 24.5006 12.3521 24.529C12.4217 24.5574 12.4962 24.5719 12.5714 24.5714H19.4286C19.5038 24.5719 19.5783 24.5574 19.6479 24.529C19.7176 24.5006 19.7809 24.4587 19.8343 24.4057L20.8057 23.4286H30.8571V24Z" fill="#E8395C"/>
</svg>
