<svg width="117" height="34" viewBox="0 0 117 34" fill="none" xmlns="http://www.w3.org/2000/svg">
<g clip-path="url(#clip0_3774_24)">
<path fill-rule="evenodd" clip-rule="evenodd" d="M10.9572 12.0175C10.9572 13.3779 10.9916 14.5123 10.3033 15.7205C9.74767 16.7027 8.86753 17.3068 7.88415 17.3068C6.54182 17.3068 5.76003 16.2853 5.76003 14.7776C5.76003 11.8014 8.42993 11.2612 10.9572 11.2612V12.0175ZM14.4827 20.5285C14.2516 20.7348 13.9172 20.7495 13.6566 20.612C12.4962 19.6494 12.2897 19.2025 11.6505 18.2841C9.73291 20.2388 8.37584 20.8232 5.88787 20.8232C2.94754 20.8232 0.65625 19.011 0.65625 15.3816C0.65625 12.5479 2.19525 10.6178 4.38329 9.67486C6.28122 8.83996 8.93145 8.69262 10.9572 8.4618V8.00997C10.9572 7.17998 11.0212 6.19775 10.5344 5.48072C10.1066 4.83736 9.29039 4.57216 8.57252 4.57216C7.24003 4.57216 6.05013 5.25481 5.76003 6.66922C5.70103 6.98354 5.46993 7.29294 5.15525 7.30768L1.76256 6.94425C1.47738 6.8804 1.16269 6.64958 1.24136 6.21249C2.02316 2.10676 5.73544 0.869141 9.0593 0.869141C10.7606 0.869141 12.983 1.32097 14.3253 2.60769C16.0266 4.194 15.8643 6.31071 15.8643 8.61404V14.0556C15.8643 15.691 16.5429 16.4081 17.1821 17.2921C17.4083 17.6064 17.4574 17.9845 17.1722 18.2203C16.4593 18.8145 15.1907 19.9195 14.4925 20.5383L14.4827 20.5285Z" fill="black"/>
<path fill-rule="evenodd" clip-rule="evenodd" d="M24.4876 20.4057H20.9916C20.6573 20.3812 20.3918 20.1307 20.3672 19.8115V1.89067C20.3672 1.53215 20.6671 1.2473 21.0408 1.2473H24.3007C24.64 1.26202 24.9104 1.52233 24.935 1.84646V4.18909H24.9989C25.8496 1.92504 27.4476 0.869141 29.6012 0.869141C31.7892 0.869141 33.1561 1.92504 34.1395 4.18909C34.9852 1.92504 36.9078 0.869141 38.968 0.869141C40.4332 0.869141 42.0361 1.47321 43.0146 2.82869C44.1209 4.33642 43.8947 6.5268 43.8947 8.44706L43.8898 19.7575C43.8898 20.116 43.5899 20.4057 43.2162 20.4057H39.7252C39.3761 20.3812 39.0958 20.1013 39.0958 19.7575V10.2593C39.0958 9.50296 39.1646 7.61708 38.9975 6.90005C38.7369 5.69682 37.9551 5.35794 36.9422 5.35794C36.0965 5.35794 35.2114 5.92273 34.8525 6.82638C34.4935 7.73004 34.528 9.24267 34.528 10.2593V19.7575C34.528 20.116 34.228 20.4057 33.8543 20.4057H30.3633C30.0093 20.3812 29.734 20.1013 29.734 19.7575L29.729 10.2593C29.729 8.26044 30.0585 5.31865 27.5754 5.31865C25.0629 5.31865 25.1612 8.18677 25.1612 10.2593V19.7575C25.1612 20.116 24.8613 20.4057 24.4876 20.4057Z" fill="black"/>
<path fill-rule="evenodd" clip-rule="evenodd" d="M57.215 12.0175C57.215 13.3779 57.2495 14.5123 56.5611 15.7205C56.0055 16.7027 55.1204 17.3068 54.142 17.3068C52.7996 17.3068 52.0129 16.2853 52.0129 14.7776C52.0129 11.8014 54.6828 11.2612 57.215 11.2612V12.0175ZM60.7405 20.5285C60.5094 20.7348 60.175 20.7495 59.9144 20.612C58.754 19.6494 58.5426 19.2025 57.9083 18.2841C55.9907 20.2388 54.6287 20.8232 52.1457 20.8232C49.2004 20.8232 46.9141 19.011 46.9141 15.3816C46.9141 12.5479 48.4481 10.6178 50.6411 9.67486C52.539 8.83996 55.1893 8.69262 57.215 8.4618V8.00997C57.215 7.17998 57.279 6.19775 56.7873 5.48072C56.3644 4.83736 55.5482 4.57216 54.8254 4.57216C53.4929 4.57216 52.3079 5.25481 52.0178 6.66922C51.9588 6.98354 51.7277 7.29294 51.4081 7.30768L48.0204 6.94425C47.7352 6.8804 47.4156 6.64958 47.4992 6.21249C48.2761 2.10676 51.9933 0.869141 55.3171 0.869141C57.0184 0.869141 59.2408 1.32097 60.5831 2.60769C62.2844 4.194 62.1222 6.31071 62.1222 8.61404V14.0556C62.1222 15.691 62.8007 16.4081 63.4399 17.2921C63.6612 17.6064 63.7103 17.9845 63.4251 18.2203C62.7122 18.8145 61.4436 19.9195 60.7454 20.5383L60.7405 20.5285Z" fill="black"/>
<path fill-rule="evenodd" clip-rule="evenodd" d="M67.2789 4.08104V1.51741C67.2789 1.12943 67.574 0.869141 67.928 0.869141H79.4189C79.7876 0.869141 80.0827 1.13434 80.0827 1.51741V3.7127C80.0777 4.08104 79.768 4.56233 79.2173 5.32356L73.2629 13.815C75.4755 13.7609 77.811 14.09 79.8171 15.2196C80.2695 15.4749 80.3924 15.8482 80.4268 16.2165V18.952C80.4268 19.3253 80.0138 19.7624 79.5811 19.5365C76.0458 17.685 71.3502 17.4836 67.4412 19.5561C67.0429 19.7722 66.625 19.34 66.625 18.9668V16.3688C66.625 15.9513 66.6299 15.2392 67.0479 14.6057L73.9463 4.7244H67.9427C67.574 4.7244 67.2789 4.46411 67.2789 4.08104Z" fill="black"/>
<path fill-rule="evenodd" clip-rule="evenodd" d="M91.2968 0.869141C96.4842 0.869141 99.2917 5.31865 99.2917 10.9763C99.2917 16.4424 96.1891 20.779 91.2968 20.779C86.2028 20.779 83.4297 16.3295 83.4297 10.7848C83.4297 5.2057 86.2373 0.869141 91.2968 0.869141ZM91.3263 4.52796C88.7498 4.52796 88.5876 8.03452 88.5876 10.22C88.5876 12.4104 88.5531 17.0858 91.2968 17.0858C94.006 17.0858 94.1339 13.314 94.1339 11.0156C94.1339 9.50296 94.0699 7.69566 93.6127 6.2616C93.2193 5.01416 92.4375 4.52796 91.3263 4.52796Z" fill="black"/>
<path fill-rule="evenodd" clip-rule="evenodd" d="M106.405 20.4057H102.923C102.574 20.3812 102.294 20.1013 102.294 19.7575L102.289 1.83173C102.319 1.50268 102.609 1.2473 102.963 1.2473H106.203C106.508 1.26202 106.759 1.4683 106.827 1.74824V4.48867H106.891C107.87 2.038 109.242 0.869141 111.656 0.869141C113.224 0.869141 114.753 1.43393 115.737 2.98094C116.651 4.415 116.651 6.82638 116.651 8.56002V19.841C116.612 20.1553 116.322 20.4057 115.978 20.4057H112.472C112.152 20.3812 111.887 20.1455 111.853 19.841V10.107C111.853 8.14748 112.079 5.27936 109.664 5.27936C108.814 5.27936 108.032 5.84906 107.644 6.71342C107.152 7.80861 107.088 8.89889 107.088 10.107V19.7575C107.083 20.116 106.778 20.4057 106.405 20.4057Z" fill="black"/>
<path fill-rule="evenodd" clip-rule="evenodd" d="M54.8403 25.7199C48.2762 30.5525 38.762 33.1309 30.5703 33.1309C19.0844 33.1309 8.74405 28.8876 0.9212 21.8303C0.306584 21.2753 0.857278 20.519 1.59482 20.9512C10.0372 25.8574 20.4759 28.809 31.2587 28.809C38.5309 28.809 46.5307 27.3062 53.8865 24.1876C54.9977 23.7162 55.927 24.9145 54.8403 25.7199Z" fill="#FF9900"/>
<path fill-rule="evenodd" clip-rule="evenodd" d="M66.5341 23.7806C65.6983 22.71 60.9878 23.2747 58.8736 23.5252C58.2294 23.6038 58.1311 23.0439 58.7113 22.6412C62.4629 20.0039 68.6189 20.7651 69.3368 21.6491C70.0547 22.5381 69.15 28.7016 65.6245 31.6433C65.0836 32.0952 64.5674 31.8545 64.8083 31.2554C65.5999 29.2811 67.3749 24.8561 66.5341 23.7806Z" fill="#FF9900"/>
</g>
<defs>
<clipPath id="clip0_3774_24">
<rect width="115.994" height="32.2617" fill="white" transform="translate(0.65625 0.869141)"/>
</clipPath>
</defs>
</svg>
