<svg width="76" height="32" viewBox="0 0 76 32" fill="none" xmlns="http://www.w3.org/2000/svg">
<path d="M12.9615 3.20192L13.1482 1.85231C13.1949 1.61962 13.1015 1.43346 12.9615 1.24731C12.8215 1.10769 12.6348 1.01462 12.4015 1.01462H4.3274C3.95404 1.01462 3.67401 1.29385 3.62734 1.61962L1.38714 15.4415C1.34047 15.6742 1.43381 15.8604 1.57382 16.0465C1.71384 16.1862 1.90052 16.3258 2.13387 16.3258H4.00071C4.37407 16.3258 4.6541 16.0465 4.70077 15.7208L5.54084 10.3688H10.2079C10.5813 10.3688 10.8613 10.0896 10.908 9.76385L11.0947 8.60038C11.1413 8.36769 11.048 8.18154 10.908 7.99538C10.768 7.80923 10.5813 7.71615 10.3479 7.71615H5.96088L6.52093 3.85346H12.1681C12.6348 3.80692 12.9148 3.57423 12.9615 3.20192ZM55.7586 7.80923H55.712C55.1986 7.66961 54.6385 7.57654 53.9851 7.57654C52.9584 7.57654 52.1183 7.99538 51.6049 8.83308C51.0916 9.67077 50.8115 10.6015 50.8115 11.5788C50.8115 12.2304 50.9049 12.7423 51.1382 13.1612C51.3716 13.58 51.6983 13.8127 52.1183 13.8127C52.585 13.8127 53.0984 13.5335 53.7051 12.9285C54.2652 12.37 54.8252 11.6719 55.2919 10.9273L55.7586 7.80923ZM59.1656 6.22692L57.6721 15.7208C57.6255 16.0931 57.2988 16.3258 56.9721 16.3258H55.852C55.6653 16.3258 55.4786 16.2327 55.3386 16.0931C55.1986 15.9535 55.1052 15.7673 55.1519 15.5812L55.1986 14.4177L55.0586 14.5573C55.0586 14.5573 54.6385 15.0227 54.1252 15.395C53.3784 15.9535 52.585 16.2792 52.4917 16.3258C52.025 16.5119 51.5583 16.5585 51.0449 16.5585C49.9248 16.5585 49.0847 16.1396 48.478 15.3485C47.8713 14.5573 47.5912 13.4404 47.5912 12.1373C47.5912 11.4392 47.6379 10.7877 47.7779 10.1362C47.9179 9.48462 48.1513 8.83308 48.478 8.22808C48.8047 7.57654 49.2247 7.01808 49.7381 6.55269C50.2515 6.08731 50.9049 5.66846 51.6983 5.38923C52.4917 5.11 53.4251 4.92385 54.4052 4.92385C55.6186 4.92385 57.0188 5.06346 58.6056 5.38923C58.9789 5.48231 59.2123 5.85462 59.1656 6.22692ZM67.1463 5.06346C66.3996 5.24962 65.6529 5.715 65.1861 6.04077C64.6261 6.45962 63.8327 7.29731 63.8327 7.29731L63.6927 7.43692L63.7393 5.94769C63.7393 5.76154 63.6927 5.57538 63.5527 5.38923C63.4127 5.24962 63.226 5.15654 63.0393 5.15654H61.9192C61.5458 5.15654 61.2658 5.38923 61.2191 5.76154L59.679 15.4415C59.6323 15.6742 59.7257 15.8604 59.8657 16.0465C60.0057 16.1862 60.1924 16.2792 60.4257 16.2792H62.1525C62.5259 16.2792 62.8059 16 62.8526 15.6742L63.646 10.5085C64.1127 9.85692 64.7194 9.29846 65.4195 8.83308C65.9795 8.50731 66.4929 8.27462 67.053 8.18154C67.333 8.135 67.613 7.90231 67.6597 7.57654L67.9864 5.80808C68.0331 5.57538 67.9397 5.34269 67.753 5.15654C67.613 5.06346 67.3797 5.01692 67.1463 5.06346ZM32.4232 9.90346C32.4232 9.25192 32.3299 8.74 32.0965 8.32115C31.8632 7.90231 31.5365 7.66962 31.1164 7.66962C30.6497 7.66962 30.1364 7.94885 29.5296 8.55385C28.9229 9.11231 28.4095 9.81038 27.9428 10.555L27.4295 13.6731H27.4761C27.9895 13.8127 28.5496 13.9058 29.2029 13.9058C30.2764 13.9058 31.0698 13.4869 31.5832 12.6492C32.1432 11.8581 32.4232 10.9273 32.4232 9.90346ZM34.7568 6.18038C35.3635 6.97154 35.6435 8.08846 35.6435 9.345C35.6435 10.1827 35.5035 11.0669 35.2702 11.8581C35.0368 12.6492 34.6634 13.4404 34.1501 14.185C33.6367 14.9296 32.9366 15.4881 32.0499 15.9535C31.1164 16.4188 30.043 16.605 28.8296 16.605C28.3629 16.605 27.7562 16.5585 27.0094 16.4654H26.9161L26.7761 17.7685V17.815L26.4027 20.1419C26.356 20.5142 26.0293 20.7469 25.7026 20.7469H23.9758C23.7425 20.7469 23.5558 20.6538 23.4158 20.5142C23.2758 20.3746 23.2291 20.1419 23.2291 19.9092L25.4693 5.85462C25.516 5.48231 25.8426 5.24962 26.1693 5.24962H27.2894C27.4761 5.24962 27.6628 5.34269 27.8028 5.48231C27.9428 5.62192 28.0362 5.80808 27.9895 5.99423L28.0828 7.11115L28.2229 6.925C28.2229 6.925 29.2963 5.62192 30.9298 5.11C31.3965 4.97038 31.8165 4.87731 32.2365 4.87731C33.31 4.97038 34.1501 5.34269 34.7568 6.18038ZM74.8003 5.15654H73.4469L73.7269 3.24846C73.7736 3.01577 73.6802 2.82962 73.5402 2.64346C73.4002 2.50385 73.2135 2.41077 72.9802 2.41077H71.6267C71.3 2.41077 71.02 2.64346 70.9267 2.92269L70.2733 5.15654H69.5265C69.1532 5.15654 68.8731 5.38923 68.8265 5.76154L68.6398 6.78538C68.5931 7.01808 68.6398 7.20423 68.8265 7.39038C68.9665 7.53 69.1532 7.62308 69.3865 7.62308H69.8532L69.0598 12.7888C69.0132 13.1146 68.9665 13.4404 68.9665 13.8127C68.9665 14.7435 69.1998 15.395 69.7132 15.8604C70.2266 16.3258 70.9733 16.5585 71.9534 16.5585C72.5601 16.5585 73.4002 16.3258 73.4936 16.2792C73.5869 16.2327 73.7269 16.1862 73.7269 16.1862C73.7736 16.1862 73.7736 16.1396 73.8202 16.1396C74.0536 16.0465 74.1469 15.8138 74.1936 15.5812L74.3336 14.5108C74.3336 14.2781 74.287 14.0454 74.1003 13.9058C74.0536 13.8592 74.0069 13.8127 73.9603 13.7662C73.9136 13.7662 73.8669 13.7196 73.8669 13.7196C73.8203 13.7196 73.7736 13.7196 73.4936 13.7196C73.4469 13.7196 73.3535 13.7196 73.3069 13.7196C73.1669 13.7196 73.1202 13.7196 73.0735 13.7196C72.9802 13.7196 72.7001 13.6265 72.6068 13.5335C72.5601 13.4869 72.3735 13.3008 72.3735 12.6958C72.3735 12.6492 72.3735 12.5562 72.3735 12.4165L73.1202 7.66962H74.6603C74.987 7.66962 75.3137 7.43692 75.3604 7.06462L75.5471 6.04077C75.5937 5.80808 75.5471 5.62192 75.4071 5.43577C75.2204 5.29615 75.0337 5.15654 74.8003 5.15654ZM47.3112 5.48231C47.1712 5.29615 46.9379 5.20308 46.7045 5.20308H44.8843C44.5576 5.20308 44.2776 5.43577 44.1843 5.715C44.0443 6.22692 43.7642 6.83192 43.2975 7.53C42.6908 8.46077 42.2241 9.06577 41.8041 9.345L41.7574 9.39154C41.6174 9.48461 41.384 9.57769 40.5906 9.71731H40.4973L41.7574 1.89885C41.8041 1.66615 41.7107 1.48 41.5707 1.29385C41.4307 1.15423 41.244 1.01462 41.0107 1.01462H39.2838C38.9105 1.01462 38.6305 1.29385 38.5838 1.61962L36.3903 15.4415C36.3436 15.6742 36.4369 15.8604 36.5303 16.0465C36.6703 16.1862 36.857 16.3258 37.0903 16.3258H38.8171C39.1905 16.3258 39.4705 16.0465 39.5172 15.7208L40.0772 12.0908H41.1507L42.6441 15.8604C42.7375 16.1396 43.0175 16.3258 43.2975 16.3258H45.1644C45.5844 16.3258 45.9111 16 45.9111 15.5812C45.9111 15.4881 45.9111 15.395 45.8644 15.3019L44.1376 10.9273L44.1843 10.8808C44.8843 10.2292 45.6311 9.345 46.3311 8.22808C46.7978 7.48346 47.1245 6.78538 47.3112 6.13385C47.4512 5.90115 47.4046 5.66846 47.3112 5.48231ZM22.249 4.22577C22.9491 4.22577 23.5091 4.03962 23.8358 3.66731C24.2092 3.295 24.3492 2.82962 24.3492 2.22462C24.3492 1.75923 24.2092 1.43346 23.9758 1.20077C23.6958 0.968077 23.3224 0.875 22.809 0.875C22.109 0.875 21.5489 1.06115 21.2222 1.43346C20.8489 1.80577 20.6622 2.27115 20.6622 2.87615C20.6622 3.34154 20.8022 3.66731 21.0356 3.9C21.3156 4.13269 21.6889 4.22577 22.249 4.22577ZM22.809 5.15654H21.0822C20.7089 5.15654 20.4288 5.38923 20.3822 5.76154L18.842 15.4415C18.7954 15.6742 18.8887 15.8604 19.0287 16.0465C19.1687 16.1862 19.3554 16.2792 19.5888 16.2792H21.3156C21.6889 16.2792 21.969 16 22.0156 15.6742L23.5558 5.99423C23.6024 5.76154 23.5091 5.57538 23.3691 5.38923C23.2291 5.29615 23.0424 5.15654 22.809 5.15654ZM17.8619 1.29385C18.0019 1.43346 18.0486 1.66615 18.0486 1.89885L16.3685 12.6492C16.3685 12.8354 16.3685 12.9285 16.3685 13.0215C16.3685 13.3938 16.4618 13.6265 16.5552 13.7662C16.6952 13.9058 16.9752 13.9523 17.0219 13.9523C17.1619 13.9523 17.3019 14.0454 17.4419 14.185C17.5819 14.3246 17.6753 14.5573 17.6286 14.7435L17.5352 15.7208C17.5352 15.9069 17.4419 16.0931 17.3019 16.1862C17.1619 16.2792 17.0219 16.3258 16.8352 16.4188C16.6485 16.5119 16.1351 16.6515 15.7618 16.6515C14.875 16.6515 14.1283 16.4188 13.6616 16.0465C13.1949 15.6277 12.9615 15.0227 12.9615 14.2781C12.9615 14.0454 12.9615 13.8592 13.0082 13.58C13.0082 13.4869 14.8283 1.89885 14.875 1.75923C14.9217 1.38692 15.2484 1.15423 15.5751 1.15423H17.3019C17.5352 1.01462 17.7219 1.10769 17.8619 1.29385Z" fill="#2A55E5"/>
<path d="M67.7067 24.0045C67.7067 24.0045 68.7801 24.563 69.3402 24.7492C69.8536 24.9818 69.9002 25.8195 69.3402 26.0988C68.7801 26.378 68.5935 26.4245 68.5935 26.4245C68.5935 26.4245 68.6868 26.1918 68.6868 25.9592C68.6401 25.5403 67.4733 25.2145 66.6799 25.0284C66.6799 25.0284 66.0732 23.1203 65.7932 22.6084C65.5132 22.0965 64.9531 21.8638 64.9531 21.8638H66.2599C66.2599 21.8638 66.7266 21.8638 66.9133 22.3292C67.1 22.8411 67.7067 24.0045 67.7067 24.0045Z" fill="url(#paint0_linear_3774_45)"/>
<path d="M67.6144 28.1466C67.6144 28.1466 67.101 29.2169 66.8677 29.7754C66.6343 30.2873 65.7942 30.3339 65.5142 29.7754C65.2342 29.2169 65.1875 29.0773 65.1875 29.0773C65.1875 29.0773 65.3742 29.1239 65.6075 29.0773C66.0276 29.0308 66.3543 27.8673 66.541 27.0762C66.541 27.0762 68.4078 26.4712 68.9678 26.1919C69.4812 25.9127 69.7146 25.3542 69.7146 25.3542V26.8435C69.7146 26.8435 69.7146 27.1227 69.2479 27.3089C68.7812 27.5881 67.6144 28.1466 67.6144 28.1466Z" fill="url(#paint1_linear_3774_45)"/>
<path d="M63.4112 28.0535C63.4112 28.0535 62.3378 27.5416 61.7777 27.3089C61.2643 27.0762 61.2177 26.2385 61.7777 25.9593C62.3378 25.6801 62.5711 25.6335 62.5711 25.6335C62.5711 25.6335 62.4311 25.8662 62.4778 26.1455C62.5245 26.5643 63.6446 26.8435 64.438 27.0297C64.438 27.0297 65.0447 28.8912 65.3247 29.4497C65.6514 30.1012 66.1181 30.1943 66.1181 30.1943H64.6246C64.6246 30.1943 64.3446 30.1943 64.1579 29.7289C64.0179 29.217 63.4112 28.0535 63.4112 28.0535Z" fill="url(#paint2_linear_3774_45)"/>
<path d="M63.5064 23.9115C63.5064 23.9115 64.0198 22.8411 64.2532 22.2827C64.4865 21.7708 65.3266 21.7242 65.6066 22.2827C65.8866 22.8411 65.9333 22.9808 65.9333 22.9808C65.9333 22.9808 65.7 22.9808 65.5133 22.9808C65.0932 23.0273 64.7666 24.1442 64.5799 24.9354C64.5799 24.9354 62.713 25.5404 62.153 25.8196C61.4063 26.1919 61.4062 26.6108 61.4062 26.6108L61.4529 25.1215C61.4529 25.1215 61.4529 24.8423 61.9196 24.6561C62.3863 24.47 63.5064 23.9115 63.5064 23.9115Z" fill="url(#paint3_linear_3774_45)"/>
<path d="M5.49398 29.1239H0.546875L1.6203 22.2827H6.61408L6.4274 23.6323H3.02043L2.78707 25.075H5.72734L5.54065 26.3316H2.60039L2.36704 27.8208H5.72734L5.49398 29.1239Z" fill="#9E9E9E"/>
<path d="M11.3285 29.1239H9.60167L8.90161 27.6812L7.68817 29.1239H6.05469L8.24822 26.5643L6.94143 24.0046H8.66825L9.36832 25.4939L10.6284 24.0046H12.2152L10.0217 26.5177L11.3285 29.1239Z" fill="#9E9E9E"/>
<path d="M15.7633 23.9116C16.2767 23.9116 16.65 24.0978 16.9301 24.4701C17.2101 24.8424 17.3501 25.3543 17.3501 25.9128C17.3501 26.2851 17.3034 26.7039 17.1634 27.0762C17.0701 27.4485 16.8834 27.7743 16.65 28.1466C16.4167 28.4724 16.09 28.7516 15.6699 28.9843C15.2499 29.1705 14.7365 29.2635 14.1765 29.2635C13.9431 29.2635 13.6631 29.2635 13.3364 29.217L13.2897 29.7755L13.1497 31.1251H11.6562L12.7764 24.0512H13.9431L13.8964 25.1216C14.4098 24.3305 15.0165 23.9116 15.7633 23.9116ZM15.2966 25.2147C15.1099 25.2147 14.8765 25.3543 14.5965 25.587C14.3165 25.8662 14.0831 26.1455 13.8964 26.5178L13.6631 27.8674C13.8964 27.9605 14.1298 27.9605 14.4565 27.9605C14.9232 27.9605 15.2499 27.7743 15.4833 27.402C15.7166 27.0297 15.8566 26.6109 15.8566 26.1455C15.8566 25.8662 15.81 25.6335 15.7166 25.4474C15.6233 25.3078 15.4833 25.2147 15.2966 25.2147Z" fill="#9E9E9E"/>
<path d="M20.5202 27.9139L20.3802 29.0774C20.0535 29.1704 19.6801 29.2635 19.3068 29.2635C18.8867 29.2635 18.56 29.1704 18.3267 28.9843C18.0933 28.7981 18 28.5189 18 28.1466C18 28.0535 18 27.9604 18.0467 27.8208L18.9334 22.05H20.4736L19.6335 27.402C19.6335 27.495 19.6335 27.5416 19.6335 27.5881C19.6335 27.7277 19.6801 27.8674 19.7268 27.9139C19.7735 27.9604 19.9135 28.007 20.0535 28.007C20.1469 27.9604 20.3335 27.9604 20.5202 27.9139Z" fill="#9E9E9E"/>
<path d="M23.4121 29.2634C22.712 29.2634 22.152 29.0772 21.7786 28.7049C21.4052 28.3326 21.1719 27.8207 21.1719 27.1692C21.1719 26.1919 21.4519 25.4472 22.0119 24.8422C22.572 24.2372 23.3187 23.958 24.2055 23.958C24.9522 23.958 25.5123 24.1442 25.8856 24.5165C26.3057 24.8888 26.4923 25.4007 26.4923 26.0522C26.4923 27.0295 26.2123 27.8207 25.6523 28.4257C25.1389 28.9376 24.3922 29.2634 23.4121 29.2634ZM23.5521 27.9603C23.9721 27.9603 24.2988 27.8207 24.5788 27.4949C24.8122 27.1692 24.9522 26.7503 24.9522 26.1919C24.9522 25.5403 24.6722 25.168 24.0655 25.168C23.6454 25.168 23.3187 25.3076 23.0387 25.6334C22.7587 25.9592 22.6653 26.378 22.6653 26.983C22.6653 27.3088 22.7587 27.588 22.8987 27.7276C23.0387 27.9138 23.2721 27.9603 23.5521 27.9603Z" fill="#9E9E9E"/>
<path d="M26.9609 29.1238L27.7543 24.0046H28.9678L28.9211 25.2146C29.4345 24.3304 30.0879 23.865 30.8813 23.865H30.9746L30.6946 25.4008C30.3679 25.4008 30.0412 25.4938 29.7145 25.7265C29.3878 25.9127 29.1078 26.1919 28.9211 26.4711L28.5011 29.0773H26.9609V29.1238Z" fill="#9E9E9E"/>
<path d="M35.9705 25.4472C35.9239 26.6572 35.0371 27.2157 33.3103 27.2157C33.077 27.2157 32.8436 27.2157 32.6102 27.1692C32.6569 27.4484 32.7503 27.6811 32.9369 27.8207C33.1236 27.9603 33.4036 28.0069 33.8704 28.0069C34.3837 28.0069 34.8971 27.9138 35.4572 27.7276L35.2238 28.9376C34.6171 29.1703 34.057 29.2634 33.4503 29.2634C32.5636 29.2634 31.9569 29.0772 31.5835 28.7049C31.2101 28.3326 31.0234 27.8207 31.0234 27.1226C31.0234 26.2384 31.3035 25.4938 31.8168 24.8888C32.3769 24.2838 33.077 23.958 33.9637 23.958C34.6638 23.958 35.1305 24.0976 35.4572 24.3769C35.8305 24.6561 35.9705 24.9819 35.9705 25.4472ZM32.6569 26.2849C32.7036 26.2849 32.8436 26.2849 32.9836 26.2849C33.9637 26.2849 34.4771 26.0522 34.4771 25.5869C34.4771 25.4472 34.4304 25.3076 34.3371 25.2145C34.2437 25.1215 34.1037 25.0749 33.917 25.0749C33.5903 25.0749 33.357 25.168 33.1236 25.4007C32.8903 25.6334 32.7503 25.9126 32.6569 26.2849Z" fill="#9E9E9E"/>
<path d="M40.2665 29.1239H38.6797L39.7531 22.2827H42.5534C43.3934 22.2827 44.0002 22.4223 44.3735 22.7481C44.7469 23.0739 44.8869 23.4927 44.8869 24.0977C44.8869 24.3769 44.8402 24.6562 44.7936 24.9354C44.7469 25.1681 44.6536 25.4473 44.5135 25.68C44.3735 25.9127 44.1868 26.1454 43.9535 26.3316C43.7201 26.5177 43.4401 26.6573 43.0667 26.7504C42.6934 26.8435 42.2733 26.9366 41.8066 26.9366H40.5932L40.2665 29.1239ZM40.8265 25.68H41.9466C42.8801 25.68 43.3468 25.2612 43.3468 24.3769C43.3468 24.0977 43.2534 23.9116 43.1134 23.7719C42.9734 23.6323 42.6934 23.5393 42.32 23.5393H41.1532L40.8265 25.68Z" fill="#FFC200"/>
<path d="M47.6374 27.9137L47.5441 29.0772C47.1707 29.2168 46.7973 29.3099 46.424 29.3099C46.0039 29.3099 45.6772 29.2168 45.4439 29.0307C45.2105 28.8445 45.1172 28.5653 45.1172 28.193C45.1172 28.0999 45.1172 28.0068 45.1639 27.8672L46.0506 22.0964H47.5907L46.7507 27.4484C46.7507 27.5414 46.7507 27.588 46.7507 27.6345C46.7507 27.7741 46.7973 27.9137 46.844 27.9603C46.8907 28.0068 47.0307 28.0534 47.1707 28.0534C47.264 27.9603 47.4507 27.9603 47.6374 27.9137Z" fill="#FFC200"/>
<path d="M53.7031 24.0513L52.863 29.1705H51.6962L51.7429 28.1001C51.1829 28.8913 50.5295 29.3101 49.6894 29.3101C49.2227 29.3101 48.896 29.1705 48.6626 28.9378C48.4293 28.7051 48.3359 28.3328 48.3359 27.914C48.3359 27.7278 48.3359 27.5882 48.3826 27.4486L48.9427 24.0978H50.4361L49.9694 27.0763C49.9694 27.1693 49.9227 27.2624 49.9227 27.402C49.9227 27.7743 50.0628 27.9605 50.3428 27.9605C50.5761 27.9605 50.8095 27.8209 51.0428 27.5882C51.3229 27.3555 51.5562 27.0297 51.7896 26.704L52.2096 24.0978H53.7031V24.0513Z" fill="#FFC200"/>
<path d="M53.9375 28.9843L54.2175 27.7278C54.2642 27.7743 54.4509 27.8674 54.8242 27.9139C55.1976 28.007 55.5243 28.007 55.851 28.007C56.5044 28.007 56.8311 27.8674 56.8311 27.5416C56.8311 27.402 56.7377 27.3089 56.5977 27.2624C56.4577 27.1693 56.2244 27.1228 55.991 27.0762C55.7577 27.0297 55.5243 26.9366 55.291 26.8901C55.0576 26.797 54.8709 26.6574 54.6842 26.4712C54.5442 26.2851 54.4509 26.0059 54.4509 25.7266C54.4509 25.1216 54.6842 24.7028 55.1043 24.377C55.5243 24.0512 56.1777 23.9116 57.0178 23.9116C57.2978 23.9116 57.5778 23.9116 57.8578 23.9582C58.1379 24.0047 58.3246 24.0047 58.4646 24.0512C58.6046 24.0978 58.6979 24.1443 58.7446 24.1443L58.5112 25.3543C58.4179 25.2612 58.1845 25.2147 57.9045 25.1682C57.6245 25.1216 57.3445 25.0751 57.0644 25.0751C56.4111 25.0751 56.0377 25.2147 56.0377 25.5405C56.0377 25.6335 56.131 25.7266 56.271 25.8197C56.4577 25.8662 56.6444 25.9593 56.8778 26.0059C57.1111 26.0524 57.3445 26.0989 57.5778 26.192C57.8112 26.2851 57.9979 26.4247 58.1845 26.6109C58.3712 26.797 58.4179 27.0762 58.4179 27.3555C58.4179 27.9605 58.1845 28.4259 57.7178 28.7516C57.2511 29.0309 56.6444 29.217 55.851 29.217C55.571 29.217 55.2443 29.217 54.9643 29.1705C54.6376 29.1239 54.4509 29.0774 54.2642 29.0774C54.0308 29.0309 53.9842 29.0309 53.9375 28.9843Z" fill="#FFC200"/>
<defs>
<linearGradient id="paint0_linear_3774_45" x1="64.9738" y1="21.8599" x2="69.2978" y2="26.1807" gradientUnits="userSpaceOnUse">
<stop offset="0.0411" stop-color="#FFF300"/>
<stop offset="0.2727" stop-color="#FFF300"/>
<stop offset="0.5022" stop-color="#FFE500"/>
<stop offset="0.8126" stop-color="#F2A930"/>
</linearGradient>
<linearGradient id="paint1_linear_3774_45" x1="65.4321" y1="29.7707" x2="69.7638" y2="25.4424" gradientUnits="userSpaceOnUse">
<stop offset="0.1874" stop-color="#F2A930"/>
<stop offset="0.4978" stop-color="#FFE500"/>
<stop offset="0.7273" stop-color="#FFF300"/>
<stop offset="0.9589" stop-color="#FFF300"/>
</linearGradient>
<linearGradient id="paint2_linear_3774_45" x1="61.7999" y1="25.9174" x2="66.1165" y2="30.2307" gradientUnits="userSpaceOnUse">
<stop offset="0.1874" stop-color="#F2A930"/>
<stop offset="0.4978" stop-color="#FFE500"/>
<stop offset="0.7273" stop-color="#FFF300"/>
<stop offset="0.9589" stop-color="#FFF300"/>
</linearGradient>
<linearGradient id="paint3_linear_3774_45" x1="61.364" y1="26.6132" x2="65.6853" y2="22.2956" gradientUnits="userSpaceOnUse">
<stop offset="0.0411" stop-color="#FFF300"/>
<stop offset="0.2727" stop-color="#FFF300"/>
<stop offset="0.5022" stop-color="#FFE500"/>
<stop offset="0.8126" stop-color="#F2A930"/>
</linearGradient>
</defs>
</svg>
