<svg width="1440" height="47" viewBox="0 0 1440 47" fill="none" xmlns="http://www.w3.org/2000/svg">
<rect y="3" width="346" height="44" fill="#131316"/>
<path d="M351.686 2.9375H345V47H405V46.0208H402.314C401.263 46.0209 400.223 45.8183 399.252 45.4247C398.282 45.031 397.4 44.454 396.657 43.7266L357.343 5.23169C356.6 4.5043 355.718 3.92732 354.748 3.53368C353.777 3.14005 352.737 2.93746 351.686 2.9375Z" fill="#131316"/>
<path d="M1088.31 2.9375H1095V47H1035V46.0208H1037.69C1038.74 46.0209 1039.78 45.8183 1040.75 45.4247C1041.72 45.031 1042.6 44.454 1043.34 43.7266L1082.66 5.23169C1083.4 4.5043 1084.28 3.92732 1085.25 3.53368C1086.22 3.14005 1087.26 2.93746 1088.31 2.9375Z" fill="#131316"/>
<rect x="1094" y="3" width="346" height="44" fill="#131316"/>
</svg>
