<svg width="128" height="40" viewBox="0 0 128 40" fill="none" xmlns="http://www.w3.org/2000/svg">
<path d="M15.9689 14.2727V18.5455H26.2802C26.0064 20.9091 25.1852 22.7273 23.9077 23.9091C22.4476 25.3636 20.0751 27 15.9689 27C9.67256 27 4.74503 21.9091 4.74503 15.6364C4.74503 9.36364 9.58131 4.27273 15.9689 4.27273C19.3451 4.27273 21.9001 5.63636 23.7252 7.36364L26.7364 4.36364C24.1814 1.90909 20.7139 0 15.9689 0C7.30005 0 0 7 0 15.6364C0 24.2727 7.30005 31.2727 15.9689 31.2727C20.6226 31.2727 24.1814 29.7273 26.9189 26.9091C29.7477 24.0909 30.6602 20.0909 30.6602 16.9091C30.6602 15.9091 30.5689 15 30.4777 14.2727H15.9689Z" fill="#4285F4"/>
<path d="M43.4388 10.7273C37.8725 10.7273 33.2188 15 33.2188 20.8182C33.2188 26.6364 37.7813 30.9091 43.4388 30.9091C49.0963 30.9091 53.6589 26.7273 53.6589 20.9091C53.6589 15 49.0963 10.7273 43.4388 10.7273ZM43.4388 27C40.3363 27 37.69 24.4546 37.69 20.9091C37.69 17.2727 40.3363 14.8182 43.4388 14.8182C46.5413 14.8182 49.1876 17.2727 49.1876 20.9091C49.1876 24.4546 46.5413 27 43.4388 27Z" fill="#EA4335"/>
<path d="M93.3532 13H93.1707C92.167 11.8182 90.2507 10.7273 87.7869 10.7273C82.6769 10.7273 78.2969 15.0909 78.2969 20.8182C78.2969 26.4546 82.6769 30.9091 87.7869 30.9091C90.2507 30.9091 92.167 29.8182 93.1707 28.6364H93.3532V30.0909C93.3532 33.9091 91.2545 36 87.9694 36C85.2319 36 83.5894 34.0909 82.8594 32.3637L79.0269 34C80.1219 36.6364 83.1332 40 88.0607 40C93.262 40 97.7332 36.9091 97.7332 29.4546V11.2727H93.5357V13H93.3532ZM88.2432 27C85.1407 27 82.8594 24.3637 82.8594 20.9091C82.8594 17.3637 85.2319 14.8182 88.2432 14.8182C91.2545 14.8182 93.627 17.4546 93.627 21C93.7182 24.4546 91.3457 27 88.2432 27Z" fill="#4285F4"/>
<path d="M66.1576 10.7273C60.5913 10.7273 55.9375 15 55.9375 20.8182C55.9375 26.6364 60.5 30.9091 66.1576 30.9091C71.8151 30.9091 76.3776 26.7273 76.3776 20.9091C76.3776 15 71.8151 10.7273 66.1576 10.7273ZM66.1576 27C63.055 27 60.4088 24.4546 60.4088 20.9091C60.4088 17.2727 63.055 14.8182 66.1576 14.8182C69.2601 14.8182 71.9064 17.2727 71.9064 20.9091C71.9064 24.4546 69.2601 27 66.1576 27Z" fill="#FBBC05"/>
<path d="M101.109 0.45459H105.489V31H101.109V0.45459Z" fill="#34A853"/>
<path d="M118.991 27C116.709 27 115.158 26 114.063 23.9091L127.659 18.3637L127.203 17.1818C126.382 14.9091 123.736 10.7273 118.534 10.7273C113.333 10.7273 108.953 14.8182 108.953 20.8182C108.953 26.4546 113.242 30.9091 118.991 30.9091C123.644 30.9091 126.291 28.0909 127.477 26.4546L124.009 24.1818C122.823 25.9091 121.272 27 118.991 27ZM118.717 14.5455C120.542 14.5455 122.093 15.4546 122.549 16.7273L113.424 20.5455C113.333 16.3637 116.436 14.5455 118.717 14.5455Z" fill="#EA4335"/>
</svg>
