<svg width="165" height="169" viewBox="0 0 165 169" fill="none" xmlns="http://www.w3.org/2000/svg">
<path d="M164.998 18.1316C164.998 23.2585 163.235 27.51 159.709 31.0113C156.184 34.5126 151.903 36.2632 146.866 36.2632C141.829 36.2632 137.548 34.5126 134.023 31.0113C130.497 27.51 128.734 23.1334 128.734 18.1316C128.734 13.1298 130.497 8.75319 134.023 5.25191C137.548 1.75063 141.829 0 146.866 0C151.903 0 156.184 1.75063 159.709 5.25191C163.235 8.75319 164.998 13.1298 164.998 18.1316Z" fill="#F1F3F6"/>
<path d="M8.98484 159.48C6.56944 156.941 6.69658 153.005 9.23911 150.593L74.5822 88.7644C77.1248 86.3522 81.0657 86.4792 83.4811 89.0184C85.8965 91.5575 85.7694 95.4932 83.2268 97.9054L17.8837 159.734C15.3412 162.019 11.4002 161.892 8.98484 159.48Z" fill="#F1F3F6"/>
<path d="M50.8363 166.805C48.3466 164.358 48.3465 160.367 50.7118 157.791L87.3112 119.804C89.6765 117.228 93.5356 117.228 96.0253 119.675C98.5151 122.122 98.515 126.114 96.1498 128.689L59.5504 166.676C57.1852 169.252 53.3261 169.252 50.8363 166.805Z" fill="#F1F3F6"/>
<path d="M10.8058 123.225C8.40941 120.672 8.5355 116.715 10.9319 114.289L49.2745 77.9099C51.797 75.4845 55.7069 75.6122 58.1033 78.0375C60.4998 80.5905 60.3736 84.5475 57.9772 86.9728L19.6347 123.352C17.2383 125.778 13.2022 125.65 10.8058 123.225Z" fill="#F1F3F6"/>
<path d="M136.36 139.614C135.47 139.487 134.707 139.36 133.944 139.233C132.8 138.979 131.656 138.852 130.639 138.598C130.385 138.598 130.004 138.598 129.749 138.471C128.605 138.344 127.461 138.09 126.317 137.963C124.792 137.709 123.139 137.456 121.614 137.202C120.342 136.948 119.198 136.694 117.927 136.567C116.783 136.313 115.512 136.186 114.368 136.059C113.986 136.059 113.732 135.932 113.732 135.424C113.732 134.409 113.732 133.393 113.732 132.251C113.732 130.474 113.605 128.57 113.478 126.792C113.351 125.269 113.351 123.873 113.224 122.349C113.096 121.207 113.096 119.937 112.969 118.795C112.842 117.526 112.715 116.256 112.461 114.987C112.334 113.971 112.207 112.829 111.952 111.813C111.698 110.417 111.444 109.02 111.19 107.624C110.935 106.228 110.554 104.831 110.173 103.435C109.791 102.166 109.537 100.769 109.156 99.4998C108.774 98.4842 108.393 97.4687 108.012 96.3262C107.757 95.5646 107.503 94.6759 107.122 93.9143C106.74 93.0257 106.359 92.1371 105.978 91.2485C105.469 90.233 105.088 89.2174 104.579 88.0749C104.325 87.5672 104.071 87.0594 103.689 86.5516C103.181 85.663 102.673 84.7744 102.037 83.8858C101.656 83.2511 101.147 82.6164 100.639 81.9817C99.6216 80.8392 98.7318 79.5698 97.7148 78.5543C97.2063 77.9196 96.4436 77.5387 95.9351 77.0309C95.1723 76.3962 94.5368 75.6346 93.774 75.1268C92.5028 74.1113 91.1045 73.0957 89.7061 72.334C88.562 71.6993 87.418 71.0646 86.1468 70.4299C85.0027 69.9221 83.8586 69.5413 82.7145 69.0336C81.6975 68.6527 80.8077 68.2719 79.7907 67.8911C79.028 67.6372 78.2652 67.5103 77.5025 67.2564C76.6126 67.0025 75.7228 66.7486 74.7059 66.4947C73.4346 66.2408 72.2906 65.86 71.0193 65.6061C70.2566 65.4792 69.3667 65.3522 68.604 65.2253C67.587 65.0983 66.443 64.8445 65.426 64.7175C63.5192 64.4636 61.7395 64.3367 59.8327 64.2097C57.7987 64.0828 55.8919 63.9559 53.858 63.9559C50.9342 63.8289 48.0104 63.8289 45.0866 63.8289C42.9255 63.8289 40.6374 63.9559 38.4763 64.0828C37.078 64.2098 35.6797 64.2097 34.1542 64.3367C33.3915 64.4636 32.6287 64.5906 31.866 64.5906C31.7389 64.5906 31.4847 64.4636 31.4847 64.3367C30.9762 62.8134 30.5948 61.2901 30.2134 59.7668C29.705 58.1165 29.1965 56.4663 28.8151 54.816C28.4337 53.5466 28.0524 52.2772 27.7981 51.1347C27.4168 49.8653 27.0354 48.5958 26.654 47.3264C26.2727 46.1839 26.0184 45.1684 25.6371 44.0259C25.5099 43.772 25.5099 43.5181 25.3828 43.2642C25.7642 43.1373 26.2727 43.0104 26.654 42.7565C27.4168 42.5026 28.1795 42.1218 28.9422 41.8679C29.705 41.614 30.5948 41.3601 31.3575 40.9793C32.5016 40.5985 33.6457 40.2176 34.7898 39.7099C35.4254 39.456 35.9339 39.329 36.5695 39.2021C37.7136 38.8212 38.8577 38.4404 40.0017 38.1865C40.8916 37.9326 41.7815 37.5518 42.6713 37.2979C43.0527 37.171 43.5611 37.044 43.9425 36.9171C44.9595 36.6632 46.1036 36.2824 47.1205 36.0285C47.7561 35.9016 48.3918 35.7746 49.0274 35.6477C50.0443 35.3938 50.9342 35.1399 51.9512 34.886C52.7139 34.7591 53.3495 34.6321 54.1122 34.5052C55.0021 34.2513 55.8919 34.1244 56.7818 33.8705C57.1631 33.7436 57.5445 33.7436 57.9258 33.6166C59.1971 33.3627 60.3411 33.1088 61.6123 32.855C61.8666 32.855 62.248 32.855 62.5022 32.728C63.7734 32.4741 65.0446 32.2203 66.3158 32.0933C66.6972 32.0933 67.0786 31.9664 67.3328 31.9664C68.8583 31.8394 70.5108 31.7125 72.0363 31.4586C73.9431 31.2047 75.9771 31.0778 77.8839 30.9508C81.3162 30.9508 84.7484 30.8239 88.1807 30.8239C89.579 30.8239 91.1045 30.9508 92.5028 31.0778C93.774 31.2047 95.0452 31.3316 96.3165 31.5855C97.2063 31.7125 98.2232 31.8394 99.1131 32.0933C100.639 32.4741 102.164 32.855 103.562 33.2358C104.706 33.4897 105.851 33.7435 106.867 34.1244C107.884 34.3783 108.774 34.7591 109.791 35.1399C110.554 35.3938 111.317 35.7746 112.079 36.0285C112.588 36.1555 112.969 36.4093 113.478 36.6632C114.749 37.2979 116.02 37.9327 117.164 38.5674C118.181 39.0751 119.071 39.7099 120.088 40.3446C121.105 40.9793 121.995 41.614 122.885 42.3756C123.52 42.8834 124.029 43.3912 124.664 43.8989C125.3 44.5337 126.063 45.0414 126.698 45.5492C127.334 46.057 127.842 46.6917 128.478 47.3264C129.368 48.3419 130.258 49.3575 131.021 50.373C132.037 51.7694 133.182 53.1658 134.071 54.5621C134.834 55.8315 135.597 57.2279 136.232 58.4973C136.741 59.5129 137.377 60.6553 137.758 61.6709C138.266 62.8134 138.648 64.0828 139.156 65.3522C139.538 66.4947 139.919 67.5102 140.3 68.6527C140.555 69.4144 140.682 70.1761 140.936 70.9377C141.19 71.8263 141.444 72.7149 141.572 73.6035C141.699 74.1112 141.826 74.746 141.826 75.2537C141.953 76.3962 142.207 77.6656 142.334 78.8081C142.589 80.5853 142.716 82.4894 142.843 84.3936C143.351 88.2019 143.224 91.8832 143.224 95.6915C143.224 96.9609 143.097 98.2303 142.97 99.6267C142.843 100.896 142.843 102.166 142.716 103.435C142.589 104.577 142.461 105.72 142.334 106.862C142.207 108.005 142.08 109.147 141.953 110.29C141.826 111.559 141.572 112.702 141.317 113.971C141.19 114.606 141.19 115.368 141.063 116.002C140.809 117.145 140.682 118.16 140.427 119.303C140.3 119.937 140.173 120.572 140.046 121.207C139.792 122.603 139.411 124 139.156 125.269C138.902 126.158 138.775 127.173 138.521 128.062C138.266 128.823 138.139 129.712 137.885 130.474C137.631 131.362 137.504 132.124 137.249 133.013C136.868 134.282 136.487 135.678 136.105 136.948C135.978 137.329 135.851 137.836 135.724 138.344C136.614 138.852 136.487 139.233 136.36 139.614Z" fill="#F1F3F6"/>
<path d="M22.6645 43.516C24.7367 50.9424 26.9384 58.3688 29.0106 65.7952C28.7516 65.7952 28.4926 65.9278 28.2335 65.9278C26.8089 66.193 25.2547 66.3256 23.8301 66.5908C22.6645 66.7235 21.4989 66.9887 20.3333 67.1213C18.9087 67.3865 17.6136 67.6518 16.1889 67.917C15.8004 68.0496 15.4119 68.0496 14.8938 68.0496C13.2102 68.3148 11.6561 68.5801 9.97241 68.8453C9.45436 68.9779 8.80678 68.8453 8.28873 68.7127C7.64117 68.58 6.99365 68.4475 6.21658 68.3148C5.05097 67.917 3.88537 67.2539 2.97879 66.4582C1.9427 65.5299 1.1656 64.3364 0.647558 63.0103C0.129512 61.8167 0 60.7558 0 59.4297C0 57.4405 0.64755 55.7165 1.81315 54.1251C2.46071 53.3294 3.10829 52.5337 4.14439 52.0033C5.30999 51.4728 6.47557 50.6771 7.64117 50.1467C8.93629 49.4836 10.2314 48.9531 11.5265 48.2901C12.8216 47.627 14.1168 47.0965 15.4119 46.5661C16.707 46.0356 17.8726 45.5052 19.1677 44.8421C20.3333 44.4443 21.4989 44.0464 22.6645 43.516Z" fill="#F1F3F6"/>
<path d="M113.306 137.8C113.818 137.931 114.457 137.931 114.969 138.061C116.249 138.322 117.656 138.452 118.935 138.713C120.726 138.974 122.39 139.234 124.181 139.625C125.588 139.886 126.995 140.147 128.275 140.408C129.554 140.669 130.962 140.799 132.241 141.06C133.392 141.19 134.416 141.451 135.567 141.581C135.823 141.581 136.079 141.842 135.951 142.233C135.567 143.407 135.184 144.58 134.8 145.753C134.544 146.536 134.16 147.318 133.904 148.1C133.776 148.491 133.648 148.752 133.52 149.143C133.136 150.317 132.753 151.49 132.241 152.664C131.857 153.707 131.473 154.75 131.089 155.793C130.706 156.706 130.45 157.618 130.066 158.531C129.554 160.095 128.787 161.53 127.507 162.573C126.356 163.616 125.076 164.268 123.669 164.659C122.518 165.05 121.366 165.05 120.215 164.92C119.191 164.789 118.168 164.528 117.272 164.007C115.865 163.225 114.585 162.312 113.818 160.878C113.178 159.835 112.666 158.792 112.538 157.488C112.155 155.532 112.794 153.576 112.666 151.621C112.666 151.49 112.666 151.49 112.666 151.36C112.794 149.534 112.794 147.709 112.922 145.884C113.05 143.667 113.178 141.451 113.306 139.104C113.05 138.713 113.178 138.322 113.306 137.8Z" fill="#F1F3F6"/>
</svg>
