<svg width="454" height="219" viewBox="0 0 454 219" fill="none" xmlns="http://www.w3.org/2000/svg">
<path d="M78.4111 70.9796C86.1921 75.3309 92.5583 79.9728 93.9165 88.959C102.299 88.7393 111.6 88.6542 119.735 88.7605C125.741 88.8385 131.803 88.8881 137.773 89.5472C139.039 89.6818 142.831 89.5472 143.785 90.4826C144.599 91.2905 144.755 92.7292 144.592 94.3733H144.776C161.823 94.3733 191.688 95.9466 195.522 95.897C199.356 95.8474 206.84 83.4525 214.012 79.3846C221.185 75.3168 231.449 74.9695 238.36 77.1664C240.88 77.9899 243.264 79.1841 245.433 80.7099L245.582 80.5894C258.074 73.9773 273.947 75.2601 291.002 88.0944C297.997 88.1652 312.399 88.3282 316.466 88.2857C326.596 88.1794 374.718 85.7203 388.122 85.0258L388.172 84.4588C390.103 75.4231 394.206 68.7047 403.514 65.4306C406.846 64.2542 412.335 63.3825 414.981 66.7771C416.622 68.9031 416.551 74.3742 417.152 76.1034C417.237 75.7703 417.343 75.4443 417.442 75.1183C416.028 67.7338 414.613 62.7518 413.432 61.7596C413.382 61.4306 413.3 61.1076 413.184 60.7958C388.943 -2.44737 314.38 -47.8458 246.636 -51.7223C174.216 -55.861 101.407 -13.4533 77.1166 56.4586C75.7726 60.321 74.4994 64.2542 73.2969 68.2512C74.9804 69.0874 76.6781 70.0158 78.4111 70.9796Z" fill="#F4F6F9"/>
<path d="M412.423 169.531C403.885 167.001 396.953 159.949 396.953 151.714L395.737 149.879C395.042 150.378 394.27 150.759 393.452 151.005C390.318 151.976 374.721 152.38 370.173 152.097C362.639 151.622 355.014 152.458 347.403 152.04C347.664 151.431 347.898 150.807 348.11 150.183H347.707C342.89 150.637 333.793 151.048 328.962 151.346L327.186 151.431C327.098 152.063 326.972 152.69 326.811 153.309C325.524 158.248 318.217 167.816 312.332 164.981L312.367 164.655C311.744 166.262 310.911 167.78 309.891 169.169C308.349 171.246 303.207 176.001 297.937 174.605C295.659 179.062 285.756 186.411 277.034 183.109C272.79 186.886 265.186 198.991 252.8 188.849C252.8 188.849 244.885 190.827 242.848 190.699C238.42 190.408 232.782 189.523 230.653 185.029C219.533 188.573 206.121 190.394 201.651 177.723V177.687C196.041 179.693 189.668 179.629 184.483 176.979C182.658 176.036 178.223 173.478 178.032 171.026C170.958 171.621 147.403 170.941 138.59 170.87C138.972 172.401 139.297 173.889 139.028 174.243C137.415 176.674 125.39 174.895 122.511 174.732C112.75 174.187 102.974 174.272 93.1911 174.3L92.9294 174.69C93.0072 180.657 89.5907 187.085 85.1484 192.145C100.003 218.026 118.182 238.415 137.974 252.015C164.012 269.866 197.591 285.578 246.773 285.578C295.956 285.578 350.317 263.488 378.039 236.608C403.878 211.52 414.885 187.914 419.525 171.019C417.118 170.738 414.741 170.24 412.423 169.531Z" fill="#F4F6F9"/>
<path d="M144.781 94.3868C161.829 94.3868 191.693 95.96 195.527 95.9104C199.361 95.8608 206.845 83.4659 214.018 79.398C221.19 75.3302 231.454 74.9829 238.365 77.1798C248.007 80.2343 253.764 88.4692 260.23 95.6057C265.931 101.899 271.201 108.716 276.251 115.491C279.958 120.452 284.188 128.149 281.726 134.13C279.06 140.629 268.647 140.629 261.135 135.661C253.565 130.591 246.645 124.61 240.53 117.851C238.068 122.777 228.278 128.227 223.362 129.899C218.446 131.572 209.42 131.699 204.263 129.899" stroke="#F4F6F9" stroke-width="4.9608" stroke-linecap="round" stroke-linejoin="round"/>
<path d="M171.093 135.661C171.207 137.351 170.945 139.045 170.328 140.622" stroke="#F4F6F9" stroke-width="4.9608" stroke-linecap="round" stroke-linejoin="round"/>
<path d="M138.672 170.82C146.191 170.82 170.546 171.614 178.001 170.983" stroke="#F4F6F9" stroke-width="4.9608" stroke-linecap="round" stroke-linejoin="round"/>
<path d="M222.21 130.254C216.982 136.526 211.005 141.862 204.865 147.418C197.848 153.761 190.626 158.353 183.298 164.498C181.466 166.035 177.823 168.665 178.007 170.961C178.198 173.413 182.633 175.971 184.458 176.914C190.93 180.245 199.263 179.536 205.629 175.78C211.422 172.357 234.1 152.875 234.1 152.875" stroke="#F4F6F9" stroke-width="4.9608" stroke-linecap="round" stroke-linejoin="round"/>
<path d="M201.641 177.735C206.118 190.406 219.53 188.585 230.642 185.041C232.765 189.556 238.423 190.442 242.837 190.711C245.886 190.909 255.435 188.443 258.088 186.884" stroke="#F4F6F9" stroke-width="4.9608" stroke-linecap="round" stroke-linejoin="round"/>
<path d="M258.474 187.659C261.622 180.685 260.667 173.485 262.584 166.171C263.532 162.571 264.706 159.467 269.155 160.502C271.942 161.168 274.644 163.833 275.521 166.703C276.646 170.246 276.377 182.343 276.377 182.343C277.856 174.647 275.719 162.266 278.57 153.996C279.744 150.573 280.876 146.852 284.76 146.817C288.968 146.817 292.385 151.133 293.877 154.577C295.823 159.056 296.212 167.489 296.212 167.489C296.212 167.489 293.559 152.72 295.639 144.216C296.346 141.254 297.726 137.384 300.59 136.421C305.139 134.869 310.274 138.681 311.979 142.529C315.431 150.325 315.12 162.146 309.857 169.183C308.315 171.26 303.172 176.015 297.902 174.619C295.625 179.076 285.722 186.425 277 183.123C272.756 186.9 265.152 199.005 252.766 188.863" stroke="#F4F6F9" stroke-width="4.9608" stroke-linecap="round" stroke-linejoin="round"/>
<path d="M230.648 185.006C235.642 182.994 253.199 167.87 256.184 165.39" stroke="#F4F6F9" stroke-width="4.9608" stroke-linecap="round" stroke-linejoin="round"/>
<path d="M245.562 80.5734C258.055 73.9613 273.928 75.2441 290.982 88.0784C297.978 88.1492 312.38 88.3123 316.447 88.2697C328.246 88.1493 391.583 84.8255 391.583 84.8255" stroke="#F4F6F9" stroke-width="4.9608" stroke-linecap="round" stroke-linejoin="round"/>
<path d="M328.977 151.345C333.808 151.048 342.905 150.637 347.722 150.183" stroke="#F4F6F9" stroke-width="4.9608" stroke-linecap="round" stroke-linejoin="round"/>
<path d="M353.501 87.0665C354.159 92.2966 355.086 97.2361 355.355 102.558C355.737 109.929 355.065 117.327 354.209 124.598C353.105 133.981 350.99 143.641 347.383 152.039C354.994 152.457 362.619 151.621 370.153 152.096C374.701 152.379 390.298 151.975 393.432 151.004C398.638 149.381 398.829 144.562 399.551 139.807C401.022 129.341 401.164 118.73 399.975 108.228C399.013 100.468 397.315 93.962 391.784 85.2097" stroke="#F4F6F9" stroke-width="4.9608" stroke-linecap="round" stroke-linejoin="round"/>
<path d="M382.625 143.493L386.247 143.302" stroke="#F4F6F9" stroke-width="4.9608" stroke-linecap="round" stroke-linejoin="round"/>
<path d="M396.953 151.712C396.953 159.947 403.885 166.999 412.423 169.529C417.177 170.946 423.217 172.037 427.829 170.181C433.064 168.054 434.988 162.952 437.4 158.353C439.522 163.448 441.786 167.665 447.763 169.224C452.714 170.521 459.71 169.465 458.317 162.031" stroke="#F4F6F9" stroke-width="4.9608" stroke-linecap="round" stroke-linejoin="round"/>
<path d="M388.156 84.4441C390.087 75.4083 394.19 68.69 403.499 65.4159C406.831 64.2395 412.327 63.3678 414.965 66.7624C416.606 68.8884 416.536 74.3595 417.137 76.0887C419.606 66.8758 426.502 58.2581 435.606 54.4808C442.404 51.6461 447.674 54.0911 449.951 60.7527" stroke="#F4F6F9" stroke-width="4.9608" stroke-linecap="round" stroke-linejoin="round"/>
<path d="M93.9626 89.0376C103.031 88.7612 110.699 88.6407 119.767 88.7612C125.773 88.8392 131.835 88.8888 137.805 89.5478C139.071 89.6825 142.863 89.5478 143.817 90.4833C146.194 92.8361 143.025 100.44 142.403 103.403C140.111 114.323 138.045 125.684 136.864 136.768C135.686 146.85 135.924 157.048 137.571 167.064C137.67 167.666 139.538 173.442 139.029 174.2C137.416 176.631 125.391 174.852 122.512 174.689C111.392 174.066 100.251 174.264 89.1172 174.264" stroke="#F4F6F9" stroke-width="4.9608" stroke-linecap="round" stroke-linejoin="round"/>
<path d="M2.5 63.4877C13.4358 60.653 24.3433 61.1278 35.6894 61.1349C43.7173 61.1112 51.728 61.8803 59.6053 63.431C66.6789 64.8484 72.168 67.4705 78.4211 70.9785C86.3011 75.3936 92.7805 80.0993 93.9831 89.3406C87.1712 95.5274 85.8767 119.049 85.8767 136.057C85.8767 153.066 86.0252 163.49 87.9351 173.497" stroke="#F4F6F9" stroke-width="4.9608" stroke-linecap="round" stroke-linejoin="round"/>
<path d="M92.9008 174.646C93.0069 183.115 86.0889 192.526 79.2416 197.614C65.5471 207.791 51.216 204.24 36.899 198.394C34.5081 202.263 29.9739 204.878 25.5812 206.537C18.5076 209.23 9.75045 209.712 2.5 209.421" stroke="#F4F6F9" stroke-width="4.9608" stroke-linecap="round" stroke-linejoin="round"/>
<path d="M179.345 34.0985L171.578 27.0613" stroke="#F4F6F9" stroke-width="4.9608" stroke-linecap="round" stroke-linejoin="round"/>
<path d="M244.781 9.0335L246.071 2.10962" stroke="#F4F6F9" stroke-width="4.9608" stroke-linecap="round" stroke-linejoin="round"/>
<path d="M267.062 7.50196L271.151 -1.43457" stroke="#F4F6F9" stroke-width="4.9608" stroke-linecap="round" stroke-linejoin="round"/>
<path d="M312.227 40.0874L320.241 36.2676" stroke="#F4F6F9" stroke-width="4.9608" stroke-linecap="round" stroke-linejoin="round"/>
<path d="M314.653 144.667C322.972 140.628 329.119 144.667 326.813 153.306C325.497 158.246 318.19 167.813 312.305 164.978" stroke="#F4F6F9" stroke-width="4.9608" stroke-linecap="round" stroke-linejoin="round"/>
</svg>
