<svg width="58" height="59" viewBox="0 0 58 59" fill="none" xmlns="http://www.w3.org/2000/svg">
<path d="M57.7715 6.34407C57.7715 8.13792 57.1545 9.62549 55.9204 10.8506C54.6863 12.0756 53.1878 12.6881 51.4248 12.6881C49.6618 12.6881 48.1633 12.0756 46.9292 10.8506C45.6952 9.62549 45.0781 8.09416 45.0781 6.34407C45.0781 4.59398 45.6952 3.06265 46.9292 1.83759C48.1633 0.61253 49.6618 0 51.4248 0C53.1878 0 54.6863 0.61253 55.9204 1.83759C57.1545 3.06265 57.7715 4.59398 57.7715 6.34407Z" fill="#E8395C"/>
<path d="M3.16194 55.8006C2.31647 54.9122 2.36097 53.5351 3.25095 52.6911L26.1233 31.0579C27.0133 30.2139 28.3927 30.2583 29.2382 31.1467C30.0837 32.0351 30.0392 33.4122 29.1492 34.2562L6.27686 55.8894C5.38688 56.689 4.00742 56.6446 3.16194 55.8006Z" fill="#E8395C"/>
<path d="M17.8076 58.3635C16.9361 57.5074 16.9361 56.1107 17.764 55.2096L30.5751 41.9181C31.403 41.017 32.7538 41.017 33.6253 41.8731C34.4968 42.7291 34.4968 44.1259 33.6689 45.027L20.8579 58.3184C20.0299 59.2195 18.6791 59.2195 17.8076 58.3635Z" fill="#E8395C"/>
<path d="M3.79499 43.115C2.95616 42.2218 3.0003 40.8373 3.83912 39.9887L17.2604 27.2598C18.1433 26.4112 19.5119 26.4559 20.3508 27.3045C21.1896 28.1977 21.1454 29.5823 20.3066 30.4309L6.8854 43.1597C6.04657 44.0083 4.63381 43.9636 3.79499 43.115Z" fill="#E8395C"/>
<path d="M47.7442 48.8494C47.4327 48.8049 47.1657 48.7605 46.8987 48.7161C46.4983 48.6273 46.0978 48.5829 45.7418 48.494C45.6528 48.494 45.5193 48.494 45.4303 48.4496C45.0299 48.4052 44.6294 48.3164 44.2289 48.272C43.695 48.1831 43.1165 48.0943 42.5825 48.0055C42.1376 47.9166 41.7371 47.8278 41.2921 47.7834C40.8917 47.6945 40.4467 47.6501 40.0462 47.6057C39.9127 47.6057 39.8237 47.5613 39.8237 47.3836C39.8237 47.0283 39.8237 46.673 39.8237 46.2732C39.8237 45.6514 39.7792 44.9852 39.7348 44.3634C39.6903 43.8304 39.6903 43.3418 39.6458 42.8088C39.6013 42.4091 39.6013 41.9649 39.5568 41.5651C39.5123 41.121 39.4678 40.6768 39.3788 40.2327C39.3343 39.8773 39.2898 39.4776 39.2008 39.1223C39.1118 38.6337 39.0228 38.1451 38.9338 37.6566C38.8448 37.168 38.7113 36.6794 38.5778 36.1908C38.4443 35.7467 38.3554 35.2581 38.2219 34.8139C38.0884 34.4586 37.9549 34.1033 37.8214 33.7035C37.7324 33.437 37.6434 33.1261 37.5099 32.8596C37.3764 32.5487 37.2429 32.2378 37.1094 31.9269C36.9315 31.5716 36.798 31.2162 36.62 30.8165C36.531 30.6388 36.442 30.4612 36.3085 30.2835C36.1305 29.9726 35.9525 29.6617 35.73 29.3508C35.5965 29.1287 35.4186 28.9066 35.2406 28.6845C34.8846 28.2848 34.5731 27.8406 34.2171 27.4853C34.0392 27.2632 33.7722 27.13 33.5942 26.9523C33.3272 26.7302 33.1047 26.4637 32.8377 26.2861C32.3928 25.9307 31.9033 25.5754 31.4138 25.3089C31.0134 25.0868 30.6129 24.8648 30.1679 24.6427C29.7675 24.465 29.367 24.3318 28.9665 24.1541C28.6105 24.0209 28.2991 23.8876 27.9431 23.7544C27.6761 23.6655 27.4091 23.6211 27.1421 23.5323C26.8307 23.4435 26.5192 23.3546 26.1632 23.2658C25.7182 23.177 25.3178 23.0437 24.8728 22.9549C24.6058 22.9105 24.2943 22.866 24.0274 22.8216C23.6714 22.7772 23.2709 22.6884 22.9149 22.644C22.2475 22.5551 21.6245 22.5107 20.9571 22.4663C20.2451 22.4219 19.5777 22.3775 18.8657 22.3775C17.8423 22.3331 16.8189 22.3331 15.7954 22.3331C15.039 22.3331 14.2381 22.3775 13.4816 22.4219C12.9922 22.4663 12.5027 22.4663 11.9687 22.5107C11.7017 22.5551 11.4348 22.5995 11.1678 22.5995C11.1233 22.5995 11.0343 22.5551 11.0343 22.5107C10.8563 21.9777 10.7228 21.4447 10.5893 20.9117C10.4113 20.3343 10.2333 19.7569 10.0999 19.1795C9.96637 18.7354 9.83288 18.2912 9.74389 17.8915C9.6104 17.4473 9.4769 17.0031 9.34341 16.559C9.20992 16.1592 9.12093 15.8039 8.98744 15.4042C8.94294 15.3153 8.94293 15.2265 8.89844 15.1377C9.03193 15.0933 9.20992 15.0488 9.34341 14.96C9.61039 14.8712 9.87738 14.7379 10.1444 14.6491C10.4113 14.5603 10.7228 14.4714 10.9898 14.3382C11.3903 14.2049 11.7907 14.0717 12.1912 13.894C12.4137 13.8052 12.5917 13.7608 12.8142 13.7164C13.2146 13.5831 13.6151 13.4499 14.0156 13.361C14.3271 13.2722 14.6385 13.139 14.95 13.0501C15.0835 13.0057 15.2615 12.9613 15.395 12.9169C15.751 12.828 16.1514 12.6948 16.5074 12.606C16.7299 12.5615 16.9524 12.5171 17.1749 12.4727C17.5308 12.3839 17.8423 12.2951 18.1983 12.2062C18.4653 12.1618 18.6877 12.1174 18.9547 12.073C19.2662 11.9841 19.5777 11.9397 19.8892 11.8509C20.0227 11.8065 20.1561 11.8065 20.2896 11.7621C20.7346 11.6732 21.1351 11.5844 21.58 11.4956C21.669 11.4956 21.8025 11.4956 21.8915 11.4512C22.3365 11.3623 22.7815 11.2735 23.2264 11.2291C23.3599 11.2291 23.4934 11.1847 23.5824 11.1847C24.1164 11.1402 24.6948 11.0958 25.2288 11.007C25.8962 10.9182 26.6082 10.8737 27.2756 10.8293C28.4771 10.8293 29.6785 10.7849 30.8799 10.7849C31.3694 10.7849 31.9033 10.8293 32.3928 10.8737C32.8377 10.9182 33.2827 10.9626 33.7277 11.0514C34.0392 11.0958 34.3951 11.1402 34.7066 11.2291C35.2406 11.3623 35.7745 11.4956 36.264 11.6288C36.6645 11.7176 37.0649 11.8065 37.4209 11.9397C37.7769 12.0286 38.0884 12.1618 38.4443 12.2951C38.7113 12.3839 38.9783 12.5171 39.2453 12.606C39.4233 12.6504 39.5568 12.7392 39.7348 12.828C40.1797 13.0501 40.6247 13.2722 41.0252 13.4943C41.3811 13.6719 41.6926 13.894 42.0486 14.1161C42.4046 14.3382 42.716 14.5603 43.0275 14.8268C43.25 15.0044 43.428 15.1821 43.6505 15.3597C43.873 15.5818 44.1399 15.7595 44.3624 15.9372C44.5849 16.1148 44.7629 16.3369 44.9854 16.559C45.2969 16.9143 45.6083 17.2696 45.8753 17.625C46.2313 18.1135 46.6318 18.6021 46.9432 19.0907C47.2102 19.5348 47.4772 20.0234 47.6997 20.4676C47.8777 20.8229 48.1002 21.2227 48.2337 21.578C48.4116 21.9777 48.5451 22.4219 48.7231 22.866C48.8566 23.2658 48.9901 23.6211 49.1236 24.0209C49.2126 24.2874 49.2571 24.5539 49.3461 24.8203C49.4351 25.1313 49.5241 25.4422 49.5686 25.7531C49.6131 25.9307 49.6575 26.1528 49.6575 26.3305C49.702 26.7302 49.791 27.1744 49.8355 27.5741C49.9245 28.196 49.969 28.8622 50.0135 29.5284C50.1915 30.8609 50.147 32.149 50.147 33.4815C50.147 33.9256 50.1025 34.3698 50.058 34.8583C50.0135 35.3025 50.0135 35.7467 49.969 36.1908C49.9245 36.5906 49.88 36.9903 49.8355 37.3901C49.791 37.7898 49.7465 38.1895 49.702 38.5893C49.6575 39.0334 49.5686 39.4332 49.4796 39.8773C49.4351 40.0994 49.4351 40.3659 49.3906 40.588C49.3016 40.9877 49.2571 41.3431 49.1681 41.7428C49.1236 41.9649 49.0791 42.187 49.0346 42.409C48.9456 42.8976 48.8121 43.3862 48.7231 43.8304C48.6341 44.1413 48.5896 44.4966 48.5006 44.8075C48.4116 45.074 48.3671 45.3849 48.2781 45.6514C48.1891 45.9623 48.1446 46.2288 48.0557 46.5397C47.9222 46.9839 47.7887 47.4725 47.6552 47.9166C47.6107 48.0499 47.5662 48.2275 47.5217 48.4052C47.8332 48.5829 47.7887 48.7161 47.7442 48.8494Z" fill="#E8395C"/>
<path d="M7.949 15.2257C8.67433 17.8241 9.445 20.4226 10.1703 23.021C10.0797 23.021 9.98901 23.0674 9.89835 23.0674C9.39968 23.1602 8.85566 23.2066 8.35699 23.2994C7.94899 23.3458 7.541 23.4386 7.133 23.485C6.63433 23.5778 6.18099 23.6706 5.68232 23.7634C5.54632 23.8098 5.41032 23.8098 5.22898 23.8098C4.63965 23.9026 4.09565 23.9954 3.50631 24.0882C3.32498 24.1346 3.0983 24.0882 2.91697 24.0418C2.6903 23.9954 2.46364 23.949 2.19164 23.9026C1.78364 23.7634 1.37564 23.5314 1.0583 23.253C0.695637 22.9282 0.423627 22.5106 0.242293 22.0466C0.0609585 21.629 0.015625 21.2578 0.015625 20.7938C0.015625 20.0978 0.24229 19.4945 0.650292 18.9377C0.87696 18.6593 1.10364 18.3809 1.4663 18.1953C1.87431 18.0097 2.2823 17.7313 2.6903 17.5457C3.14364 17.3137 3.59697 17.1281 4.05031 16.8961C4.50364 16.6641 4.95698 16.4785 5.41031 16.2929C5.86365 16.1073 6.27166 15.9217 6.725 15.6897C7.133 15.5505 7.54099 15.4113 7.949 15.2257Z" fill="#E8395C"/>
<path d="M39.6794 48.2148C39.8585 48.2605 40.0824 48.2605 40.2616 48.3061C40.7094 48.3973 41.202 48.4429 41.6498 48.5342C42.2768 48.6254 42.859 48.7167 43.4859 48.8535C43.9786 48.9448 44.4712 49.036 44.919 49.1272C45.3668 49.2185 45.8594 49.2641 46.3073 49.3553C46.7103 49.4009 47.0686 49.4922 47.4716 49.5378C47.5612 49.5378 47.6508 49.629 47.606 49.7659C47.4716 50.1765 47.3373 50.5871 47.2029 50.9976C47.1134 51.2713 46.979 51.5451 46.8894 51.8188C46.8447 51.9556 46.7999 52.0469 46.7551 52.1837C46.6208 52.5943 46.4864 53.0049 46.3073 53.4154C46.1729 53.7804 46.0386 54.1454 45.9042 54.5103C45.7699 54.8297 45.6803 55.149 45.546 55.4683C45.3668 56.0157 45.0981 56.5176 44.6503 56.8825C44.2472 57.2475 43.7994 57.4756 43.3068 57.6124C42.9038 57.7493 42.5007 57.7493 42.0977 57.7037C41.7394 57.6581 41.3811 57.5668 41.0677 57.3843C40.575 57.1106 40.1272 56.7913 39.8585 56.2895C39.6346 55.9245 39.4555 55.5596 39.4107 55.1034C39.2763 54.4191 39.5003 53.7348 39.4555 53.0505C39.4555 53.0049 39.4555 53.0049 39.4555 52.9593C39.5003 52.3206 39.5002 51.6819 39.545 51.0432C39.5898 50.2677 39.6346 49.4922 39.6794 48.671C39.5898 48.5342 39.6346 48.3973 39.6794 48.2148Z" fill="#E8395C"/>
</svg>
