<svg width="133" height="41" viewBox="0 0 133 41" fill="none" xmlns="http://www.w3.org/2000/svg">
<path d="M54.9517 15.5645V26.8225H52.6484V22.0322H47.7291V26.8225H45.4258V15.5645H47.7291V20.1935H52.6484V15.5645H54.9517Z" fill="#E8395C"/>
<path d="M57.8481 16.4517C57.5848 16.1936 57.4531 15.8871 57.4531 15.5162C57.4531 15.1452 57.5848 14.8227 57.8481 14.5807C58.1111 14.3227 58.4567 14.1936 58.8681 14.1936C59.2792 14.1936 59.6083 14.3227 59.8881 14.5807C60.1514 14.8388 60.2827 15.1452 60.2827 15.5162C60.2827 15.8871 60.1514 16.2097 59.8881 16.4517C59.6248 16.7097 59.2792 16.8388 58.8681 16.8388C58.4567 16.8227 58.1275 16.6936 57.8481 16.4517ZM60.0033 17.8871V26.8227H57.7V17.8871H60.0033Z" fill="#E8395C"/>
<path d="M66.205 18.1613C66.6822 17.8871 67.225 17.7581 67.8503 17.7581V20.129H67.2414C66.5177 20.129 65.9746 20.2903 65.5964 20.629C65.2343 20.9677 65.0533 21.5484 65.0533 22.3709V26.8226H62.75V17.8871H65.0533V19.2742C65.3495 18.8064 65.7281 18.4355 66.205 18.1613Z" fill="#E8395C"/>
<path d="M78.2797 23.0323H71.6166C71.666 23.6774 71.8961 24.1774 72.3075 24.5484C72.7189 24.9193 73.2123 25.0967 73.8048 25.0967C74.6602 25.0967 75.2688 24.7419 75.6308 24.0161H78.1152C77.8519 24.8709 77.342 25.5806 76.6015 26.1451C75.8612 26.6935 74.94 26.9677 73.8541 26.9677C72.9819 26.9677 72.1923 26.7742 71.5014 26.4032C70.8103 26.0161 70.2675 25.4839 69.8725 24.7903C69.4776 24.0968 69.2969 23.2903 69.2969 22.3709C69.2969 21.4516 69.494 20.629 69.8725 19.9355C70.2511 19.2419 70.7938 18.6935 71.485 18.3226C72.1759 17.9516 72.9655 17.7581 73.8706 17.7581C74.7425 17.7581 75.5156 17.9355 76.2068 18.3065C76.8977 18.6774 77.4243 19.1935 77.8025 19.8709C78.181 20.5484 78.3785 21.3226 78.3785 22.1774C78.3456 22.4839 78.3291 22.7742 78.2797 23.0323ZM75.96 21.5161C75.9435 20.9355 75.7296 20.4677 75.3181 20.129C74.9071 19.7742 74.3969 19.5968 73.7883 19.5968C73.2123 19.5968 72.7354 19.7581 72.3404 20.0967C71.9455 20.4355 71.7154 20.9032 71.6166 21.5161H75.96Z" fill="#E8395C"/>
<path d="M93.1358 17.8872L90.4704 26.8227H87.9861L86.3246 20.5808L84.6628 26.8227H82.162L79.4805 17.8872H81.8167L83.4288 24.6937L85.1729 17.8872H87.6079L89.3188 24.6775L90.9312 17.8872H93.1358Z" fill="#E8395C"/>
<path d="M94.8139 19.9194C95.176 19.2258 95.6862 18.6774 96.3112 18.3065C96.9366 17.9355 97.6439 17.7419 98.417 17.7419C99.0918 17.7419 99.7004 17.871 100.211 18.1452C100.72 18.4194 101.132 18.7581 101.444 19.1613V17.8871H103.764V26.8226H101.444V25.5161C101.148 25.9355 100.737 26.2903 100.211 26.5645C99.6839 26.8387 99.0918 26.9677 98.4006 26.9677C97.6274 26.9677 96.9362 26.7742 96.2947 26.3871C95.6697 26 95.1595 25.4516 94.7975 24.7419C94.4358 24.0323 94.2383 23.2258 94.2383 22.3226C94.2712 21.4194 94.4522 20.629 94.8139 19.9194ZM101.115 20.9516C100.901 20.5645 100.605 20.2581 100.227 20.0484C99.8485 19.8387 99.4535 19.7258 99.0259 19.7258C98.5981 19.7258 98.2031 19.8226 97.8414 20.0323C97.4793 20.2419 97.1831 20.5323 96.9692 20.9355C96.7391 21.3226 96.6239 21.7903 96.6239 22.3226C96.6239 22.8548 96.7391 23.3387 96.9692 23.7419C97.1996 24.1452 97.4958 24.4516 97.8578 24.6774C98.2196 24.8871 98.6145 25 99.0424 25C99.47 25 99.8649 24.9032 100.243 24.6774C100.622 24.4677 100.918 24.1613 101.132 23.7742C101.346 23.3871 101.461 22.9194 101.461 22.3548C101.461 21.7903 101.329 21.3387 101.115 20.9516Z" fill="#E8395C"/>
<path d="M108.799 14.8872V26.8227H106.496V14.8872H108.799Z" fill="#E8395C"/>
<path d="M116.943 26.8227L113.85 23.0163V26.8227H111.547V14.8872H113.85V21.6775L116.91 17.8872H119.904L115.89 22.3711L119.937 26.8227H116.943Z" fill="#E8395C"/>
<path d="M123.115 26.5806C122.523 26.3226 122.046 25.9516 121.7 25.5C121.355 25.0484 121.157 24.5484 121.141 24H123.46C123.51 24.3387 123.674 24.629 123.987 24.8548C124.283 25.0807 124.661 25.1936 125.106 25.1936C125.55 25.1936 125.895 25.1129 126.142 24.9355C126.389 24.7581 126.521 24.5484 126.521 24.2742C126.521 23.9839 126.373 23.7581 126.06 23.6129C125.764 23.4677 125.27 23.3065 124.612 23.1452C123.938 22.9839 123.378 22.8226 122.934 22.6452C122.506 22.4677 122.128 22.2097 121.815 21.8548C121.503 21.5 121.355 21.0161 121.355 20.4194C121.355 19.9194 121.503 19.4677 121.782 19.0645C122.079 18.6613 122.49 18.3387 123.033 18.0968C123.576 17.8548 124.217 17.7419 124.941 17.7419C126.027 17.7419 126.899 18 127.541 18.5323C128.182 19.0645 128.544 19.7903 128.61 20.6936H126.406C126.373 20.3387 126.225 20.0484 125.945 19.8387C125.681 19.629 125.32 19.5161 124.875 19.5161C124.464 19.5161 124.135 19.5968 123.905 19.7419C123.674 19.8871 123.576 20.0968 123.576 20.371C123.576 20.6774 123.724 20.9032 124.036 21.0645C124.349 21.2258 124.826 21.3871 125.468 21.5484C126.126 21.7097 126.669 21.871 127.096 22.0484C127.524 22.2258 127.886 22.4839 128.215 22.8548C128.528 23.2097 128.692 23.6936 128.709 24.2903C128.709 24.8065 128.561 25.2742 128.265 25.6774C127.968 26.0807 127.557 26.4032 127.014 26.6452C126.471 26.871 125.83 26.9839 125.106 26.9839C124.382 26.9677 123.707 26.8387 123.115 26.5806Z" fill="#E8395C"/>
<path d="M27.3415 37.7098H13.1761C7.25326 37.7098 2.44922 33 2.44922 27.1935V13.3064C2.44922 7.49997 7.25326 2.79028 13.1761 2.79028H27.3415C33.2643 2.79028 38.0684 7.49997 38.0684 13.3064V27.1935C38.0684 33 33.2643 37.7098 27.3415 37.7098Z" fill="#E8395C"/>
<path d="M31.2578 10.984C31.2578 11.6453 31.0275 12.1937 30.5668 12.6453C30.1061 13.0969 29.5468 13.3227 28.8887 13.3227C28.2306 13.3227 27.6712 13.0969 27.2105 12.6453C26.7499 12.1937 26.5195 11.6291 26.5195 10.984C26.5195 10.3388 26.7499 9.77428 27.2105 9.32267C27.6712 8.87107 28.2306 8.64526 28.8887 8.64526C29.5468 8.64526 30.1061 8.87107 30.5668 9.32267C31.0275 9.77428 31.2578 10.3388 31.2578 10.984Z" fill="white"/>
<path d="M11.1542 28.9677C10.8416 28.6451 10.858 28.1451 11.1871 27.8386L19.6436 19.9838C19.9726 19.6773 20.4826 19.6935 20.7952 20.016C21.1078 20.3386 21.0914 20.8386 20.7623 21.1451L12.3059 28.9999C11.9768 29.2902 11.4503 29.2741 11.1542 28.9677Z" fill="white"/>
<path d="M16.4012 29.8225C16.0722 29.516 16.0722 29.016 16.3848 28.6934L21.2217 23.9354C21.5343 23.6128 22.0444 23.6128 22.3734 23.9192C22.7024 24.2257 22.7024 24.7257 22.3898 25.0483L17.5529 29.8064C17.2403 30.129 16.7303 30.129 16.4012 29.8225Z" fill="white"/>
<path d="M11.2068 24.3549C10.8943 24.0324 10.9107 23.5324 11.2233 23.2259L16.2248 18.6291C16.5538 18.3227 17.0638 18.3388 17.3765 18.6453C17.689 18.9679 17.6726 19.4679 17.36 19.7743L12.342 24.3711C12.0295 24.6775 11.5195 24.6614 11.2068 24.3549Z" fill="white"/>
<path d="M27.5386 26.4032C27.4234 26.387 27.3247 26.3709 27.226 26.3548C27.0779 26.3225 26.9299 26.3064 26.7983 26.2741C26.7654 26.2741 26.716 26.2741 26.6831 26.258C26.535 26.2419 26.3869 26.2096 26.2389 26.1935C26.0414 26.1612 25.8276 26.129 25.6302 26.0967C25.4656 26.0645 25.3176 26.0322 25.153 26.0161C25.005 25.9838 24.8405 25.9677 24.6924 25.9516C24.643 25.9516 24.6101 25.9354 24.6101 25.8709C24.6101 25.7419 24.6101 25.6128 24.6101 25.4677C24.6101 25.2419 24.5937 24.9999 24.5772 24.7741C24.5608 24.5806 24.5608 24.4032 24.5443 24.2096C24.5278 24.0645 24.5278 23.9032 24.5114 23.758C24.495 23.5967 24.4785 23.4354 24.4456 23.2741C24.4291 23.1451 24.4127 22.9999 24.3798 22.8709C24.3469 22.6935 24.314 22.5161 24.2811 22.3386C24.2482 22.1612 24.1988 21.9838 24.1495 21.8064C24.1001 21.6451 24.0672 21.4677 24.0178 21.3064C23.9685 21.1774 23.9191 21.0483 23.8698 20.9032C23.8369 20.8064 23.804 20.6935 23.7546 20.5967C23.7052 20.4838 23.6559 20.3709 23.6065 20.258C23.5407 20.129 23.4913 19.9999 23.4255 19.8548C23.3926 19.7903 23.3598 19.7257 23.3104 19.6612C23.2446 19.5483 23.1788 19.4354 23.0965 19.3225C23.0471 19.2419 22.9813 19.1612 22.9155 19.0806C22.7839 18.9354 22.6688 18.7741 22.5371 18.6451C22.4713 18.5645 22.3726 18.5161 22.3068 18.4516C22.2081 18.3709 22.1258 18.2741 22.0271 18.2096C21.8626 18.0806 21.6816 17.9516 21.5006 17.8548C21.3526 17.7741 21.2045 17.6935 21.04 17.6128C20.8919 17.5483 20.7438 17.4999 20.5958 17.4354C20.4641 17.387 20.349 17.3386 20.2174 17.2903C20.1186 17.258 20.0199 17.2419 19.9212 17.2096C19.8061 17.1774 19.6909 17.1451 19.5593 17.1128C19.3947 17.0806 19.2467 17.0322 19.0822 16.9999C18.9834 16.9838 18.8683 16.9677 18.7696 16.9515C18.638 16.9354 18.4899 16.9032 18.3582 16.887C18.1115 16.8548 17.8811 16.8386 17.6344 16.8225C17.3711 16.8064 17.1243 16.7903 16.8611 16.7903C16.4827 16.7741 16.1043 16.7741 15.7259 16.7741C15.4462 16.7741 15.1501 16.7903 14.8704 16.8064C14.6894 16.8225 14.5084 16.8225 14.311 16.8386C14.2123 16.8548 14.1136 16.8709 14.0149 16.8709C13.9984 16.8709 13.9655 16.8548 13.9655 16.8386C13.8997 16.6451 13.8504 16.4515 13.801 16.258C13.7352 16.0483 13.6694 15.8386 13.62 15.629C13.5707 15.4677 13.5213 15.3064 13.4884 15.1612C13.439 14.9999 13.3897 14.8386 13.3403 14.6774C13.2909 14.5322 13.2581 14.4032 13.2087 14.258C13.1922 14.2257 13.1922 14.1935 13.1758 14.1612C13.2252 14.1451 13.2909 14.129 13.3403 14.0967C13.439 14.0645 13.5377 14.0161 13.6364 13.9838C13.7352 13.9516 13.8504 13.9193 13.9491 13.8709C14.0971 13.8225 14.2452 13.7741 14.3933 13.7096C14.4755 13.6774 14.5413 13.6612 14.6236 13.6451C14.7717 13.5967 14.9197 13.5483 15.0678 13.5161C15.183 13.4838 15.2981 13.4354 15.4133 13.4032C15.4627 13.387 15.5285 13.3709 15.5778 13.3548C15.7094 13.3225 15.8575 13.2741 15.9891 13.2419C16.0714 13.2257 16.1537 13.2096 16.2359 13.1935C16.3675 13.1612 16.4827 13.129 16.6143 13.0967C16.713 13.0806 16.7953 13.0645 16.894 13.0483C17.0092 13.0161 17.1243 12.9999 17.2395 12.9677C17.2889 12.9515 17.3382 12.9515 17.3876 12.9354C17.5521 12.9032 17.7002 12.8709 17.8647 12.8386C17.8976 12.8386 17.947 12.8386 17.9799 12.8225C18.1444 12.7903 18.3089 12.758 18.4734 12.7419C18.5228 12.7419 18.5721 12.7257 18.605 12.7257C18.8025 12.7096 19.0164 12.6935 19.2138 12.6612C19.4606 12.629 19.7238 12.6128 19.9706 12.5967C20.4148 12.5967 20.859 12.5806 21.3032 12.5806C21.4842 12.5806 21.6816 12.5967 21.8626 12.6128C22.0271 12.629 22.1916 12.6451 22.3561 12.6774C22.4713 12.6935 22.6029 12.7096 22.7181 12.7419C22.9155 12.7903 23.113 12.8386 23.2939 12.887C23.442 12.9193 23.5901 12.9515 23.7217 12.9999C23.8533 13.0322 23.9685 13.0806 24.1001 13.129C24.1988 13.1612 24.2975 13.2096 24.3962 13.2419C24.462 13.258 24.5114 13.2903 24.5772 13.3225C24.7417 13.4032 24.9062 13.4838 25.0543 13.5645C25.186 13.629 25.3011 13.7096 25.4327 13.7903C25.5643 13.8709 25.6795 13.9516 25.7947 14.0483C25.8769 14.1128 25.9427 14.1774 26.025 14.2419C26.1073 14.3225 26.206 14.387 26.2882 14.4515C26.3705 14.5161 26.4363 14.5967 26.5186 14.6774C26.6337 14.8064 26.7489 14.9354 26.8476 15.0645C26.9792 15.2419 27.1273 15.4193 27.2425 15.5967C27.3412 15.758 27.4399 15.9354 27.5222 16.0967C27.588 16.2257 27.6702 16.3709 27.7196 16.4999C27.7854 16.6451 27.8348 16.8064 27.9006 16.9677C27.9499 17.1128 27.9993 17.2419 28.0486 17.387C28.0815 17.4838 28.098 17.5806 28.1309 17.6774C28.1638 17.7903 28.1967 17.9032 28.2131 18.0161C28.2296 18.0806 28.2461 18.1612 28.2461 18.2257C28.2625 18.3709 28.2954 18.5322 28.3119 18.6774C28.3448 18.9032 28.3612 19.1451 28.3777 19.387C28.4435 19.8709 28.4271 20.3386 28.4271 20.8225C28.4271 20.9838 28.4106 21.1451 28.3941 21.3225C28.3777 21.4838 28.3777 21.6451 28.3612 21.8064C28.3448 21.9516 28.3283 22.0967 28.3119 22.2419C28.2954 22.387 28.279 22.5322 28.2625 22.6774C28.2461 22.8386 28.2131 22.9838 28.1803 23.1451C28.1638 23.2257 28.1638 23.3225 28.1473 23.4032C28.1144 23.5483 28.098 23.6774 28.0651 23.8225C28.0486 23.9032 28.0322 23.9838 28.0157 24.0645C27.9828 24.2419 27.9335 24.4193 27.9006 24.5806C27.8676 24.6935 27.8512 24.8225 27.8183 24.9354C27.7854 25.0322 27.7689 25.1451 27.7361 25.2419C27.7031 25.3548 27.6867 25.4516 27.6538 25.5645C27.6044 25.7257 27.5551 25.9032 27.5057 26.0645C27.4893 26.1128 27.4728 26.1774 27.4564 26.2419C27.5715 26.3064 27.5551 26.3548 27.5386 26.4032Z" fill="white"/>
<path d="M12.8635 14.2419C13.1267 15.1452 13.4064 16.0484 13.6697 16.9516C13.6368 16.9516 13.6039 16.9677 13.5709 16.9677C13.39 17 13.1926 17.0161 13.0116 17.0484C12.8635 17.0645 12.7154 17.0968 12.5674 17.1129C12.3864 17.1452 12.2219 17.1774 12.0409 17.2097C11.9915 17.2258 11.9422 17.2258 11.8764 17.2258C11.6625 17.2581 11.4651 17.2903 11.2512 17.3226C11.1854 17.3387 11.1031 17.3226 11.0373 17.3065C10.955 17.2903 10.8728 17.2742 10.7741 17.2581C10.626 17.2097 10.4779 17.129 10.3628 17.0323C10.2312 16.9194 10.1324 16.7742 10.0666 16.6129C10.0008 16.4677 9.98438 16.3387 9.98438 16.1774C9.98438 15.9355 10.0666 15.7258 10.2147 15.5323C10.297 15.4355 10.3792 15.3387 10.5108 15.2742C10.6589 15.2097 10.807 15.1129 10.955 15.0484C11.1196 14.9677 11.2841 14.9032 11.4486 14.8226C11.6132 14.7419 11.7777 14.6774 11.9422 14.6129C12.1067 14.5484 12.2548 14.4839 12.4193 14.4032C12.5674 14.3549 12.7154 14.3065 12.8635 14.2419Z" fill="white"/>
<path d="M24.5991 26.2581C24.6649 26.2742 24.7472 26.2742 24.8129 26.2903C24.9775 26.3225 25.1584 26.3387 25.323 26.3709C25.5533 26.4032 25.7672 26.4355 25.9975 26.4839C26.1785 26.5161 26.3594 26.5484 26.524 26.5806C26.6885 26.6129 26.8695 26.629 27.034 26.6613C27.1821 26.6774 27.3137 26.7097 27.4618 26.7258C27.4947 26.7258 27.5276 26.7581 27.5111 26.8064C27.4618 26.9516 27.4124 27.0967 27.3631 27.2419C27.3301 27.3387 27.2808 27.4355 27.2479 27.5323C27.2314 27.5806 27.215 27.6129 27.1985 27.6613C27.1492 27.8065 27.0998 27.9516 27.034 28.0967C26.9846 28.2258 26.9353 28.3548 26.8859 28.4839C26.8366 28.5967 26.8037 28.7097 26.7543 28.8226C26.6885 29.0161 26.5898 29.1935 26.4253 29.3225C26.2772 29.4516 26.1127 29.5323 25.9317 29.5806C25.7836 29.629 25.6356 29.629 25.4875 29.6129C25.3559 29.5967 25.2242 29.5645 25.1091 29.5C24.9281 29.4032 24.7636 29.2903 24.6649 29.1129C24.5826 28.9839 24.5168 28.8548 24.5004 28.6935C24.451 28.4516 24.5332 28.2097 24.5168 27.9677C24.5168 27.9516 24.5168 27.9516 24.5168 27.9355C24.5332 27.7097 24.5332 27.4839 24.5497 27.2581C24.5662 26.9839 24.5826 26.7097 24.5991 26.4193C24.5662 26.3709 24.5826 26.3225 24.5991 26.2581Z" fill="white"/>
</svg>
