<svg width="20" height="20" viewBox="0 0 20 20" fill="none" xmlns="http://www.w3.org/2000/svg">
<g clip-path="url(#clip0_2688_33185)">
<path d="M19.9765 5.88005C19.9297 4.81738 19.7578 4.0868 19.5117 3.45374C19.2577 2.78176 18.867 2.18014 18.3551 1.68002C17.855 1.1721 17.2494 0.777435 16.5852 0.527447C15.9485 0.281274 15.2217 0.109427 14.159 0.0625732C13.0884 0.0117516 12.7486 0 10.0332 0C7.31782 0 6.97794 0.0117516 5.9113 0.0586052C4.84862 0.105459 4.11804 0.277459 3.48514 0.523479C2.81301 0.777435 2.21139 1.16814 1.71126 1.68002C1.20335 2.18014 0.808836 2.78573 0.558696 3.44992C0.312524 4.0868 0.140677 4.81341 0.0938231 5.87609C0.0430015 6.9467 0.03125 7.28658 0.03125 10.002C0.03125 12.7173 0.0430015 13.0572 0.0898551 14.1239C0.136709 15.1865 0.308709 15.9171 0.55488 16.5502C0.808836 17.2221 1.20335 17.8238 1.71126 18.3239C2.21139 18.8318 2.81698 19.2265 3.48117 19.4765C4.11804 19.7226 4.84465 19.8945 5.90748 19.9413C6.97397 19.9883 7.314 19.9999 10.0294 19.9999C12.7447 19.9999 13.0846 19.9883 14.1513 19.9413C15.2139 19.8945 15.9445 19.7226 16.5774 19.4765C17.9215 18.9568 18.9842 17.8941 19.5039 16.5502C19.7499 15.9133 19.9219 15.1865 19.9687 14.1239C20.0156 13.0572 20.0273 12.7173 20.0273 10.002C20.0273 7.28658 20.0234 6.9467 19.9765 5.88005ZM18.1755 14.0457C18.1324 15.0225 17.9684 15.5499 17.8316 15.9015C17.4956 16.7728 16.8041 17.4643 15.9328 17.8004C15.5811 17.9372 15.0499 18.1012 14.0769 18.1441C13.022 18.1911 12.7057 18.2027 10.0372 18.2027C7.36864 18.2027 7.0483 18.1911 5.99722 18.1441C5.02047 18.1012 4.49302 17.9372 4.14139 17.8004C3.7078 17.6402 3.31314 17.3862 2.99279 17.0541C2.6607 16.7298 2.40674 16.3391 2.24649 15.9055C2.10975 15.5539 1.94568 15.0225 1.9028 14.0497C1.85579 12.9948 1.84419 12.6783 1.84419 10.0097C1.84419 7.34122 1.85579 7.02087 1.9028 5.96995C1.94568 4.99319 2.10975 4.46575 2.24649 4.11412C2.40674 3.68038 2.6607 3.28586 2.99676 2.96536C3.32092 2.63327 3.71162 2.37931 4.14536 2.21921C4.49699 2.08247 5.0284 1.9184 6.00119 1.87537C7.05608 1.82851 7.37261 1.81676 10.041 1.81676C12.7135 1.81676 13.0298 1.82851 14.0809 1.87537C15.0577 1.9184 15.5851 2.08247 15.9367 2.21921C16.3703 2.37931 16.765 2.63327 17.0853 2.96536C17.4174 3.28967 17.6714 3.68038 17.8316 4.11412C17.9684 4.46575 18.1324 4.99701 18.1755 5.96995C18.2223 7.02484 18.2341 7.34122 18.2341 10.0097C18.2341 12.6783 18.2223 12.9908 18.1755 14.0457Z" fill="white"/>
<path d="M10.0362 4.86426C7.19976 4.86426 4.89844 7.16543 4.89844 10.002C4.89844 12.8385 7.19976 15.1397 10.0362 15.1397C12.8727 15.1397 15.1739 12.8385 15.1739 10.002C15.1739 7.16543 12.8727 4.86426 10.0362 4.86426ZM10.0362 13.3347C8.19605 13.3347 6.70345 11.8422 6.70345 10.002C6.70345 8.16172 8.19605 6.66927 10.0362 6.66927C11.8764 6.66927 13.3689 8.16172 13.3689 10.002C13.3689 11.8422 11.8764 13.3347 10.0362 13.3347Z" fill="white"/>
<path d="M16.5787 4.66134C16.5787 5.3237 16.0416 5.86077 15.3791 5.86077C14.7168 5.86077 14.1797 5.3237 14.1797 4.66134C14.1797 3.99882 14.7168 3.46191 15.3791 3.46191C16.0416 3.46191 16.5787 3.99882 16.5787 4.66134Z" fill="white"/>
</g>
<defs>
<clipPath id="clip0_2688_33185">
<rect width="20" height="20" fill="white"/>
</clipPath>
</defs>
</svg>
