<svg width="269" height="184" viewBox="0 0 269 184" fill="none" xmlns="http://www.w3.org/2000/svg">
<g clip-path="url(#clip0_1770_15573)">
<g filter="url(#filter0_dd_1770_15573)">
<rect x="5.64062" y="5.52002" width="258.72" height="219.52" rx="44" fill="#2F3037" shape-rendering="crispEdges"/>
<rect x="5.64062" y="5.52002" width="258.72" height="219.52" rx="44" fill="url(#paint0_linear_1770_15573)" shape-rendering="crispEdges"/>
<g filter="url(#filter1_i_1770_15573)">
<rect x="11.5195" y="11.3999" width="246.96" height="196" rx="38" fill="#131316" fill-opacity="0.5"/>
<path d="M23.88 88V80.92H28.33V81.7H24.72V83.92H28.09V84.7H24.72V87.22H28.51V88H23.88ZM29.6277 83.32H30.3677C30.3677 83.61 30.3877 83.78 30.3877 84.09H30.4077C30.6577 83.56 31.2677 83.2 31.9777 83.2C32.6177 83.2 33.1377 83.42 33.4477 84.09C33.8177 83.48 34.2677 83.2 34.9377 83.2C36.1477 83.2 36.7077 83.84 36.7077 85.11V88H35.9277V85.17C35.9277 84.37 35.5377 83.92 34.7877 83.92C34.0877 83.92 33.5777 84.53 33.5777 85.27V88H32.7977V85.29C32.7977 84.38 32.5677 83.92 31.8877 83.92C30.9477 83.92 30.4477 84.58 30.4477 85.71V88H29.6677V84.36C29.6677 84.05 29.6277 83.6 29.6277 83.32ZM39.6534 88.12C38.6334 88.12 37.9134 87.58 37.9134 86.73C37.9134 85.65 38.7234 85.09 40.8034 85.09H41.1634V84.96C41.1634 84.27 40.7334 83.92 40.0034 83.92C39.4934 83.92 38.9834 84.08 38.6134 84.43L38.1234 83.92C38.6034 83.44 39.2934 83.2 39.9834 83.2C41.3334 83.2 41.9434 83.85 41.9434 85.13V87.23C41.9434 87.39 41.9634 87.68 42.0134 88H41.2634C41.2234 87.88 41.2134 87.7 41.2134 87.3H41.1934C40.8434 87.83 40.3034 88.12 39.6534 88.12ZM40.3034 85.75C39.3834 85.75 38.7534 86.04 38.7534 86.65C38.7534 87.18 39.1234 87.46 39.7834 87.46C40.5934 87.46 41.1634 86.93 41.1634 85.93V85.75H40.3034ZM43.8289 80.92C44.1389 80.92 44.3989 81.17 44.3989 81.49C44.3989 81.82 44.1589 82.06 43.8289 82.06C43.4989 82.06 43.2589 81.82 43.2589 81.49C43.2589 81.17 43.5189 80.92 43.8289 80.92ZM44.2189 83.32V88H43.4389V83.32H44.2189ZM46.6213 80.44V88H45.8413V80.44H46.6213Z" fill="#B7B8C2"/>
<g filter="url(#filter2_i_1770_15573)">
<rect x="23" y="93.7798" width="220" height="27" rx="4" fill="#2F3037"/>
</g>
<path d="M24.72 141.78H23.88V134.7H26.03C27.54 134.7 28.46 135.37 28.46 136.64C28.46 137.93 27.49 138.6 26.18 138.6H24.72V141.78ZM24.72 135.48V137.82H26.18C27.03 137.82 27.56 137.38 27.56 136.65C27.56 135.92 27.04 135.48 26.18 135.48H24.72ZM31.1377 141.9C30.1177 141.9 29.3977 141.36 29.3977 140.51C29.3977 139.43 30.2077 138.87 32.2877 138.87H32.6477V138.74C32.6477 138.05 32.2177 137.7 31.4877 137.7C30.9777 137.7 30.4677 137.86 30.0977 138.21L29.6077 137.7C30.0877 137.22 30.7777 136.98 31.4677 136.98C32.8177 136.98 33.4277 137.63 33.4277 138.91V141.01C33.4277 141.17 33.4477 141.46 33.4977 141.78H32.7477C32.7077 141.66 32.6977 141.48 32.6977 141.08H32.6777C32.3277 141.61 31.7877 141.9 31.1377 141.9ZM31.7877 139.53C30.8677 139.53 30.2377 139.82 30.2377 140.43C30.2377 140.96 30.6077 141.24 31.2677 141.24C32.0777 141.24 32.6477 140.71 32.6477 139.71V139.53H31.7877ZM36.2833 136.98C37.0033 136.98 37.5833 137.28 37.8733 137.83L37.2233 138.26C37.0233 137.93 36.7033 137.7 36.2333 137.7C35.7133 137.7 35.3133 137.96 35.3133 138.35C35.3133 138.66 35.6833 138.88 36.4833 139.03C37.6033 139.24 38.0233 139.67 38.0233 140.43C38.0233 141.35 37.2833 141.9 36.1533 141.9C35.2833 141.9 34.7433 141.63 34.3333 141.03L34.9533 140.55C35.3433 141.02 35.6833 141.18 36.1533 141.18C36.7433 141.18 37.1833 140.9 37.1833 140.46C37.1833 140.03 36.8933 139.86 35.8633 139.64C34.9333 139.44 34.5333 139.06 34.5333 138.36C34.5333 137.51 35.3233 136.98 36.2833 136.98ZM40.5411 136.98C41.2611 136.98 41.8411 137.28 42.1311 137.83L41.4811 138.26C41.2811 137.93 40.9611 137.7 40.4911 137.7C39.9711 137.7 39.5711 137.96 39.5711 138.35C39.5711 138.66 39.9411 138.88 40.7411 139.03C41.8611 139.24 42.2811 139.67 42.2811 140.43C42.2811 141.35 41.5411 141.9 40.4111 141.9C39.5411 141.9 39.0011 141.63 38.5911 141.03L39.2111 140.55C39.6011 141.02 39.9411 141.18 40.4111 141.18C41.0011 141.18 41.4411 140.9 41.4411 140.46C41.4411 140.03 41.1511 139.86 40.1211 139.64C39.1911 139.44 38.7911 139.06 38.7911 138.36C38.7911 137.51 39.5811 136.98 40.5411 136.98ZM44.2889 141.78L42.7689 137.1H43.6289L44.6989 140.7H44.7189L45.9289 137.1H46.7489L47.9789 140.7H47.9989L49.0589 137.1H49.8989L48.3889 141.78H47.6189L46.2889 138.18H46.2689L45.0889 141.78H44.2889ZM53.011 136.98C54.461 136.98 55.511 137.99 55.511 139.44C55.511 140.88 54.461 141.9 53.011 141.9C51.561 141.9 50.511 140.88 50.511 139.44C50.511 138.01 51.541 136.98 53.011 136.98ZM51.351 139.44C51.351 140.45 52.031 141.18 53.011 141.18C54.011 141.18 54.671 140.43 54.671 139.44C54.671 138.45 54.011 137.7 53.001 137.7C52.021 137.7 51.351 138.45 51.351 139.44ZM59.0185 136.98C59.1385 136.98 59.2285 136.99 59.3385 137.03L59.2885 137.82C59.1385 137.78 59.0185 137.76 58.8685 137.76C57.9685 137.76 57.4985 138.38 57.4985 139.46V141.78H56.7185V138.14C56.7185 137.83 56.6785 137.38 56.6785 137.1H57.4185C57.4185 137.39 57.4385 137.56 57.4385 137.87H57.4585C57.7085 137.34 58.3285 136.98 59.0185 136.98ZM62.1284 141.9C60.8084 141.9 59.7884 140.83 59.7884 139.44C59.7884 138.02 60.7884 136.98 62.2484 136.98C62.9084 136.98 63.4984 137.27 63.9284 137.78H63.9484V134.22H64.7284V141.78H63.9484V140.95H63.9284C63.6084 141.54 62.8984 141.9 62.1284 141.9ZM60.6284 139.44C60.6284 140.45 61.3084 141.18 62.2884 141.18C63.2884 141.18 63.9484 140.43 63.9484 139.44C63.9484 138.45 63.2984 137.7 62.2784 137.7C61.2984 137.7 60.6284 138.45 60.6284 139.44Z" fill="#B7B8C2"/>
<g filter="url(#filter3_i_1770_15573)">
<rect x="23" y="147.56" width="220" height="27" rx="4" fill="#2F3037"/>
</g>
<path d="M80.2293 27.836C83.1133 27.836 85.4373 29.964 85.4373 32.834C85.4373 34.43 84.7513 35.732 83.3513 36.544V36.572H86.1933V38H80.3693C77.3173 38 75.0213 35.984 75.0213 32.834C75.0213 29.908 77.4153 27.836 80.2293 27.836ZM76.8693 32.876C76.8693 34.822 78.1993 36.404 80.2153 36.404C82.2173 36.404 83.5893 34.878 83.5893 32.876C83.5893 30.874 82.1753 29.432 80.1733 29.432C78.2133 29.432 76.8693 30.958 76.8693 32.876ZM87.3211 31.28H89.0011V34.752C89.0011 36.096 89.4211 36.656 90.2331 36.656C91.2271 36.656 91.7731 35.984 91.7731 34.948V31.28H93.4531V38H91.8571V36.922H91.8291C91.4371 37.762 90.7231 38.168 89.7711 38.168C87.8111 38.168 87.3211 36.684 87.3211 35.578V31.28ZM96.2142 27.99C96.8302 27.99 97.3062 28.424 97.3062 28.998C97.3062 29.6 96.8162 30.006 96.2142 30.006C95.6122 30.006 95.1502 29.544 95.1502 28.998C95.1502 28.452 95.6122 27.99 96.2142 27.99ZM97.0682 31.28V38H95.3882V31.28H97.0682ZM102.315 31.112C103.225 31.112 104.135 31.448 104.751 32.134L103.589 33.296C103.253 32.946 102.819 32.624 102.315 32.624C101.097 32.624 100.341 33.562 100.341 34.64C100.341 35.802 101.181 36.656 102.315 36.656C102.819 36.656 103.309 36.432 103.617 36.026L104.737 37.23C104.177 37.776 103.183 38.168 102.315 38.168C100.257 38.168 98.6609 36.726 98.6609 34.64C98.6609 32.666 100.145 31.112 102.315 31.112ZM105.751 38V27.416H107.431V34.066L110.021 31.28H112.177L109.293 34.332L112.359 38H110.133L107.459 34.57H107.431V38H105.751ZM127.549 33.03C127.549 36.138 125.295 38.252 122.243 38.252C119.191 38.252 117.035 36.152 117.035 33.086C117.035 30.23 118.883 27.836 122.341 27.836C125.477 27.836 127.549 29.936 127.549 33.03ZM118.883 32.974C118.883 35.004 120.157 36.656 122.285 36.656C124.427 36.656 125.701 34.99 125.701 32.974C125.701 30.944 124.301 29.432 122.271 29.432C120.255 29.432 118.883 31.014 118.883 32.974ZM130.755 38H129.075V31.28H130.671V32.358H130.699C131.105 31.476 131.875 31.112 132.757 31.112C134.759 31.112 135.207 32.666 135.207 33.702V38H133.527V34.514C133.527 33.17 133.093 32.624 132.295 32.624C131.217 32.624 130.755 33.408 130.755 34.304V38ZM137.114 27.416H138.794V32.134H138.836C139.396 31.42 140.222 31.112 141.118 31.112C143.106 31.112 144.366 32.736 144.366 34.64C144.366 36.642 143.092 38.168 141.062 38.168C140.124 38.168 139.242 37.804 138.738 36.992H138.71V38H137.114V27.416ZM138.738 34.64C138.738 35.774 139.564 36.656 140.712 36.656C141.86 36.656 142.686 35.774 142.686 34.64C142.686 33.45 141.832 32.624 140.698 32.624C139.578 32.624 138.738 33.492 138.738 34.64ZM149.25 31.112C151.308 31.112 152.904 32.54 152.904 34.64C152.904 36.74 151.308 38.168 149.25 38.168C147.192 38.168 145.596 36.74 145.596 34.64C145.596 32.554 147.206 31.112 149.25 31.112ZM147.276 34.64C147.276 35.802 148.116 36.656 149.25 36.656C150.426 36.656 151.224 35.76 151.224 34.64C151.224 33.478 150.384 32.624 149.236 32.624C148.116 32.624 147.276 33.492 147.276 34.64ZM156.479 38.168C155.093 38.168 154.029 37.384 154.029 36.152C154.029 34.598 155.275 33.814 158.159 33.814H158.677V33.618C158.677 32.834 158.061 32.372 157.137 32.372C156.437 32.372 155.807 32.652 155.345 33.072L154.463 32.19C155.065 31.574 156.003 31.112 157.319 31.112C159.615 31.112 160.189 32.4 160.189 33.982V38H158.677V37.076H158.635C158.159 37.832 157.375 38.168 156.479 38.168ZM158.089 34.99C156.605 34.99 155.709 35.312 155.709 36.026C155.709 36.6 156.269 36.908 156.899 36.908C158.047 36.908 158.579 36.264 158.579 35.41V34.99H158.089ZM161.997 38V31.28H163.677V32.344H163.705C164.069 31.574 164.811 31.112 165.693 31.112C165.945 31.112 166.071 31.154 166.295 31.21V32.834C165.973 32.75 165.735 32.708 165.483 32.708C164.209 32.708 163.677 33.604 163.677 34.5V38H161.997ZM172.428 27.416H174.108V38H172.512V36.992H172.484C171.98 37.818 171.098 38.168 170.16 38.168C168.116 38.168 166.856 36.656 166.856 34.64C166.856 32.736 168.116 31.112 170.104 31.112C171 31.112 171.812 31.42 172.386 32.134H172.428V27.416ZM168.536 34.64C168.536 35.76 169.334 36.656 170.51 36.656C171.854 36.656 172.484 35.564 172.484 34.64C172.484 33.422 171.574 32.624 170.51 32.624C169.334 32.624 168.536 33.534 168.536 34.64ZM176.865 27.99C177.481 27.99 177.957 28.424 177.957 28.998C177.957 29.6 177.467 30.006 176.865 30.006C176.263 30.006 175.801 29.544 175.801 28.998C175.801 28.452 176.263 27.99 176.865 27.99ZM177.719 31.28V38H176.039V31.28H177.719ZM181.327 38H179.647V31.28H181.243V32.358H181.271C181.677 31.476 182.447 31.112 183.329 31.112C185.331 31.112 185.779 32.666 185.779 33.702V38H184.099V34.514C184.099 33.17 183.665 32.624 182.867 32.624C181.789 32.624 181.327 33.408 181.327 34.304V38ZM190.654 31.112C191.592 31.112 192.474 31.462 192.978 32.288H193.006V31.28H194.602V37.454C194.602 39.876 193.342 41.36 190.808 41.36C189.548 41.36 188.414 41.08 187.476 40.254L188.484 38.882C189.156 39.498 189.87 39.848 190.794 39.848C192.362 39.848 192.922 39.036 192.922 37.538V37.104H192.894C192.376 37.762 191.564 38.084 190.696 38.084C188.722 38.084 187.35 36.586 187.35 34.64C187.35 32.624 188.61 31.112 190.654 31.112ZM189.03 34.626C189.03 35.746 189.926 36.572 191.004 36.572C192.18 36.572 193.006 35.774 193.006 34.598C193.006 33.366 192.194 32.624 191.004 32.624C189.842 32.624 189.03 33.436 189.03 34.626Z" fill="#E8395C"/>
<path d="M54.9636 50.74C56.0436 50.74 56.9436 51.16 57.4636 51.85L56.7336 52.38C56.3036 51.81 55.6436 51.52 54.9636 51.52C53.4036 51.52 52.2636 52.89 52.2636 54.46C52.2636 56.09 53.3636 57.4 54.9636 57.4C55.8236 57.4 56.5036 57.06 57.0136 56.41L57.6436 56.94C57.0036 57.79 56.0936 58.18 54.9636 58.18C52.8736 58.18 51.3636 56.55 51.3636 54.46C51.3636 52.37 52.8736 50.74 54.9636 50.74ZM60.9746 53.2C61.0946 53.2 61.1846 53.21 61.2946 53.25L61.2446 54.04C61.0946 54 60.9746 53.98 60.8246 53.98C59.9246 53.98 59.4546 54.6 59.4546 55.68V58H58.6746V54.36C58.6746 54.05 58.6346 53.6 58.6346 53.32H59.3746C59.3746 53.61 59.3946 53.78 59.3946 54.09H59.4146C59.6646 53.56 60.2846 53.2 60.9746 53.2ZM64.1444 53.2C65.3644 53.2 66.3644 53.97 66.3644 55.71V55.9H62.5844C62.6644 56.77 63.3044 57.4 64.1244 57.4C64.7744 57.4 65.2344 57.17 65.6044 56.69L66.1944 57.15C65.7044 57.79 65.0744 58.12 64.1244 58.12C62.6744 58.12 61.7444 57.06 61.7444 55.66C61.7444 54.22 62.7544 53.2 64.1444 53.2ZM65.5244 55.24C65.4844 54.43 64.9744 53.92 64.1044 53.92C63.3044 53.92 62.7044 54.39 62.5844 55.24H65.5244ZM69.0411 58.12C68.0211 58.12 67.3011 57.58 67.3011 56.73C67.3011 55.65 68.1111 55.09 70.1911 55.09H70.5511V54.96C70.5511 54.27 70.1211 53.92 69.3911 53.92C68.8811 53.92 68.3711 54.08 68.0011 54.43L67.5111 53.92C67.9911 53.44 68.6811 53.2 69.3711 53.2C70.7211 53.2 71.3311 53.85 71.3311 55.13V57.23C71.3311 57.39 71.3511 57.68 71.4011 58H70.6511C70.6111 57.88 70.6011 57.7 70.6011 57.3H70.5811C70.2311 57.83 69.6911 58.12 69.0411 58.12ZM69.6911 55.75C68.7711 55.75 68.1411 56.04 68.1411 56.65C68.1411 57.18 68.5111 57.46 69.1711 57.46C69.9811 57.46 70.5511 56.93 70.5511 55.93V55.75H69.6911ZM73.1566 53.98H72.1366V53.32H73.1566V51.99H73.9366V53.32H75.3166V53.98H73.9366V56.48C73.9366 57.23 74.1866 57.4 74.6366 57.4C74.8666 57.4 75.1266 57.35 75.3266 57.24L75.3566 57.95C75.0766 58.07 74.7366 58.12 74.4466 58.12C73.5466 58.12 73.1566 57.76 73.1566 56.6V53.98ZM78.4022 53.2C79.6222 53.2 80.6222 53.97 80.6222 55.71V55.9H76.8422C76.9222 56.77 77.5622 57.4 78.3822 57.4C79.0322 57.4 79.4922 57.17 79.8622 56.69L80.4522 57.15C79.9622 57.79 79.3322 58.12 78.3822 58.12C76.9322 58.12 76.0022 57.06 76.0022 55.66C76.0022 54.22 77.0122 53.2 78.4022 53.2ZM79.7822 55.24C79.7422 54.43 79.2322 53.92 78.3622 53.92C77.5622 53.92 76.9622 54.39 76.8422 55.24H79.7822ZM86.0821 58.12C85.0621 58.12 84.3421 57.58 84.3421 56.73C84.3421 55.65 85.1521 55.09 87.2321 55.09H87.5921V54.96C87.5921 54.27 87.1621 53.92 86.4321 53.92C85.9221 53.92 85.4121 54.08 85.0421 54.43L84.5521 53.92C85.0321 53.44 85.7221 53.2 86.4121 53.2C87.7621 53.2 88.3721 53.85 88.3721 55.13V57.23C88.3721 57.39 88.3921 57.68 88.4421 58H87.6921C87.6521 57.88 87.6421 57.7 87.6421 57.3H87.6221C87.2721 57.83 86.7321 58.12 86.0821 58.12ZM86.7321 55.75C85.8121 55.75 85.1821 56.04 85.1821 56.65C85.1821 57.18 85.5521 57.46 86.2121 57.46C87.0221 57.46 87.5921 56.93 87.5921 55.93V55.75H86.7321ZM94.0508 58.12C93.0308 58.12 92.3108 57.58 92.3108 56.73C92.3108 55.65 93.1208 55.09 95.2008 55.09H95.5608V54.96C95.5608 54.27 95.1308 53.92 94.4008 53.92C93.8908 53.92 93.3808 54.08 93.0108 54.43L92.5208 53.92C93.0008 53.44 93.6908 53.2 94.3808 53.2C95.7308 53.2 96.3408 53.85 96.3408 55.13V57.23C96.3408 57.39 96.3608 57.68 96.4108 58H95.6608C95.6208 57.88 95.6108 57.7 95.6108 57.3H95.5908C95.2408 57.83 94.7008 58.12 94.0508 58.12ZM94.7008 55.75C93.7808 55.75 93.1508 56.04 93.1508 56.65C93.1508 57.18 93.5208 57.46 94.1808 57.46C94.9908 57.46 95.5608 56.93 95.5608 55.93V55.75H94.7008ZM99.9264 53.2C100.606 53.2 101.246 53.43 101.716 53.94L101.096 54.49C100.766 54.09 100.386 53.92 99.9164 53.92C98.9464 53.92 98.3364 54.61 98.3364 55.66C98.3364 56.64 98.9864 57.4 99.9164 57.4C100.426 57.4 100.816 57.22 101.106 56.82L101.686 57.37C101.236 57.89 100.596 58.12 99.9164 58.12C98.4764 58.12 97.4964 57.11 97.4964 55.66C97.4964 54.23 98.4864 53.2 99.9264 53.2ZM104.751 53.2C105.431 53.2 106.071 53.43 106.541 53.94L105.921 54.49C105.591 54.09 105.211 53.92 104.741 53.92C103.771 53.92 103.161 54.61 103.161 55.66C103.161 56.64 103.811 57.4 104.741 57.4C105.251 57.4 105.641 57.22 105.931 56.82L106.511 57.37C106.061 57.89 105.421 58.12 104.741 58.12C103.301 58.12 102.321 57.11 102.321 55.66C102.321 54.23 103.311 53.2 104.751 53.2ZM109.645 53.2C111.095 53.2 112.145 54.21 112.145 55.66C112.145 57.1 111.095 58.12 109.645 58.12C108.195 58.12 107.145 57.1 107.145 55.66C107.145 54.23 108.175 53.2 109.645 53.2ZM107.985 55.66C107.985 56.67 108.665 57.4 109.645 57.4C110.645 57.4 111.305 56.65 111.305 55.66C111.305 54.67 110.645 53.92 109.635 53.92C108.655 53.92 107.985 54.67 107.985 55.66ZM113.352 56.25V53.32H114.132V56.16C114.132 56.87 114.452 57.4 115.202 57.4C116.172 57.4 116.652 56.7 116.652 55.64V53.32H117.432V56.96C117.432 57.25 117.472 57.75 117.472 58H116.732C116.732 57.67 116.712 57.54 116.712 57.23H116.692C116.452 57.75 115.842 58.12 115.122 58.12C113.962 58.12 113.352 57.38 113.352 56.25ZM118.869 53.32H119.609C119.609 53.61 119.629 53.78 119.629 54.09H119.649C119.899 53.56 120.519 53.2 121.209 53.2C122.399 53.2 122.989 53.94 122.989 55.07V58H122.209V55.16C122.209 54.44 121.889 53.92 121.139 53.92C120.179 53.92 119.689 54.59 119.689 55.71V58H118.909V54.36C118.909 54.05 118.869 53.6 118.869 53.32ZM124.866 53.98H123.846V53.32H124.866V51.99H125.646V53.32H127.026V53.98H125.646V56.48C125.646 57.23 125.896 57.4 126.346 57.4C126.576 57.4 126.836 57.35 127.036 57.24L127.066 57.95C126.786 58.07 126.446 58.12 126.156 58.12C125.256 58.12 124.866 57.76 124.866 56.6V53.98ZM131.224 50.92C131.534 50.92 131.794 51.17 131.794 51.49C131.794 51.82 131.554 52.06 131.224 52.06C130.894 52.06 130.654 51.82 130.654 51.49C130.654 51.17 130.914 50.92 131.224 50.92ZM131.614 53.32V58H130.834V53.32H131.614ZM133.127 53.32H133.867C133.867 53.61 133.887 53.78 133.887 54.09H133.907C134.157 53.56 134.777 53.2 135.467 53.2C136.657 53.2 137.247 53.94 137.247 55.07V58H136.467V55.16C136.467 54.44 136.147 53.92 135.397 53.92C134.437 53.92 133.947 54.59 133.947 55.71V58H133.167V54.36C133.167 54.05 133.127 53.6 133.127 53.32ZM141.507 56.25V53.32H142.287V56.16C142.287 56.87 142.607 57.4 143.357 57.4C144.327 57.4 144.807 56.7 144.807 55.64V53.32H145.587V56.96C145.587 57.25 145.627 57.75 145.627 58H144.887C144.887 57.67 144.867 57.54 144.867 57.23H144.847C144.607 57.75 143.997 58.12 143.277 58.12C142.117 58.12 141.507 57.38 141.507 56.25ZM147.023 53.32H147.763C147.763 53.61 147.783 53.78 147.783 54.09H147.803C148.053 53.56 148.673 53.2 149.363 53.2C150.553 53.2 151.143 53.94 151.143 55.07V58H150.363V55.16C150.363 54.44 150.043 53.92 149.293 53.92C148.333 53.92 147.843 54.59 147.843 55.71V58H147.063V54.36C147.063 54.05 147.023 53.6 147.023 53.32ZM154.69 58.12C153.37 58.12 152.35 57.05 152.35 55.66C152.35 54.24 153.35 53.2 154.81 53.2C155.47 53.2 156.06 53.49 156.49 54H156.51V50.44H157.29V58H156.51V57.17H156.49C156.17 57.76 155.46 58.12 154.69 58.12ZM153.19 55.66C153.19 56.67 153.87 57.4 154.85 57.4C155.85 57.4 156.51 56.65 156.51 55.66C156.51 54.67 155.86 53.92 154.84 53.92C153.86 53.92 153.19 54.67 153.19 55.66ZM160.863 53.2C162.083 53.2 163.083 53.97 163.083 55.71V55.9H159.303C159.383 56.77 160.023 57.4 160.843 57.4C161.493 57.4 161.953 57.17 162.323 56.69L162.913 57.15C162.423 57.79 161.793 58.12 160.843 58.12C159.393 58.12 158.463 57.06 158.463 55.66C158.463 54.22 159.473 53.2 160.863 53.2ZM162.243 55.24C162.203 54.43 161.693 53.92 160.823 53.92C160.023 53.92 159.423 54.39 159.303 55.24H162.243ZM166.59 53.2C166.71 53.2 166.8 53.21 166.91 53.25L166.86 54.04C166.71 54 166.59 53.98 166.44 53.98C165.54 53.98 165.07 54.6 165.07 55.68V58H164.29V54.36C164.29 54.05 164.25 53.6 164.25 53.32H164.99C164.99 53.61 165.01 53.78 165.01 54.09H165.03C165.28 53.56 165.9 53.2 166.59 53.2ZM173.449 50.92V58H172.609V52H172.589L171.319 53.07L170.819 52.46L172.719 50.92H173.449ZM180.145 50.92V51.7H177.255L177.225 53.61C177.505 53.48 177.845 53.44 178.135 53.44C179.445 53.44 180.395 54.39 180.395 55.77C180.395 57.15 179.375 58.12 177.965 58.12C177.005 58.12 176.305 57.7 175.875 56.83L176.715 56.51C176.975 57.07 177.445 57.4 178.035 57.4C178.915 57.4 179.555 56.73 179.555 55.77C179.555 54.8 178.875 54.16 177.805 54.16C177.325 54.16 176.795 54.35 176.365 54.6L176.435 50.92H180.145ZM184.445 53.32H185.185C185.185 53.61 185.205 53.78 185.205 54.09H185.225C185.475 53.56 186.085 53.2 186.795 53.2C187.435 53.2 187.955 53.42 188.265 54.09C188.635 53.48 189.085 53.2 189.755 53.2C190.965 53.2 191.525 53.84 191.525 55.11V58H190.745V55.17C190.745 54.37 190.355 53.92 189.605 53.92C188.905 53.92 188.395 54.53 188.395 55.27V58H187.615V55.29C187.615 54.38 187.385 53.92 186.705 53.92C185.765 53.92 185.265 54.58 185.265 55.71V58H184.485V54.36C184.485 54.05 184.445 53.6 184.445 53.32ZM193.461 50.92C193.771 50.92 194.031 51.17 194.031 51.49C194.031 51.82 193.791 52.06 193.461 52.06C193.131 52.06 192.891 51.82 192.891 51.49C192.891 51.17 193.151 50.92 193.461 50.92ZM193.851 53.32V58H193.071V53.32H193.851ZM195.363 53.32H196.103C196.103 53.61 196.123 53.78 196.123 54.09H196.143C196.393 53.56 197.013 53.2 197.703 53.2C198.893 53.2 199.483 53.94 199.483 55.07V58H198.703V55.16C198.703 54.44 198.383 53.92 197.633 53.92C196.673 53.92 196.183 54.59 196.183 55.71V58H195.403V54.36C195.403 54.05 195.363 53.6 195.363 53.32ZM201.36 53.98H200.34V53.32H201.36V51.99H202.14V53.32H203.52V53.98H202.14V56.48C202.14 57.23 202.39 57.4 202.84 57.4C203.07 57.4 203.33 57.35 203.53 57.24L203.56 57.95C203.28 58.07 202.94 58.12 202.65 58.12C201.75 58.12 201.36 57.76 201.36 56.6V53.98ZM204.475 56.25V53.32H205.255V56.16C205.255 56.87 205.575 57.4 206.325 57.4C207.295 57.4 207.775 56.7 207.775 55.64V53.32H208.555V56.96C208.555 57.25 208.595 57.75 208.595 58H207.855C207.855 57.67 207.835 57.54 207.835 57.23H207.815C207.575 57.75 206.965 58.12 206.245 58.12C205.085 58.12 204.475 57.38 204.475 56.25ZM212.162 53.2C213.382 53.2 214.382 53.97 214.382 55.71V55.9H210.602C210.682 56.77 211.322 57.4 212.142 57.4C212.792 57.4 213.252 57.17 213.622 56.69L214.212 57.15C213.722 57.79 213.092 58.12 212.142 58.12C210.692 58.12 209.762 57.06 209.762 55.66C209.762 54.22 210.772 53.2 212.162 53.2ZM213.542 55.24C213.502 54.43 212.992 53.92 212.122 53.92C211.322 53.92 210.722 54.39 210.602 55.24H213.542ZM217.019 53.2C217.739 53.2 218.319 53.5 218.609 54.05L217.959 54.48C217.759 54.15 217.439 53.92 216.969 53.92C216.449 53.92 216.049 54.18 216.049 54.57C216.049 54.88 216.419 55.1 217.219 55.25C218.339 55.46 218.759 55.89 218.759 56.65C218.759 57.57 218.019 58.12 216.889 58.12C216.019 58.12 215.479 57.85 215.069 57.25L215.689 56.77C216.079 57.24 216.419 57.4 216.889 57.4C217.479 57.4 217.919 57.12 217.919 56.68C217.919 56.25 217.629 56.08 216.599 55.86C215.669 55.66 215.269 55.28 215.269 54.58C215.269 53.73 216.059 53.2 217.019 53.2Z" fill="#B7B8C2"/>
</g>
<rect x="6" y="163" width="258" height="21" fill="url(#paint1_linear_1770_15573)"/>
</g>
</g>
<defs>
<filter id="filter0_dd_1770_15573" x="1.64062" y="0.52002" width="266.719" height="229.52" filterUnits="userSpaceOnUse" color-interpolation-filters="sRGB">
<feFlood flood-opacity="0" result="BackgroundImageFix"/>
<feColorMatrix in="SourceAlpha" type="matrix" values="0 0 0 0 0 0 0 0 0 0 0 0 0 0 0 0 0 0 127 0" result="hardAlpha"/>
<feOffset dy="1"/>
<feGaussianBlur stdDeviation="2"/>
<feComposite in2="hardAlpha" operator="out"/>
<feColorMatrix type="matrix" values="0 0 0 0 0.909804 0 0 0 0 0.223529 0 0 0 0 0.360784 0 0 0 1 0"/>
<feBlend mode="normal" in2="BackgroundImageFix" result="effect1_dropShadow_1770_15573"/>
<feColorMatrix in="SourceAlpha" type="matrix" values="0 0 0 0 0 0 0 0 0 0 0 0 0 0 0 0 0 0 127 0" result="hardAlpha"/>
<feOffset dy="-1"/>
<feGaussianBlur stdDeviation="2"/>
<feComposite in2="hardAlpha" operator="out"/>
<feColorMatrix type="matrix" values="0 0 0 0 0.909804 0 0 0 0 0.223529 0 0 0 0 0.360784 0 0 0 1 0"/>
<feBlend mode="normal" in2="effect1_dropShadow_1770_15573" result="effect2_dropShadow_1770_15573"/>
<feBlend mode="normal" in="SourceGraphic" in2="effect2_dropShadow_1770_15573" result="shape"/>
</filter>
<filter id="filter1_i_1770_15573" x="11.5195" y="11.3999" width="246.961" height="196" filterUnits="userSpaceOnUse" color-interpolation-filters="sRGB">
<feFlood flood-opacity="0" result="BackgroundImageFix"/>
<feBlend mode="normal" in="SourceGraphic" in2="BackgroundImageFix" result="shape"/>
<feColorMatrix in="SourceAlpha" type="matrix" values="0 0 0 0 0 0 0 0 0 0 0 0 0 0 0 0 0 0 127 0" result="hardAlpha"/>
<feMorphology radius="1" operator="erode" in="SourceAlpha" result="effect1_innerShadow_1770_15573"/>
<feOffset/>
<feComposite in2="hardAlpha" operator="arithmetic" k2="-1" k3="1"/>
<feColorMatrix type="matrix" values="0 0 0 0 0 0 0 0 0 0 0 0 0 0 0 0 0 0 0.05 0"/>
<feBlend mode="normal" in2="shape" result="effect1_innerShadow_1770_15573"/>
</filter>
<filter id="filter2_i_1770_15573" x="23" y="93.7798" width="220" height="39.2002" filterUnits="userSpaceOnUse" color-interpolation-filters="sRGB">
<feFlood flood-opacity="0" result="BackgroundImageFix"/>
<feBlend mode="normal" in="SourceGraphic" in2="BackgroundImageFix" result="shape"/>
<feColorMatrix in="SourceAlpha" type="matrix" values="0 0 0 0 0 0 0 0 0 0 0 0 0 0 0 0 0 0 127 0" result="hardAlpha"/>
<feOffset dy="1"/>
<feComposite in2="hardAlpha" operator="arithmetic" k2="-1" k3="1"/>
<feColorMatrix type="matrix" values="0 0 0 0 1 0 0 0 0 1 0 0 0 0 1 0 0 0 0.05 0"/>
<feBlend mode="normal" in2="shape" result="effect1_innerShadow_1770_15573"/>
</filter>
<filter id="filter3_i_1770_15573" x="23" y="147.56" width="220" height="39.2002" filterUnits="userSpaceOnUse" color-interpolation-filters="sRGB">
<feFlood flood-opacity="0" result="BackgroundImageFix"/>
<feBlend mode="normal" in="SourceGraphic" in2="BackgroundImageFix" result="shape"/>
<feColorMatrix in="SourceAlpha" type="matrix" values="0 0 0 0 0 0 0 0 0 0 0 0 0 0 0 0 0 0 127 0" result="hardAlpha"/>
<feOffset dy="1"/>
<feComposite in2="hardAlpha" operator="arithmetic" k2="-1" k3="1"/>
<feColorMatrix type="matrix" values="0 0 0 0 1 0 0 0 0 1 0 0 0 0 1 0 0 0 0.05 0"/>
<feBlend mode="normal" in2="shape" result="effect1_innerShadow_1770_15573"/>
</filter>
<linearGradient id="paint0_linear_1770_15573" x1="135.001" y1="5.52002" x2="135.001" y2="225.04" gradientUnits="userSpaceOnUse">
<stop stop-color="white" stop-opacity="0.05"/>
<stop offset="0.6719" stop-color="white" stop-opacity="0"/>
</linearGradient>
<linearGradient id="paint1_linear_1770_15573" x1="135" y1="184" x2="135" y2="163" gradientUnits="userSpaceOnUse">
<stop stop-color="#212126"/>
<stop offset="1" stop-color="#212126" stop-opacity="0"/>
</linearGradient>
<clipPath id="clip0_1770_15573">
<rect width="269" height="184" fill="white"/>
</clipPath>
</defs>
</svg>
