<svg width="269" height="182" viewBox="0 0 269 182" fill="none" xmlns="http://www.w3.org/2000/svg">
<g filter="url(#filter0_di_3849_2832)">
<rect x="5.64062" y="3.52002" width="258.72" height="219.52" rx="44" fill="#2F3037" shape-rendering="crispEdges"/>
<rect x="5.64062" y="3.52002" width="258.72" height="219.52" rx="44" fill="url(#paint0_linear_3849_2832)" shape-rendering="crispEdges"/>
<g filter="url(#filter1_i_3849_2832)">
<rect x="11.5234" y="9.40002" width="246.96" height="196" rx="38" fill="#131316" fill-opacity="0.5"/>
<path d="M23.88 86V78.92H28.33V79.7H24.72V81.92H28.09V82.7H24.72V85.22H28.51V86H23.88ZM29.6277 81.32H30.3677C30.3677 81.61 30.3877 81.78 30.3877 82.09H30.4077C30.6577 81.56 31.2677 81.2 31.9777 81.2C32.6177 81.2 33.1377 81.42 33.4477 82.09C33.8177 81.48 34.2677 81.2 34.9377 81.2C36.1477 81.2 36.7077 81.84 36.7077 83.11V86H35.9277V83.17C35.9277 82.37 35.5377 81.92 34.7877 81.92C34.0877 81.92 33.5777 82.53 33.5777 83.27V86H32.7977V83.29C32.7977 82.38 32.5677 81.92 31.8877 81.92C30.9477 81.92 30.4477 82.58 30.4477 83.71V86H29.6677V82.36C29.6677 82.05 29.6277 81.6 29.6277 81.32ZM39.6534 86.12C38.6334 86.12 37.9134 85.58 37.9134 84.73C37.9134 83.65 38.7234 83.09 40.8034 83.09H41.1634V82.96C41.1634 82.27 40.7334 81.92 40.0034 81.92C39.4934 81.92 38.9834 82.08 38.6134 82.43L38.1234 81.92C38.6034 81.44 39.2934 81.2 39.9834 81.2C41.3334 81.2 41.9434 81.85 41.9434 83.13V85.23C41.9434 85.39 41.9634 85.68 42.0134 86H41.2634C41.2234 85.88 41.2134 85.7 41.2134 85.3H41.1934C40.8434 85.83 40.3034 86.12 39.6534 86.12ZM40.3034 83.75C39.3834 83.75 38.7534 84.04 38.7534 84.65C38.7534 85.18 39.1234 85.46 39.7834 85.46C40.5934 85.46 41.1634 84.93 41.1634 83.93V83.75H40.3034ZM43.8289 78.92C44.1389 78.92 44.3989 79.17 44.3989 79.49C44.3989 79.82 44.1589 80.06 43.8289 80.06C43.4989 80.06 43.2589 79.82 43.2589 79.49C43.2589 79.17 43.5189 78.92 43.8289 78.92ZM44.2189 81.32V86H43.4389V81.32H44.2189ZM46.6213 78.44V86H45.8413V78.44H46.6213Z" fill="#B7B8C2"/>
<g filter="url(#filter2_i_3849_2832)">
<rect x="23" y="91.78" width="220" height="27" rx="4" fill="#2F3037"/>
</g>
<path d="M24.72 139.78H23.88V132.7H26.03C27.54 132.7 28.46 133.37 28.46 134.64C28.46 135.93 27.49 136.6 26.18 136.6H24.72V139.78ZM24.72 133.48V135.82H26.18C27.03 135.82 27.56 135.38 27.56 134.65C27.56 133.92 27.04 133.48 26.18 133.48H24.72ZM31.1377 139.9C30.1177 139.9 29.3977 139.36 29.3977 138.51C29.3977 137.43 30.2077 136.87 32.2877 136.87H32.6477V136.74C32.6477 136.05 32.2177 135.7 31.4877 135.7C30.9777 135.7 30.4677 135.86 30.0977 136.21L29.6077 135.7C30.0877 135.22 30.7777 134.98 31.4677 134.98C32.8177 134.98 33.4277 135.63 33.4277 136.91V139.01C33.4277 139.17 33.4477 139.46 33.4977 139.78H32.7477C32.7077 139.66 32.6977 139.48 32.6977 139.08H32.6777C32.3277 139.61 31.7877 139.9 31.1377 139.9ZM31.7877 137.53C30.8677 137.53 30.2377 137.82 30.2377 138.43C30.2377 138.96 30.6077 139.24 31.2677 139.24C32.0777 139.24 32.6477 138.71 32.6477 137.71V137.53H31.7877ZM36.2833 134.98C37.0033 134.98 37.5833 135.28 37.8733 135.83L37.2233 136.26C37.0233 135.93 36.7033 135.7 36.2333 135.7C35.7133 135.7 35.3133 135.96 35.3133 136.35C35.3133 136.66 35.6833 136.88 36.4833 137.03C37.6033 137.24 38.0233 137.67 38.0233 138.43C38.0233 139.35 37.2833 139.9 36.1533 139.9C35.2833 139.9 34.7433 139.63 34.3333 139.03L34.9533 138.55C35.3433 139.02 35.6833 139.18 36.1533 139.18C36.7433 139.18 37.1833 138.9 37.1833 138.46C37.1833 138.03 36.8933 137.86 35.8633 137.64C34.9333 137.44 34.5333 137.06 34.5333 136.36C34.5333 135.51 35.3233 134.98 36.2833 134.98ZM40.5411 134.98C41.2611 134.98 41.8411 135.28 42.1311 135.83L41.4811 136.26C41.2811 135.93 40.9611 135.7 40.4911 135.7C39.9711 135.7 39.5711 135.96 39.5711 136.35C39.5711 136.66 39.9411 136.88 40.7411 137.03C41.8611 137.24 42.2811 137.67 42.2811 138.43C42.2811 139.35 41.5411 139.9 40.4111 139.9C39.5411 139.9 39.0011 139.63 38.5911 139.03L39.2111 138.55C39.6011 139.02 39.9411 139.18 40.4111 139.18C41.0011 139.18 41.4411 138.9 41.4411 138.46C41.4411 138.03 41.1511 137.86 40.1211 137.64C39.1911 137.44 38.7911 137.06 38.7911 136.36C38.7911 135.51 39.5811 134.98 40.5411 134.98ZM44.2889 139.78L42.7689 135.1H43.6289L44.6989 138.7H44.7189L45.9289 135.1H46.7489L47.9789 138.7H47.9989L49.0589 135.1H49.8989L48.3889 139.78H47.6189L46.2889 136.18H46.2689L45.0889 139.78H44.2889ZM53.011 134.98C54.461 134.98 55.511 135.99 55.511 137.44C55.511 138.88 54.461 139.9 53.011 139.9C51.561 139.9 50.511 138.88 50.511 137.44C50.511 136.01 51.541 134.98 53.011 134.98ZM51.351 137.44C51.351 138.45 52.031 139.18 53.011 139.18C54.011 139.18 54.671 138.43 54.671 137.44C54.671 136.45 54.011 135.7 53.001 135.7C52.021 135.7 51.351 136.45 51.351 137.44ZM59.0185 134.98C59.1385 134.98 59.2285 134.99 59.3385 135.03L59.2885 135.82C59.1385 135.78 59.0185 135.76 58.8685 135.76C57.9685 135.76 57.4985 136.38 57.4985 137.46V139.78H56.7185V136.14C56.7185 135.83 56.6785 135.38 56.6785 135.1H57.4185C57.4185 135.39 57.4385 135.56 57.4385 135.87H57.4585C57.7085 135.34 58.3285 134.98 59.0185 134.98ZM62.1284 139.9C60.8084 139.9 59.7884 138.83 59.7884 137.44C59.7884 136.02 60.7884 134.98 62.2484 134.98C62.9084 134.98 63.4984 135.27 63.9284 135.78H63.9484V132.22H64.7284V139.78H63.9484V138.95H63.9284C63.6084 139.54 62.8984 139.9 62.1284 139.9ZM60.6284 137.44C60.6284 138.45 61.3084 139.18 62.2884 139.18C63.2884 139.18 63.9484 138.43 63.9484 137.44C63.9484 136.45 63.2984 135.7 62.2784 135.7C61.2984 135.7 60.6284 136.45 60.6284 137.44Z" fill="#B7B8C2"/>
<g filter="url(#filter3_i_3849_2832)">
<rect x="23" y="145.56" width="220" height="27" rx="4" fill="#2F3037"/>
</g>
<path d="M80.2293 25.836C83.1133 25.836 85.4373 27.964 85.4373 30.834C85.4373 32.43 84.7513 33.732 83.3513 34.544V34.572H86.1933V36H80.3693C77.3173 36 75.0213 33.984 75.0213 30.834C75.0213 27.908 77.4153 25.836 80.2293 25.836ZM76.8693 30.876C76.8693 32.822 78.1993 34.404 80.2153 34.404C82.2173 34.404 83.5893 32.878 83.5893 30.876C83.5893 28.874 82.1753 27.432 80.1733 27.432C78.2133 27.432 76.8693 28.958 76.8693 30.876ZM87.3211 29.28H89.0011V32.752C89.0011 34.096 89.4211 34.656 90.2331 34.656C91.2271 34.656 91.7731 33.984 91.7731 32.948V29.28H93.4531V36H91.8571V34.922H91.8291C91.4371 35.762 90.7231 36.168 89.7711 36.168C87.8111 36.168 87.3211 34.684 87.3211 33.578V29.28ZM96.2142 25.99C96.8302 25.99 97.3062 26.424 97.3062 26.998C97.3062 27.6 96.8162 28.006 96.2142 28.006C95.6122 28.006 95.1502 27.544 95.1502 26.998C95.1502 26.452 95.6122 25.99 96.2142 25.99ZM97.0682 29.28V36H95.3882V29.28H97.0682ZM102.315 29.112C103.225 29.112 104.135 29.448 104.751 30.134L103.589 31.296C103.253 30.946 102.819 30.624 102.315 30.624C101.097 30.624 100.341 31.562 100.341 32.64C100.341 33.802 101.181 34.656 102.315 34.656C102.819 34.656 103.309 34.432 103.617 34.026L104.737 35.23C104.177 35.776 103.183 36.168 102.315 36.168C100.257 36.168 98.6609 34.726 98.6609 32.64C98.6609 30.666 100.145 29.112 102.315 29.112ZM105.751 36V25.416H107.431V32.066L110.021 29.28H112.177L109.293 32.332L112.359 36H110.133L107.459 32.57H107.431V36H105.751ZM127.549 31.03C127.549 34.138 125.295 36.252 122.243 36.252C119.191 36.252 117.035 34.152 117.035 31.086C117.035 28.23 118.883 25.836 122.341 25.836C125.477 25.836 127.549 27.936 127.549 31.03ZM118.883 30.974C118.883 33.004 120.157 34.656 122.285 34.656C124.427 34.656 125.701 32.99 125.701 30.974C125.701 28.944 124.301 27.432 122.271 27.432C120.255 27.432 118.883 29.014 118.883 30.974ZM130.755 36H129.075V29.28H130.671V30.358H130.699C131.105 29.476 131.875 29.112 132.757 29.112C134.759 29.112 135.207 30.666 135.207 31.702V36H133.527V32.514C133.527 31.17 133.093 30.624 132.295 30.624C131.217 30.624 130.755 31.408 130.755 32.304V36ZM137.114 25.416H138.794V30.134H138.836C139.396 29.42 140.222 29.112 141.118 29.112C143.106 29.112 144.366 30.736 144.366 32.64C144.366 34.642 143.092 36.168 141.062 36.168C140.124 36.168 139.242 35.804 138.738 34.992H138.71V36H137.114V25.416ZM138.738 32.64C138.738 33.774 139.564 34.656 140.712 34.656C141.86 34.656 142.686 33.774 142.686 32.64C142.686 31.45 141.832 30.624 140.698 30.624C139.578 30.624 138.738 31.492 138.738 32.64ZM149.25 29.112C151.308 29.112 152.904 30.54 152.904 32.64C152.904 34.74 151.308 36.168 149.25 36.168C147.192 36.168 145.596 34.74 145.596 32.64C145.596 30.554 147.206 29.112 149.25 29.112ZM147.276 32.64C147.276 33.802 148.116 34.656 149.25 34.656C150.426 34.656 151.224 33.76 151.224 32.64C151.224 31.478 150.384 30.624 149.236 30.624C148.116 30.624 147.276 31.492 147.276 32.64ZM156.479 36.168C155.093 36.168 154.029 35.384 154.029 34.152C154.029 32.598 155.275 31.814 158.159 31.814H158.677V31.618C158.677 30.834 158.061 30.372 157.137 30.372C156.437 30.372 155.807 30.652 155.345 31.072L154.463 30.19C155.065 29.574 156.003 29.112 157.319 29.112C159.615 29.112 160.189 30.4 160.189 31.982V36H158.677V35.076H158.635C158.159 35.832 157.375 36.168 156.479 36.168ZM158.089 32.99C156.605 32.99 155.709 33.312 155.709 34.026C155.709 34.6 156.269 34.908 156.899 34.908C158.047 34.908 158.579 34.264 158.579 33.41V32.99H158.089ZM161.997 36V29.28H163.677V30.344H163.705C164.069 29.574 164.811 29.112 165.693 29.112C165.945 29.112 166.071 29.154 166.295 29.21V30.834C165.973 30.75 165.735 30.708 165.483 30.708C164.209 30.708 163.677 31.604 163.677 32.5V36H161.997ZM172.428 25.416H174.108V36H172.512V34.992H172.484C171.98 35.818 171.098 36.168 170.16 36.168C168.116 36.168 166.856 34.656 166.856 32.64C166.856 30.736 168.116 29.112 170.104 29.112C171 29.112 171.812 29.42 172.386 30.134H172.428V25.416ZM168.536 32.64C168.536 33.76 169.334 34.656 170.51 34.656C171.854 34.656 172.484 33.564 172.484 32.64C172.484 31.422 171.574 30.624 170.51 30.624C169.334 30.624 168.536 31.534 168.536 32.64ZM176.865 25.99C177.481 25.99 177.957 26.424 177.957 26.998C177.957 27.6 177.467 28.006 176.865 28.006C176.263 28.006 175.801 27.544 175.801 26.998C175.801 26.452 176.263 25.99 176.865 25.99ZM177.719 29.28V36H176.039V29.28H177.719ZM181.327 36H179.647V29.28H181.243V30.358H181.271C181.677 29.476 182.447 29.112 183.329 29.112C185.331 29.112 185.779 30.666 185.779 31.702V36H184.099V32.514C184.099 31.17 183.665 30.624 182.867 30.624C181.789 30.624 181.327 31.408 181.327 32.304V36ZM190.654 29.112C191.592 29.112 192.474 29.462 192.978 30.288H193.006V29.28H194.602V35.454C194.602 37.876 193.342 39.36 190.808 39.36C189.548 39.36 188.414 39.08 187.476 38.254L188.484 36.882C189.156 37.498 189.87 37.848 190.794 37.848C192.362 37.848 192.922 37.036 192.922 35.538V35.104H192.894C192.376 35.762 191.564 36.084 190.696 36.084C188.722 36.084 187.35 34.586 187.35 32.64C187.35 30.624 188.61 29.112 190.654 29.112ZM189.03 32.626C189.03 33.746 189.926 34.572 191.004 34.572C192.18 34.572 193.006 33.774 193.006 32.598C193.006 31.366 192.194 30.624 191.004 30.624C189.842 30.624 189.03 31.436 189.03 32.626Z" fill="white"/>
<path d="M54.9636 48.74C56.0436 48.74 56.9436 49.16 57.4636 49.85L56.7336 50.38C56.3036 49.81 55.6436 49.52 54.9636 49.52C53.4036 49.52 52.2636 50.89 52.2636 52.46C52.2636 54.09 53.3636 55.4 54.9636 55.4C55.8236 55.4 56.5036 55.06 57.0136 54.41L57.6436 54.94C57.0036 55.79 56.0936 56.18 54.9636 56.18C52.8736 56.18 51.3636 54.55 51.3636 52.46C51.3636 50.37 52.8736 48.74 54.9636 48.74ZM60.9746 51.2C61.0946 51.2 61.1846 51.21 61.2946 51.25L61.2446 52.04C61.0946 52 60.9746 51.98 60.8246 51.98C59.9246 51.98 59.4546 52.6 59.4546 53.68V56H58.6746V52.36C58.6746 52.05 58.6346 51.6 58.6346 51.32H59.3746C59.3746 51.61 59.3946 51.78 59.3946 52.09H59.4146C59.6646 51.56 60.2846 51.2 60.9746 51.2ZM64.1444 51.2C65.3644 51.2 66.3644 51.97 66.3644 53.71V53.9H62.5844C62.6644 54.77 63.3044 55.4 64.1244 55.4C64.7744 55.4 65.2344 55.17 65.6044 54.69L66.1944 55.15C65.7044 55.79 65.0744 56.12 64.1244 56.12C62.6744 56.12 61.7444 55.06 61.7444 53.66C61.7444 52.22 62.7544 51.2 64.1444 51.2ZM65.5244 53.24C65.4844 52.43 64.9744 51.92 64.1044 51.92C63.3044 51.92 62.7044 52.39 62.5844 53.24H65.5244ZM69.0411 56.12C68.0211 56.12 67.3011 55.58 67.3011 54.73C67.3011 53.65 68.1111 53.09 70.1911 53.09H70.5511V52.96C70.5511 52.27 70.1211 51.92 69.3911 51.92C68.8811 51.92 68.3711 52.08 68.0011 52.43L67.5111 51.92C67.9911 51.44 68.6811 51.2 69.3711 51.2C70.7211 51.2 71.3311 51.85 71.3311 53.13V55.23C71.3311 55.39 71.3511 55.68 71.4011 56H70.6511C70.6111 55.88 70.6011 55.7 70.6011 55.3H70.5811C70.2311 55.83 69.6911 56.12 69.0411 56.12ZM69.6911 53.75C68.7711 53.75 68.1411 54.04 68.1411 54.65C68.1411 55.18 68.5111 55.46 69.1711 55.46C69.9811 55.46 70.5511 54.93 70.5511 53.93V53.75H69.6911ZM73.1566 51.98H72.1366V51.32H73.1566V49.99H73.9366V51.32H75.3166V51.98H73.9366V54.48C73.9366 55.23 74.1866 55.4 74.6366 55.4C74.8666 55.4 75.1266 55.35 75.3266 55.24L75.3566 55.95C75.0766 56.07 74.7366 56.12 74.4466 56.12C73.5466 56.12 73.1566 55.76 73.1566 54.6V51.98ZM78.4022 51.2C79.6222 51.2 80.6222 51.97 80.6222 53.71V53.9H76.8422C76.9222 54.77 77.5622 55.4 78.3822 55.4C79.0322 55.4 79.4922 55.17 79.8622 54.69L80.4522 55.15C79.9622 55.79 79.3322 56.12 78.3822 56.12C76.9322 56.12 76.0022 55.06 76.0022 53.66C76.0022 52.22 77.0122 51.2 78.4022 51.2ZM79.7822 53.24C79.7422 52.43 79.2322 51.92 78.3622 51.92C77.5622 51.92 76.9622 52.39 76.8422 53.24H79.7822ZM86.0821 56.12C85.0621 56.12 84.3421 55.58 84.3421 54.73C84.3421 53.65 85.1521 53.09 87.2321 53.09H87.5921V52.96C87.5921 52.27 87.1621 51.92 86.4321 51.92C85.9221 51.92 85.4121 52.08 85.0421 52.43L84.5521 51.92C85.0321 51.44 85.7221 51.2 86.4121 51.2C87.7621 51.2 88.3721 51.85 88.3721 53.13V55.23C88.3721 55.39 88.3921 55.68 88.4421 56H87.6921C87.6521 55.88 87.6421 55.7 87.6421 55.3H87.6221C87.2721 55.83 86.7321 56.12 86.0821 56.12ZM86.7321 53.75C85.8121 53.75 85.1821 54.04 85.1821 54.65C85.1821 55.18 85.5521 55.46 86.2121 55.46C87.0221 55.46 87.5921 54.93 87.5921 53.93V53.75H86.7321ZM94.0508 56.12C93.0308 56.12 92.3108 55.58 92.3108 54.73C92.3108 53.65 93.1208 53.09 95.2008 53.09H95.5608V52.96C95.5608 52.27 95.1308 51.92 94.4008 51.92C93.8908 51.92 93.3808 52.08 93.0108 52.43L92.5208 51.92C93.0008 51.44 93.6908 51.2 94.3808 51.2C95.7308 51.2 96.3408 51.85 96.3408 53.13V55.23C96.3408 55.39 96.3608 55.68 96.4108 56H95.6608C95.6208 55.88 95.6108 55.7 95.6108 55.3H95.5908C95.2408 55.83 94.7008 56.12 94.0508 56.12ZM94.7008 53.75C93.7808 53.75 93.1508 54.04 93.1508 54.65C93.1508 55.18 93.5208 55.46 94.1808 55.46C94.9908 55.46 95.5608 54.93 95.5608 53.93V53.75H94.7008ZM99.9264 51.2C100.606 51.2 101.246 51.43 101.716 51.94L101.096 52.49C100.766 52.09 100.386 51.92 99.9164 51.92C98.9464 51.92 98.3364 52.61 98.3364 53.66C98.3364 54.64 98.9864 55.4 99.9164 55.4C100.426 55.4 100.816 55.22 101.106 54.82L101.686 55.37C101.236 55.89 100.596 56.12 99.9164 56.12C98.4764 56.12 97.4964 55.11 97.4964 53.66C97.4964 52.23 98.4864 51.2 99.9264 51.2ZM104.751 51.2C105.431 51.2 106.071 51.43 106.541 51.94L105.921 52.49C105.591 52.09 105.211 51.92 104.741 51.92C103.771 51.92 103.161 52.61 103.161 53.66C103.161 54.64 103.811 55.4 104.741 55.4C105.251 55.4 105.641 55.22 105.931 54.82L106.511 55.37C106.061 55.89 105.421 56.12 104.741 56.12C103.301 56.12 102.321 55.11 102.321 53.66C102.321 52.23 103.311 51.2 104.751 51.2ZM109.645 51.2C111.095 51.2 112.145 52.21 112.145 53.66C112.145 55.1 111.095 56.12 109.645 56.12C108.195 56.12 107.145 55.1 107.145 53.66C107.145 52.23 108.175 51.2 109.645 51.2ZM107.985 53.66C107.985 54.67 108.665 55.4 109.645 55.4C110.645 55.4 111.305 54.65 111.305 53.66C111.305 52.67 110.645 51.92 109.635 51.92C108.655 51.92 107.985 52.67 107.985 53.66ZM113.352 54.25V51.32H114.132V54.16C114.132 54.87 114.452 55.4 115.202 55.4C116.172 55.4 116.652 54.7 116.652 53.64V51.32H117.432V54.96C117.432 55.25 117.472 55.75 117.472 56H116.732C116.732 55.67 116.712 55.54 116.712 55.23H116.692C116.452 55.75 115.842 56.12 115.122 56.12C113.962 56.12 113.352 55.38 113.352 54.25ZM118.869 51.32H119.609C119.609 51.61 119.629 51.78 119.629 52.09H119.649C119.899 51.56 120.519 51.2 121.209 51.2C122.399 51.2 122.989 51.94 122.989 53.07V56H122.209V53.16C122.209 52.44 121.889 51.92 121.139 51.92C120.179 51.92 119.689 52.59 119.689 53.71V56H118.909V52.36C118.909 52.05 118.869 51.6 118.869 51.32ZM124.866 51.98H123.846V51.32H124.866V49.99H125.646V51.32H127.026V51.98H125.646V54.48C125.646 55.23 125.896 55.4 126.346 55.4C126.576 55.4 126.836 55.35 127.036 55.24L127.066 55.95C126.786 56.07 126.446 56.12 126.156 56.12C125.256 56.12 124.866 55.76 124.866 54.6V51.98ZM131.224 48.92C131.534 48.92 131.794 49.17 131.794 49.49C131.794 49.82 131.554 50.06 131.224 50.06C130.894 50.06 130.654 49.82 130.654 49.49C130.654 49.17 130.914 48.92 131.224 48.92ZM131.614 51.32V56H130.834V51.32H131.614ZM133.127 51.32H133.867C133.867 51.61 133.887 51.78 133.887 52.09H133.907C134.157 51.56 134.777 51.2 135.467 51.2C136.657 51.2 137.247 51.94 137.247 53.07V56H136.467V53.16C136.467 52.44 136.147 51.92 135.397 51.92C134.437 51.92 133.947 52.59 133.947 53.71V56H133.167V52.36C133.167 52.05 133.127 51.6 133.127 51.32ZM141.507 54.25V51.32H142.287V54.16C142.287 54.87 142.607 55.4 143.357 55.4C144.327 55.4 144.807 54.7 144.807 53.64V51.32H145.587V54.96C145.587 55.25 145.627 55.75 145.627 56H144.887C144.887 55.67 144.867 55.54 144.867 55.23H144.847C144.607 55.75 143.997 56.12 143.277 56.12C142.117 56.12 141.507 55.38 141.507 54.25ZM147.023 51.32H147.763C147.763 51.61 147.783 51.78 147.783 52.09H147.803C148.053 51.56 148.673 51.2 149.363 51.2C150.553 51.2 151.143 51.94 151.143 53.07V56H150.363V53.16C150.363 52.44 150.043 51.92 149.293 51.92C148.333 51.92 147.843 52.59 147.843 53.71V56H147.063V52.36C147.063 52.05 147.023 51.6 147.023 51.32ZM154.69 56.12C153.37 56.12 152.35 55.05 152.35 53.66C152.35 52.24 153.35 51.2 154.81 51.2C155.47 51.2 156.06 51.49 156.49 52H156.51V48.44H157.29V56H156.51V55.17H156.49C156.17 55.76 155.46 56.12 154.69 56.12ZM153.19 53.66C153.19 54.67 153.87 55.4 154.85 55.4C155.85 55.4 156.51 54.65 156.51 53.66C156.51 52.67 155.86 51.92 154.84 51.92C153.86 51.92 153.19 52.67 153.19 53.66ZM160.863 51.2C162.083 51.2 163.083 51.97 163.083 53.71V53.9H159.303C159.383 54.77 160.023 55.4 160.843 55.4C161.493 55.4 161.953 55.17 162.323 54.69L162.913 55.15C162.423 55.79 161.793 56.12 160.843 56.12C159.393 56.12 158.463 55.06 158.463 53.66C158.463 52.22 159.473 51.2 160.863 51.2ZM162.243 53.24C162.203 52.43 161.693 51.92 160.823 51.92C160.023 51.92 159.423 52.39 159.303 53.24H162.243ZM166.59 51.2C166.71 51.2 166.8 51.21 166.91 51.25L166.86 52.04C166.71 52 166.59 51.98 166.44 51.98C165.54 51.98 165.07 52.6 165.07 53.68V56H164.29V52.36C164.29 52.05 164.25 51.6 164.25 51.32H164.99C164.99 51.61 165.01 51.78 165.01 52.09H165.03C165.28 51.56 165.9 51.2 166.59 51.2ZM173.449 48.92V56H172.609V50H172.589L171.319 51.07L170.819 50.46L172.719 48.92H173.449ZM180.145 48.92V49.7H177.255L177.225 51.61C177.505 51.48 177.845 51.44 178.135 51.44C179.445 51.44 180.395 52.39 180.395 53.77C180.395 55.15 179.375 56.12 177.965 56.12C177.005 56.12 176.305 55.7 175.875 54.83L176.715 54.51C176.975 55.07 177.445 55.4 178.035 55.4C178.915 55.4 179.555 54.73 179.555 53.77C179.555 52.8 178.875 52.16 177.805 52.16C177.325 52.16 176.795 52.35 176.365 52.6L176.435 48.92H180.145ZM184.445 51.32H185.185C185.185 51.61 185.205 51.78 185.205 52.09H185.225C185.475 51.56 186.085 51.2 186.795 51.2C187.435 51.2 187.955 51.42 188.265 52.09C188.635 51.48 189.085 51.2 189.755 51.2C190.965 51.2 191.525 51.84 191.525 53.11V56H190.745V53.17C190.745 52.37 190.355 51.92 189.605 51.92C188.905 51.92 188.395 52.53 188.395 53.27V56H187.615V53.29C187.615 52.38 187.385 51.92 186.705 51.92C185.765 51.92 185.265 52.58 185.265 53.71V56H184.485V52.36C184.485 52.05 184.445 51.6 184.445 51.32ZM193.461 48.92C193.771 48.92 194.031 49.17 194.031 49.49C194.031 49.82 193.791 50.06 193.461 50.06C193.131 50.06 192.891 49.82 192.891 49.49C192.891 49.17 193.151 48.92 193.461 48.92ZM193.851 51.32V56H193.071V51.32H193.851ZM195.363 51.32H196.103C196.103 51.61 196.123 51.78 196.123 52.09H196.143C196.393 51.56 197.013 51.2 197.703 51.2C198.893 51.2 199.483 51.94 199.483 53.07V56H198.703V53.16C198.703 52.44 198.383 51.92 197.633 51.92C196.673 51.92 196.183 52.59 196.183 53.71V56H195.403V52.36C195.403 52.05 195.363 51.6 195.363 51.32ZM201.36 51.98H200.34V51.32H201.36V49.99H202.14V51.32H203.52V51.98H202.14V54.48C202.14 55.23 202.39 55.4 202.84 55.4C203.07 55.4 203.33 55.35 203.53 55.24L203.56 55.95C203.28 56.07 202.94 56.12 202.65 56.12C201.75 56.12 201.36 55.76 201.36 54.6V51.98ZM204.475 54.25V51.32H205.255V54.16C205.255 54.87 205.575 55.4 206.325 55.4C207.295 55.4 207.775 54.7 207.775 53.64V51.32H208.555V54.96C208.555 55.25 208.595 55.75 208.595 56H207.855C207.855 55.67 207.835 55.54 207.835 55.23H207.815C207.575 55.75 206.965 56.12 206.245 56.12C205.085 56.12 204.475 55.38 204.475 54.25ZM212.162 51.2C213.382 51.2 214.382 51.97 214.382 53.71V53.9H210.602C210.682 54.77 211.322 55.4 212.142 55.4C212.792 55.4 213.252 55.17 213.622 54.69L214.212 55.15C213.722 55.79 213.092 56.12 212.142 56.12C210.692 56.12 209.762 55.06 209.762 53.66C209.762 52.22 210.772 51.2 212.162 51.2ZM213.542 53.24C213.502 52.43 212.992 51.92 212.122 51.92C211.322 51.92 210.722 52.39 210.602 53.24H213.542ZM217.019 51.2C217.739 51.2 218.319 51.5 218.609 52.05L217.959 52.48C217.759 52.15 217.439 51.92 216.969 51.92C216.449 51.92 216.049 52.18 216.049 52.57C216.049 52.88 216.419 53.1 217.219 53.25C218.339 53.46 218.759 53.89 218.759 54.65C218.759 55.57 218.019 56.12 216.889 56.12C216.019 56.12 215.479 55.85 215.069 55.25L215.689 54.77C216.079 55.24 216.419 55.4 216.889 55.4C217.479 55.4 217.919 55.12 217.919 54.68C217.919 54.25 217.629 54.08 216.599 53.86C215.669 53.66 215.269 53.28 215.269 52.58C215.269 51.73 216.059 51.2 217.019 51.2Z" fill="#B7B8C2"/>
</g>
<rect x="6" y="161" width="258" height="21" fill="url(#paint1_linear_3849_2832)"/>
</g>
<defs>
<filter id="filter0_di_3849_2832" x="0.640625" y="0.52002" width="268.719" height="229.52" filterUnits="userSpaceOnUse" color-interpolation-filters="sRGB">
<feFlood flood-opacity="0" result="BackgroundImageFix"/>
<feColorMatrix in="SourceAlpha" type="matrix" values="0 0 0 0 0 0 0 0 0 0 0 0 0 0 0 0 0 0 127 0" result="hardAlpha"/>
<feOffset dy="2"/>
<feGaussianBlur stdDeviation="2.5"/>
<feComposite in2="hardAlpha" operator="out"/>
<feColorMatrix type="matrix" values="0 0 0 0 0 0 0 0 0 0 0 0 0 0 0 0 0 0 0.4 0"/>
<feBlend mode="normal" in2="BackgroundImageFix" result="effect1_dropShadow_3849_2832"/>
<feBlend mode="normal" in="SourceGraphic" in2="effect1_dropShadow_3849_2832" result="shape"/>
<feColorMatrix in="SourceAlpha" type="matrix" values="0 0 0 0 0 0 0 0 0 0 0 0 0 0 0 0 0 0 127 0" result="hardAlpha"/>
<feOffset dy="1"/>
<feComposite in2="hardAlpha" operator="arithmetic" k2="-1" k3="1"/>
<feColorMatrix type="matrix" values="0 0 0 0 1 0 0 0 0 1 0 0 0 0 1 0 0 0 0.05 0"/>
<feBlend mode="normal" in2="shape" result="effect2_innerShadow_3849_2832"/>
</filter>
<filter id="filter1_i_3849_2832" x="11.5234" y="9.40002" width="246.961" height="196" filterUnits="userSpaceOnUse" color-interpolation-filters="sRGB">
<feFlood flood-opacity="0" result="BackgroundImageFix"/>
<feBlend mode="normal" in="SourceGraphic" in2="BackgroundImageFix" result="shape"/>
<feColorMatrix in="SourceAlpha" type="matrix" values="0 0 0 0 0 0 0 0 0 0 0 0 0 0 0 0 0 0 127 0" result="hardAlpha"/>
<feMorphology radius="1" operator="erode" in="SourceAlpha" result="effect1_innerShadow_3849_2832"/>
<feOffset/>
<feComposite in2="hardAlpha" operator="arithmetic" k2="-1" k3="1"/>
<feColorMatrix type="matrix" values="0 0 0 0 0 0 0 0 0 0 0 0 0 0 0 0 0 0 0.05 0"/>
<feBlend mode="normal" in2="shape" result="effect1_innerShadow_3849_2832"/>
</filter>
<filter id="filter2_i_3849_2832" x="23" y="91.78" width="220" height="39.2" filterUnits="userSpaceOnUse" color-interpolation-filters="sRGB">
<feFlood flood-opacity="0" result="BackgroundImageFix"/>
<feBlend mode="normal" in="SourceGraphic" in2="BackgroundImageFix" result="shape"/>
<feColorMatrix in="SourceAlpha" type="matrix" values="0 0 0 0 0 0 0 0 0 0 0 0 0 0 0 0 0 0 127 0" result="hardAlpha"/>
<feOffset dy="1"/>
<feComposite in2="hardAlpha" operator="arithmetic" k2="-1" k3="1"/>
<feColorMatrix type="matrix" values="0 0 0 0 1 0 0 0 0 1 0 0 0 0 1 0 0 0 0.05 0"/>
<feBlend mode="normal" in2="shape" result="effect1_innerShadow_3849_2832"/>
</filter>
<filter id="filter3_i_3849_2832" x="23" y="145.56" width="220" height="39.2" filterUnits="userSpaceOnUse" color-interpolation-filters="sRGB">
<feFlood flood-opacity="0" result="BackgroundImageFix"/>
<feBlend mode="normal" in="SourceGraphic" in2="BackgroundImageFix" result="shape"/>
<feColorMatrix in="SourceAlpha" type="matrix" values="0 0 0 0 0 0 0 0 0 0 0 0 0 0 0 0 0 0 127 0" result="hardAlpha"/>
<feOffset dy="1"/>
<feComposite in2="hardAlpha" operator="arithmetic" k2="-1" k3="1"/>
<feColorMatrix type="matrix" values="0 0 0 0 1 0 0 0 0 1 0 0 0 0 1 0 0 0 0.05 0"/>
<feBlend mode="normal" in2="shape" result="effect1_innerShadow_3849_2832"/>
</filter>
<linearGradient id="paint0_linear_3849_2832" x1="135.001" y1="3.52002" x2="135.001" y2="223.04" gradientUnits="userSpaceOnUse">
<stop stop-color="white" stop-opacity="0.05"/>
<stop offset="0.6719" stop-color="white" stop-opacity="0"/>
</linearGradient>
<linearGradient id="paint1_linear_3849_2832" x1="135" y1="182" x2="135" y2="161" gradientUnits="userSpaceOnUse">
<stop stop-color="#212126"/>
<stop offset="1" stop-color="#212126" stop-opacity="0"/>
</linearGradient>
</defs>
</svg>
