<svg width="93" height="30" viewBox="0 0 93 30" fill="none" xmlns="http://www.w3.org/2000/svg">
<path d="M92.3452 8.9984C91.489 6.59004 89.2318 4.84204 86.5465 4.84204H86.4687C84.7174 4.84204 83.1607 5.58009 82.0321 6.74542C80.9035 5.58009 79.3469 4.84204 77.5956 4.84204H77.5178C76 4.84204 74.599 5.42471 73.5093 6.31813V5.852C73.4704 5.38586 73.0812 4.99742 72.6142 4.99742H68.5279C68.022 4.99742 67.6328 5.42471 67.6328 5.92969V28.4206C67.6328 28.9256 68.0609 29.3529 68.5279 29.3529H72.6142C73.0812 29.3529 73.4704 29.0033 73.5093 28.5372V12.4167C73.5093 12.339 73.5093 12.3002 73.5093 12.2613C73.5871 11.5621 74.093 10.9406 74.9103 10.8629H75.6497C76 10.9018 76.2724 11.0183 76.5059 11.2125C76.8562 11.4844 77.0507 11.9506 77.0507 12.4167L77.0897 28.4983C77.0897 29.0033 77.5177 29.4306 77.9848 29.4306H82.071C82.577 29.4306 82.9661 29.0421 82.9661 28.5372V12.4167C82.9661 11.8729 83.1996 11.4068 83.6277 11.1348C83.8223 10.9795 84.0947 10.9018 84.3672 10.8629H85.1066C86.0017 10.9406 86.5465 11.601 86.5076 12.4167L86.5465 28.4595C86.5465 28.9644 86.9746 29.3917 87.4416 29.3917H91.5279C92.0338 29.3917 92.423 28.9644 92.423 28.4595V11.1737C92.6565 10.0084 92.5397 9.50337 92.3452 8.9984Z" fill="#00BCF1"/>
<path d="M64.5976 5.114H62.2626V1.2684C62.2626 0.802263 61.9123 0.413818 61.4453 0.413818C61.4064 0.413818 61.3286 0.413818 61.2896 0.452663C58.6822 1.15186 59.227 4.80324 54.4791 5.114H53.9732C53.8954 5.114 53.8565 5.114 53.7786 5.15284C53.3505 5.23053 53.0781 5.61897 53.0781 6.04626V10.2026C53.0781 10.7076 53.5062 11.1349 53.9732 11.1349H56.4639V28.6926C56.4639 29.1976 56.8531 29.586 57.359 29.586H61.4064C61.9123 29.586 62.3015 29.1587 62.3015 28.6926V11.0572H64.5976C65.1035 11.0572 65.4927 10.6299 65.4927 10.1249V6.00742C65.4927 5.50244 65.1035 5.114 64.5976 5.114Z" fill="#00BCF1"/>
<path d="M49.8441 5.11401H45.7578C45.2518 5.11401 44.8627 5.5413 44.8627 6.04628V14.6309C44.8627 15.1747 44.4346 15.602 43.8897 15.602H42.1774C41.6325 15.602 41.2045 15.1747 41.2045 14.6309L41.1655 6.08512C41.1655 5.58015 40.7375 5.15286 40.2705 5.15286H36.1842C35.6782 5.15286 35.2891 5.58015 35.2891 6.08512V15.4855C35.2891 19.0592 37.8187 21.5841 41.3212 21.5841C41.3212 21.5841 43.9676 21.5841 44.0454 21.6229C44.5124 21.7006 44.9016 22.089 44.9016 22.594C44.9016 23.099 44.5513 23.4874 44.0454 23.5651C44.0065 23.5651 44.0065 23.5651 43.9676 23.5651L37.9743 23.604C37.4684 23.604 37.0792 24.0313 37.0792 24.5362V28.6537C37.0792 29.1587 37.5073 29.586 37.9743 29.586H44.6681C48.0149 29.586 50.7002 26.8281 50.7002 23.4874V6.00744C50.7391 5.50246 50.3111 5.11401 49.8441 5.11401Z" fill="#172B75"/>
<path d="M10.5023 5.11401H1.55134C1.04542 5.11401 0.65625 5.50246 0.65625 6.00744V10.0473V10.0861L0.65625 10.1249V28.4984C0.65625 29.0033 1.0065 29.3918 1.47351 29.4306H5.63764C6.14356 29.4306 6.53273 29.0033 6.53273 28.4984L6.57165 22.2056H10.5023C13.7713 22.2056 16.0674 19.9137 16.0674 16.5731V10.7465C16.0674 7.40584 13.7713 5.11401 10.5023 5.11401ZM10.152 12.6887V15.2524C10.152 15.7962 9.72393 16.2235 9.17909 16.2235H6.57165V11.0961H9.17909C9.72393 11.0961 10.152 11.5233 10.152 12.0672V12.6887Z" fill="#172B75"/>
<path d="M26.4978 5.11401H20.8159C20.31 5.11401 19.9208 5.50246 19.9208 5.96859V7.60006V7.6389V9.85304C19.9208 10.358 20.3489 10.7465 20.8937 10.7465H26.3032C26.7313 10.8241 27.0816 11.1349 27.1205 11.6399V12.1837C27.0816 12.6498 26.7313 12.9994 26.3421 13.0383H23.6569C20.0765 13.0383 17.5469 15.4466 17.5469 18.7873V23.604C17.5469 26.9446 19.7262 29.3141 23.2677 29.3141H30.7008C32.024 29.3141 33.1137 28.3041 33.1137 27.0223V11.3291C33.1137 7.52237 31.1679 5.11401 26.4978 5.11401ZM27.1594 22.3998V23.0601C27.1594 23.099 27.1594 23.1767 27.1205 23.2155C27.1205 23.2544 27.0816 23.2932 27.0816 23.3321C26.9648 23.6817 26.5756 23.9536 26.1865 23.9536H24.4741C23.9293 23.9536 23.5012 23.5263 23.5012 23.0601V22.2444V20.1468V19.4865C23.5012 18.9815 23.9293 18.593 24.4741 18.593H26.1865C26.7313 18.593 27.1594 19.0203 27.1594 19.4865V22.3998Z" fill="#172B75"/>
</svg>
