<svg width="120" height="32" viewBox="0 0 120 32" fill="none" xmlns="http://www.w3.org/2000/svg">
<path d="M16.6583 31.9901C25.5434 31.9901 32.7462 24.8311 32.7462 16.0001C32.7462 7.169 25.5434 0.0100098 16.6583 0.0100098C7.77313 0.0100098 0.570312 7.169 0.570312 16.0001C0.570312 24.8311 7.77313 31.9901 16.6583 31.9901Z" fill="#5F259F"/>
<path d="M81.9491 25.1485V19.3412C81.9491 17.9092 81.4088 17.1933 80.0681 17.1933C79.5279 17.1933 78.9076 17.2728 78.5474 17.3723V25.8645C78.5474 26.123 78.2873 26.4015 78.0071 26.4015H75.9461C75.686 26.4015 75.4058 26.1429 75.4058 25.8645V15.9403C75.4058 15.5823 75.666 15.3238 75.9461 15.2243C77.2868 14.7868 78.6474 14.5084 80.0882 14.5084C83.3298 14.5084 85.1306 16.1989 85.1306 19.3412V25.944C85.1306 26.2026 84.8705 26.481 84.5904 26.481H83.3298C82.4893 26.481 81.9491 25.8645 81.9491 25.1485ZM90.0331 21.6681L89.953 22.4636C89.953 23.5376 90.6734 24.1541 91.834 24.1541C92.7344 24.1541 93.5348 23.8956 94.4352 23.4381C94.5153 23.4381 94.6153 23.3586 94.6954 23.3586C94.8755 23.3586 94.9555 23.4381 95.0555 23.5376C95.1356 23.6171 95.3157 23.8956 95.3157 23.8956C95.4958 24.1541 95.6759 24.5121 95.6759 24.7905C95.6759 25.2281 95.4157 25.6855 95.0555 25.8645C94.0751 26.4015 92.8945 26.66 91.6339 26.66C90.1931 26.66 89.0326 26.302 88.1321 25.5861C87.2317 24.7905 86.6914 23.7166 86.6914 22.3642V18.8838C86.6914 16.1193 88.4923 14.4089 91.5538 14.4089C94.5153 14.4089 96.2361 16.0199 96.2361 18.8838V21.0317C96.2361 21.2902 95.976 21.5687 95.6959 21.5687H90.0331V21.6681ZM89.953 19.6992H93.3747V18.8042C93.3747 17.7302 92.7544 17.0143 91.6739 17.0143C90.5933 17.0143 89.973 17.6308 89.973 18.8042C89.953 18.8042 89.953 19.6992 89.953 19.6992ZM112.864 21.6681L112.784 22.4636C112.784 23.5376 113.505 24.1541 114.665 24.1541C115.566 24.1541 116.366 23.8956 117.267 23.4381C117.347 23.4381 117.447 23.3586 117.527 23.3586C117.707 23.3586 117.787 23.4381 117.887 23.5376C117.967 23.6171 118.147 23.8956 118.147 23.8956C118.327 24.1541 118.507 24.5121 118.507 24.7905C118.507 25.2281 118.247 25.6855 117.887 25.8645C116.906 26.4015 115.726 26.66 114.465 26.66C113.024 26.66 111.864 26.302 110.963 25.5861C110.063 24.7905 109.523 23.7166 109.523 22.3642V18.8838C109.523 16.1193 111.324 14.4089 114.385 14.4089C117.347 14.4089 119.067 16.0199 119.067 18.8838V21.0317C119.067 21.2902 118.807 21.5687 118.527 21.5687H112.864V21.6681ZM112.784 19.6992H116.206V18.8042C116.206 17.7302 115.586 17.0143 114.505 17.0143C113.425 17.0143 112.804 17.6308 112.804 18.8042V19.6992H112.784ZM59.9182 26.481H61.1788C61.439 26.481 61.7191 26.2225 61.7191 25.944V19.3412C61.7191 16.2983 60.0983 14.5084 57.397 14.5084C56.5966 14.5084 55.6961 14.6874 55.1558 14.8664V11.5649C55.1558 10.849 54.5355 10.2324 53.8152 10.2324H52.5546C52.2944 10.2324 52.0143 10.491 52.0143 10.7694V25.9639C52.0143 26.2225 52.2744 26.5009 52.5546 26.5009H54.6156C54.8757 26.5009 55.1558 26.2424 55.1558 25.9639V17.5513C55.5961 17.3723 56.2364 17.2927 56.6766 17.2927C58.0173 17.2927 58.5575 17.9092 58.5575 19.4406V25.248C58.6576 25.8645 59.1978 26.481 59.9182 26.481ZM73.4849 18.9832V22.2846C73.4849 25.0491 71.604 26.7595 68.4424 26.7595C65.3809 26.7595 63.3999 25.069 63.3999 22.2846V18.9832C63.3999 16.2187 65.2808 14.5084 68.4424 14.5084C71.604 14.5084 73.4849 16.2187 73.4849 18.9832ZM70.3433 18.9832C70.3433 17.9092 69.723 17.1933 68.5425 17.1933C67.3619 17.1933 66.7416 17.8098 66.7416 18.9832V22.2846C66.7416 23.3586 67.3619 23.9751 68.5425 23.9751C69.723 23.9751 70.3433 23.3586 70.3433 22.2846V18.9832ZM50.2934 17.4717C50.2934 20.3157 48.1324 22.2846 45.271 22.2846C44.5506 22.2846 43.9303 22.2051 43.29 21.9266V25.944C43.29 26.2026 43.0299 26.481 42.7497 26.481H40.6887C40.4286 26.481 40.1484 26.2225 40.1484 25.944V11.7439C40.1484 11.3859 40.4086 11.1274 40.6887 11.0279C42.0294 10.5904 43.39 10.312 44.8307 10.312C48.0724 10.312 50.3135 12.2809 50.3135 15.3238C50.2934 15.3238 50.2934 17.4717 50.2934 17.4717ZM47.0719 15.1448C47.0719 13.7128 46.0914 12.9969 44.7307 12.9969C43.9303 12.9969 43.39 13.2554 43.39 13.2554V19.1622C43.9303 19.4207 44.1904 19.5202 44.8307 19.5202C46.1714 19.5202 47.1719 18.7247 47.1719 17.3723V15.1448H47.0719ZM108.382 17.4717C108.382 20.3356 106.221 22.3045 103.34 22.3045C102.619 22.3045 101.999 22.225 101.359 21.9465V25.9639C101.359 26.2225 101.099 26.5009 100.818 26.5009H98.7574C98.4972 26.5009 98.2171 26.2424 98.2171 25.9639V11.7439C98.2171 11.3859 98.4772 11.1274 98.7574 11.0279C100.098 10.5904 101.459 10.312 102.899 10.312C106.141 10.312 108.382 12.2809 108.382 15.3238V17.4717ZM105.141 15.1448C105.141 13.7128 104.16 12.9969 102.799 12.9969C101.999 12.9969 101.459 13.2554 101.459 13.2554V19.1622C101.999 19.4207 102.259 19.5202 102.899 19.5202C104.24 19.5202 105.241 18.7247 105.241 17.3723V15.1448H105.141Z" fill="#5F259F"/>
<path d="M23.9585 11.8235C23.9585 11.2069 23.4182 10.6699 22.7979 10.6699H20.6368L15.6944 5.0416C15.2542 4.50462 14.5338 4.32563 13.8135 4.50462L12.1126 5.0416C11.8525 5.12115 11.7524 5.47914 11.9325 5.65813L17.3352 10.7495H9.15115C8.89103 10.7495 8.71094 10.9285 8.71094 11.187V12.082C8.71094 12.6985 9.2512 13.2355 9.87151 13.2355H11.1321V17.5512C11.1321 20.7731 12.833 22.6426 15.7144 22.6426C16.6148 22.6426 17.3352 22.563 18.2356 22.2051V25.0689C18.2356 25.8645 18.8559 26.5009 19.6764 26.5009H20.937C21.1971 26.5009 21.4772 26.2423 21.4772 25.9639V13.1957H23.5383C23.7984 13.1957 23.9785 13.0167 23.9785 12.7582C23.9585 12.7184 23.9585 11.8235 23.9585 11.8235ZM18.1956 19.5202C17.6554 19.7787 16.935 19.8781 16.3947 19.8781C14.954 19.8781 14.2337 19.1622 14.2337 17.5512V13.2554H18.1956V19.5202Z" fill="white"/>
</svg>
