<svg width="27" height="27" viewBox="0 0 27 27" fill="none" xmlns="http://www.w3.org/2000/svg">
<path d="M23.5719 14.5375V14.4375V13.5625V13.4625H23.6719C23.8582 13.4625 24.0094 13.3114 24.0094 13.125V10.5C24.0094 10.3136 23.8582 10.1625 23.6719 10.1625H21.3094H21.2319L21.2125 10.0875L21.1278 9.75883L21.1277 9.75876C20.9368 9.01637 20.6399 8.30534 20.2462 7.64758L20.2462 7.64754L20.0712 7.35486L20.0312 7.28801L20.0862 7.23289L21.7636 5.55258C21.8935 5.42245 21.8935 5.21153 21.7636 5.08139C21.7636 5.08139 21.7636 5.08138 21.7636 5.08138L19.9065 3.22158C19.8427 3.16107 19.758 3.12733 19.67 3.12733C19.582 3.12733 19.4974 3.16108 19.4335 3.22159C19.4332 3.22184 19.433 3.2221 19.4327 3.22236L17.754 4.90115L17.6988 4.95628L17.6319 4.91626L17.3394 4.74127C17.3394 4.74126 17.3394 4.74126 17.3394 4.74126C16.6806 4.34745 15.9687 4.05044 15.2255 3.85935L15.2252 3.85928L14.8967 3.77384L14.8219 3.75437V3.67706V1.3125C14.8219 1.1261 14.6708 0.975 14.4844 0.975H11.8594C11.673 0.975 11.5219 1.1261 11.5219 1.3125V3.675V3.75245L11.4469 3.77182L11.1182 3.85674L11.1181 3.85677C10.3757 4.04773 9.66464 4.3444 9.00664 4.73766C9.00663 4.73767 9.00661 4.73768 9.0066 4.73769L8.71391 4.91283L8.64706 4.95284L8.59191 4.8978L6.91264 3.22149C6.84869 3.16043 6.76366 3.12634 6.67522 3.12634C6.58678 3.12634 6.50176 3.16042 6.43781 3.22148L4.58008 5.07874L4.57999 5.07883C4.54883 5.1099 4.52411 5.14681 4.50724 5.18744C4.49038 5.22808 4.4817 5.27165 4.4817 5.31565C4.4817 5.35965 4.49038 5.40321 4.50724 5.44385C4.52411 5.48449 4.54883 5.5214 4.57999 5.55246L4.58008 5.55256L6.26052 7.23278L6.31564 7.28789L6.27565 7.3548L6.10065 7.64757L6.10062 7.64762C5.70701 8.30539 5.41017 9.01641 5.21925 9.7588L5.21915 9.75917L5.13332 10.0878L5.1138 10.1625H5.03656H2.67188C2.48547 10.1625 2.33438 10.3136 2.33438 10.5V13.125C2.33438 13.3114 2.48547 13.4625 2.67188 13.4625H2.77188V13.5625V14.4375V14.5375H2.67188C1.89188 14.5375 1.25937 13.905 1.25937 13.125V10.5C1.25937 9.72001 1.89188 9.0875 2.67188 9.0875H4.2904C4.46321 8.52517 4.69053 7.98106 4.96913 7.46293L3.81889 6.31269L23.5719 14.5375ZM23.5719 14.5375H23.6719M23.5719 14.5375H23.6719M15.2503 3.7625L14.9219 3.67706V1.3125C14.9219 1.07087 14.726 0.875 14.4844 0.875H11.8594C11.6177 0.875 11.4219 1.07087 11.4219 1.3125V3.675L11.0932 3.75992C10.3415 3.95328 9.62153 4.25366 8.95529 4.65185L8.66256 4.82702L6.98256 3.15C6.89992 3.07065 6.78979 3.02634 6.67522 3.02634C6.56065 3.02634 6.45052 3.07065 6.36787 3.15L4.50937 5.00802C4.4689 5.04838 4.43679 5.09632 4.41488 5.14911C4.39297 5.2019 4.3817 5.25849 4.3817 5.31565C4.3817 5.3728 4.39297 5.42939 4.41488 5.48218L15.2503 3.7625ZM15.2503 3.7625C16.0029 3.95598 16.7237 4.25671 17.3907 4.65544L15.2503 3.7625ZM23.6719 14.5375C24.4519 14.5375 25.0844 13.905 25.0844 13.125V10.5C25.0844 9.72001 24.4519 9.0875 23.6719 9.0875H22.0533C21.8804 8.52508 21.6531 7.98082 21.3748 7.46244L22.5251 6.31215C22.6561 6.18129 22.7601 6.02587 22.831 5.85478C22.9019 5.6837 22.9384 5.50031 22.9384 5.31511L23.6719 14.5375ZM5.67974 2.45789L5.67976 2.45791C6.23642 1.92512 7.1141 1.92512 7.67077 2.45791L7.67235 2.45942L7.67233 2.45943L8.82233 3.60926C9.34049 3.33097 9.88459 3.10393 10.4469 2.93139V1.3125C10.4469 0.532509 11.0794 -0.1 11.8594 -0.1H14.4844C15.2644 -0.1 15.8969 0.532509 15.8969 1.3125V2.93141C16.4592 3.10412 17.0033 3.33132 17.5214 3.60977L18.6718 2.45944L18.6733 2.45789C19.2302 1.92513 20.1077 1.92513 20.6645 2.45789L20.6661 2.45942L20.6661 2.45944L22.525 4.31823C22.6561 4.44906 22.7601 4.60445 22.831 4.77551C22.9019 4.94655 22.9384 5.12991 22.9384 5.31507L5.67974 2.45789ZM5.67974 2.45789L5.67819 2.45944M5.67974 2.45789L5.67819 2.45944M5.67819 2.45944L3.81892 4.31871C3.81889 4.31874 3.81886 4.31877 3.81883 4.3188C3.55397 4.58295 3.40518 4.94164 3.40518 5.31562C3.40518 5.68962 3.55397 6.0483 3.81881 6.31261L5.67819 2.45944Z" fill="#E8395C" stroke="#E8395C" stroke-width="0.2"/>
<path d="M19.2969 11.9125H19.3969V11.8125C19.3969 8.37452 16.6097 5.5875 13.1719 5.5875C9.7339 5.5875 6.94687 8.37452 6.94687 11.8125V11.9125H7.04688H7.92188H8.02188V11.8125C8.02188 8.96828 10.3277 6.6625 13.1719 6.6625C16.0161 6.6625 18.3219 8.96828 18.3219 11.8125V11.9125H18.4219H19.2969Z" fill="#E8395C" stroke="#E8395C" stroke-width="0.2"/>
<path d="M13.1719 15.4125H13.172C14.6763 15.4109 15.8953 14.192 15.8969 12.6876V12.6875C15.8969 11.1825 14.677 9.9625 13.1719 9.9625C11.6669 9.9625 10.4469 11.1825 10.4469 12.6875C10.4469 14.1923 11.6669 15.4125 13.1719 15.4125ZM20.6094 17.1625H20.6095C22.1138 17.1609 23.3328 15.942 23.3344 14.4376V14.4375C23.3344 12.9325 22.1143 11.7125 20.6094 11.7125C19.1044 11.7125 17.8844 12.9325 17.8844 14.4375C17.8844 15.9423 19.1044 17.1625 20.6094 17.1625ZM5.73438 17.1625H5.73448C7.23885 17.1609 8.45779 15.942 8.45937 14.4376V14.4375C8.45937 12.9325 7.23948 11.7125 5.73438 11.7125C4.2294 11.7125 3.00937 12.9325 3.00937 14.4375C3.00937 15.9423 4.2294 17.1625 5.73438 17.1625ZM11.5219 12.6875C11.5219 11.7763 12.2607 11.0375 13.1719 11.0375C14.0831 11.0375 14.8219 11.7763 14.8219 12.6875C14.8219 13.5987 14.0831 14.3375 13.1719 14.3375C12.2607 14.3375 11.5219 13.5987 11.5219 12.6875ZM18.9594 14.4375C18.9594 13.5263 19.6982 12.7875 20.6094 12.7875C21.5206 12.7875 22.2594 13.5263 22.2594 14.4375C22.2594 15.3487 21.5206 16.0875 20.6094 16.0875C19.6982 16.0875 18.9594 15.3487 18.9594 14.4375ZM4.08438 14.4375C4.08438 13.5263 4.82317 12.7875 5.73438 12.7875C6.64558 12.7875 7.38438 13.5263 7.38438 14.4375C7.38438 15.3487 6.64558 16.0875 5.73438 16.0875C4.82317 16.0875 4.08438 15.3487 4.08438 14.4375Z" fill="#E8395C" stroke="#E8395C" stroke-width="0.2"/>
<path d="M18.8585 17.4L18.8594 17.4L22.3592 17.4H22.3594V17.5L18.8585 17.4ZM18.8585 17.4C18.6622 17.4018 18.4664 17.4179 18.2726 17.4483C17.9909 17.0234 17.631 16.6557 17.2118 16.3649C17.145 16.3145 17.0747 16.2689 17.0016 16.2283C16.3743 15.8489 15.6549 15.6489 14.9218 15.65M18.8585 17.4L14.9219 15.75M7.48527 17.4V17.4C7.68182 17.4018 7.87795 17.4179 8.07209 17.4483C8.43067 16.9034 8.91749 16.4543 9.49024 16.1407C10.0824 15.8165 10.747 15.6477 11.4221 15.65M7.48527 17.4L11.4219 15.75M7.48527 17.4H7.48438M7.48527 17.4H7.48438M11.4221 15.65C11.4221 15.65 11.4222 15.65 11.4222 15.65L11.4219 15.75M11.4221 15.65H11.4219V15.75M11.4221 15.65H14.9218M11.4219 15.75H14.9219M14.9218 15.65C14.9218 15.65 14.9217 15.65 14.9217 15.65L14.9219 15.75M14.9218 15.65H14.9219V15.75M7.48438 17.4H3.98452M7.48438 17.4H3.98452M-0.053125 21.4375V21.4375C-0.0527846 20.7796 0.108307 20.1318 0.416133 19.5504C0.723924 18.969 1.1691 18.4717 1.71292 18.1016C2.38134 17.6425 3.17365 17.3978 3.98452 17.4M-0.053125 21.4375L3.98465 17.4C3.9846 17.4 3.98456 17.4 3.98452 17.4M-0.053125 21.4375L-0.0531251 23.1875L-0.0531249 23.1877M-0.053125 21.4375L-0.0531249 23.1877M-0.0531249 23.1877C-0.0515439 24.4211 0.66605 25.5413 1.78631 26.0581M-0.0531249 23.1877L1.78631 26.0581M1.78631 26.0581C1.78617 26.058 1.78604 26.0579 1.7859 26.0579L1.82851 25.9674L1.78663 26.0582C1.78652 26.0582 1.78641 26.0581 1.78631 26.0581ZM16.5877 17.2394C16.9843 17.511 17.3099 17.8739 17.5369 18.2976L14.9219 16.725C15.4663 16.7254 16.0001 16.8761 16.4643 17.1605L16.4643 17.1606L16.4686 17.163C16.509 17.185 16.5477 17.2098 16.5846 17.2372L16.5845 17.2372L16.5877 17.2394Z" fill="#E8395C" stroke="#E8395C" stroke-width="0.2"/>
<path d="M11.4219 25.275H11.3219V25.375V26.25V26.35H11.4219H14.9219H15.0219V26.25V25.375V25.275H14.9219H11.4219Z" fill="#E8395C" stroke="#E8395C" stroke-width="0.2"/>
</svg>
