<svg width="70" height="71" viewBox="0 0 70 71" fill="none" xmlns="http://www.w3.org/2000/svg">
<path d="M69.1074 7.59424C69.1074 9.74158 68.3691 11.5223 66.8924 12.9888C65.4158 14.4552 63.6227 15.1885 61.5132 15.1885C59.4037 15.1885 57.6106 14.4552 56.1339 12.9888C54.6573 11.5223 53.9189 9.68921 53.9189 7.59424C53.9189 5.49928 54.6573 3.66618 56.1339 2.19971C57.6106 0.733236 59.4037 0 61.5132 0C63.6227 0 65.4158 0.733236 66.8924 2.19971C68.3691 3.66618 69.1074 5.49928 69.1074 7.59424Z" fill="url(#paint0_linear_11162_13098)"/>
<path d="M3.76373 66.7973C2.75206 65.7338 2.80531 64.0854 3.87023 63.0751L31.2385 37.1788C32.3034 36.1685 33.9541 36.2216 34.9657 37.2851C35.9774 38.3486 35.9241 39.9971 34.8592 41.0074L7.49093 66.9037C6.42602 67.8608 4.7754 67.8077 3.76373 66.7973Z" fill="url(#paint1_linear_11162_13098)"/>
<path d="M21.2927 69.8652C20.2498 68.8405 20.2498 67.1685 21.2405 66.0898L36.5698 50.1792C37.5605 49.1005 39.1768 49.1005 40.2196 50.1252C41.2624 51.15 41.2624 52.822 40.2717 53.9006L24.9425 69.8113C23.9518 70.89 22.3355 70.89 21.2927 69.8652Z" fill="url(#paint2_linear_11162_13098)"/>
<path d="M4.52377 51.6118C3.52006 50.5425 3.57288 48.8852 4.57659 47.8693L20.636 32.6321C21.6925 31.6163 23.3302 31.6698 24.3339 32.6856C25.3376 33.7549 25.2847 35.4123 24.281 36.4281L8.22166 51.6653C7.21795 52.6811 5.52748 52.6276 4.52377 51.6118Z" fill="url(#paint3_linear_11162_13098)"/>
<path d="M57.1134 58.4756C56.7407 58.4224 56.4212 58.3693 56.1017 58.3161C55.6225 58.2098 55.1433 58.1566 54.7174 58.0503C54.6109 58.0503 54.4512 58.0503 54.3447 57.9971C53.8655 57.9439 53.3863 57.8376 52.9071 57.7844C52.2682 57.6781 51.576 57.5717 50.9371 57.4654C50.4047 57.3591 49.9255 57.2527 49.3931 57.1996C48.9139 57.0932 48.3814 57.0401 47.9022 56.9869C47.7425 56.9869 47.636 56.9337 47.636 56.7211C47.636 56.2957 47.636 55.8704 47.636 55.3918C47.636 54.6475 47.5828 53.85 47.5295 53.1056C47.4763 52.4676 47.4763 51.8827 47.423 51.2447C47.3698 50.7662 47.3698 50.2345 47.3166 49.756C47.2633 49.2243 47.2101 48.6926 47.1036 48.1609C47.0503 47.7356 46.9971 47.257 46.8906 46.8317C46.7841 46.2468 46.6776 45.662 46.5711 45.0771C46.4647 44.4923 46.3049 43.9074 46.1452 43.3226C45.9855 42.7909 45.879 42.206 45.7193 41.6744C45.5595 41.249 45.3998 40.8237 45.2401 40.3451C45.1336 40.0261 45.0271 39.6539 44.8674 39.3349C44.7076 38.9627 44.5479 38.5906 44.3882 38.2184C44.1752 37.793 44.0155 37.3677 43.8025 36.8892C43.696 36.6765 43.5895 36.4638 43.4298 36.2512C43.2168 35.879 43.0038 35.5068 42.7376 35.1346C42.5779 34.8688 42.3649 34.6029 42.1519 34.3371C41.726 33.8586 41.3533 33.3269 40.9274 32.9015C40.7144 32.6357 40.3949 32.4762 40.1819 32.2635C39.8625 31.9977 39.5963 31.6787 39.2768 31.466C38.7444 31.0406 38.1587 30.6153 37.573 30.2963C37.0938 30.0304 36.6146 29.7646 36.0822 29.4987C35.603 29.2861 35.1238 29.1266 34.6446 28.9139C34.2187 28.7544 33.846 28.5949 33.42 28.4354C33.1006 28.329 32.7811 28.2759 32.4616 28.1695C32.0889 28.0632 31.7162 27.9569 31.2903 27.8505C30.7579 27.7442 30.2787 27.5847 29.7462 27.4783C29.4268 27.4252 29.0541 27.372 28.7346 27.3188C28.3087 27.2657 27.8295 27.1593 27.4035 27.1062C26.6049 26.9998 25.8595 26.9467 25.0608 26.8935C24.2089 26.8403 23.4103 26.7871 22.5584 26.7871C21.3338 26.734 20.1092 26.734 18.8846 26.734C17.9794 26.734 17.0211 26.7872 16.1159 26.8403C15.5302 26.8935 14.9446 26.8935 14.3056 26.9467C13.9862 26.9998 13.6667 27.053 13.3473 27.053C13.294 27.053 13.1875 26.9998 13.1875 26.9467C12.9746 26.3086 12.8148 25.6706 12.6551 25.0326C12.4421 24.3414 12.2291 23.6502 12.0694 22.959C11.9097 22.4273 11.75 21.8956 11.6435 21.4171C11.4837 20.8854 11.324 20.3538 11.1643 19.8221C11.0045 19.3436 10.8981 18.9182 10.7383 18.4397C10.6851 18.3333 10.6851 18.227 10.6318 18.1207C10.7916 18.0675 11.0045 18.0143 11.1643 17.908C11.4837 17.8017 11.8032 17.6422 12.1227 17.5358C12.4421 17.4295 12.8148 17.3231 13.1343 17.1636C13.6135 17.0041 14.0927 16.8446 14.5719 16.632C14.8381 16.5256 15.051 16.4724 15.3173 16.4193C15.7965 16.2598 16.2756 16.1003 16.7548 15.9939C17.1275 15.8876 17.5002 15.7281 17.8729 15.6217C18.0327 15.5686 18.2456 15.5154 18.4054 15.4622C18.8313 15.3559 19.3105 15.1964 19.7365 15.0901C20.0027 15.0369 20.2689 14.9837 20.5351 14.9306C20.9611 14.8242 21.3338 14.7179 21.7597 14.6115C22.0792 14.5584 22.3454 14.5052 22.6649 14.452C23.0376 14.3457 23.4103 14.2925 23.783 14.1862C23.9427 14.133 24.1024 14.133 24.2622 14.0799C24.7946 13.9735 25.2738 13.8672 25.8062 13.7608C25.9127 13.7608 26.0724 13.7609 26.1789 13.7077C26.7114 13.6013 27.2438 13.495 27.7762 13.4418C27.936 13.4418 28.0957 13.3887 28.2022 13.3887C28.8411 13.3355 29.5333 13.2823 30.1722 13.176C30.9708 13.0697 31.8227 13.0165 32.6214 12.9633C34.059 12.9633 35.4965 12.9102 36.9341 12.9102C37.5198 12.9102 38.1587 12.9633 38.7444 13.0165C39.2768 13.0697 39.8092 13.1228 40.3417 13.2292C40.7144 13.2823 41.1403 13.3355 41.513 13.4418C42.1519 13.6013 42.7909 13.7609 43.3765 13.9204C43.8557 14.0267 44.3349 14.133 44.7609 14.2925C45.1868 14.3989 45.5595 14.5584 45.9855 14.7179C46.3049 14.8242 46.6244 14.9837 46.9439 15.0901C47.1568 15.1432 47.3166 15.2496 47.5295 15.3559C48.062 15.6217 48.5944 15.8876 49.0736 16.1534C49.4995 16.3661 49.8722 16.632 50.2982 16.8978C50.7241 17.1636 51.0968 17.4295 51.4695 17.7485C51.7358 17.9612 51.9487 18.1738 52.215 18.3865C52.4812 18.6524 52.8006 18.865 53.0668 19.0777C53.3331 19.2904 53.546 19.5562 53.8123 19.8221C54.185 20.2474 54.5577 20.6728 54.8771 21.0981C55.3031 21.683 55.7823 22.2678 56.155 22.8527C56.4744 23.3844 56.7939 23.9692 57.0601 24.5009C57.2731 24.9262 57.5393 25.4048 57.699 25.8301C57.912 26.3086 58.0717 26.8403 58.2847 27.372C58.4444 27.8505 58.6042 28.2759 58.7639 28.7544C58.8704 29.0734 58.9236 29.3924 59.0301 29.7114C59.1366 30.0836 59.2431 30.4558 59.2963 30.828C59.3496 31.0406 59.4028 31.3065 59.4028 31.5192C59.4561 31.9977 59.5625 32.5294 59.6158 33.0079C59.7223 33.7522 59.7755 34.5498 59.8288 35.3473C60.0417 36.9423 59.9885 38.4842 59.9885 40.0793C59.9885 40.611 59.9352 41.1427 59.882 41.7275C59.8288 42.2592 59.8288 42.7909 59.7755 43.3226C59.7223 43.8011 59.669 44.2796 59.6158 44.7581C59.5625 45.2366 59.5093 45.7152 59.4561 46.1937C59.4028 46.7254 59.2963 47.2039 59.1898 47.7356C59.1366 48.0014 59.1366 48.3204 59.0834 48.5863C58.9769 49.0648 58.9236 49.4901 58.8171 49.9686C58.7639 50.2345 58.7107 50.5003 58.6574 50.7662C58.5509 51.351 58.3912 51.9359 58.2847 52.4676C58.1782 52.8397 58.125 53.2651 58.0185 53.6373C57.912 53.9563 57.8588 54.3285 57.7523 54.6475C57.6458 55.0197 57.5925 55.3387 57.486 55.7108C57.3263 56.2425 57.1666 56.8274 57.0069 57.3591C56.9536 57.5186 56.9004 57.7312 56.8471 57.9439C57.2198 58.1566 57.1666 58.3161 57.1134 58.4756Z" fill="url(#paint4_linear_11162_13098)"/>
<path d="M9.49281 18.2266C10.3607 21.337 11.2829 24.4475 12.1508 27.558C12.0423 27.558 11.9338 27.6135 11.8253 27.6135C11.2286 27.7246 10.5777 27.7802 9.981 27.8912C9.4928 27.9468 9.00461 28.0579 8.51641 28.1134C7.91972 28.2245 7.37727 28.3356 6.78058 28.4467C6.61784 28.5022 6.45511 28.5022 6.23813 28.5022C5.53295 28.6133 4.88202 28.7244 4.17684 28.8355C3.95986 28.891 3.68863 28.8355 3.47165 28.7799C3.20043 28.7244 2.92922 28.6689 2.60375 28.6133C2.11555 28.4467 1.62735 28.169 1.24764 27.8357C0.813679 27.4469 0.488201 26.947 0.271223 26.3916C0.0542446 25.8917 0 25.4473 0 24.8919C0 24.0587 0.27122 23.3366 0.759421 22.6701C1.03064 22.3368 1.30188 22.0036 1.73583 21.7814C2.22404 21.5592 2.71223 21.2259 3.20043 21.0038C3.74287 20.726 4.28532 20.5039 4.82777 20.2262C5.37021 19.9484 5.91266 19.7263 6.4551 19.5041C6.99755 19.2819 7.48577 19.0597 8.02821 18.782C8.51641 18.6154 9.00461 18.4487 9.49281 18.2266Z" fill="url(#paint5_linear_11162_13098)"/>
<path d="M47.4576 57.7168C47.6719 57.7714 47.9398 57.7714 48.1542 57.826C48.69 57.9352 49.2795 57.9898 49.8153 58.0991C50.5655 58.2083 51.2622 58.3175 52.0124 58.4813C52.6018 58.5905 53.1912 58.6998 53.7271 58.809C54.263 58.9182 54.8524 58.9728 55.3883 59.082C55.8705 59.1366 56.2992 59.2458 56.7815 59.3005C56.8887 59.3005 56.9958 59.4097 56.9422 59.5735C56.7815 60.065 56.6207 60.5565 56.46 61.048C56.3528 61.3756 56.192 61.7033 56.0849 62.0309C56.0313 62.1947 55.9777 62.304 55.9241 62.4678C55.7634 62.9593 55.6026 63.4508 55.3883 63.9422C55.2275 64.3791 55.0667 64.816 54.906 65.2529C54.7452 65.6351 54.638 66.0174 54.4773 66.3996C54.2629 67.055 53.9414 67.6557 53.4056 68.0925C52.9233 68.5294 52.3874 68.8025 51.798 68.9663C51.3157 69.1301 50.8335 69.1301 50.3512 69.0755C49.9225 69.0209 49.4938 68.9117 49.1187 68.6932C48.5293 68.3656 47.9934 67.9833 47.6719 67.3826C47.404 66.9457 47.1896 66.5089 47.136 65.9628C46.9753 65.1436 47.2432 64.3245 47.1896 63.5054C47.1896 63.4508 47.1896 63.4508 47.1896 63.3961C47.2432 62.6316 47.2432 61.8671 47.2968 61.1026C47.3504 60.1742 47.404 59.2459 47.4576 58.2629C47.3504 58.0991 47.404 57.9352 47.4576 57.7168Z" fill="url(#paint6_linear_11162_13098)"/>
<defs>
<linearGradient id="paint0_linear_11162_13098" x1="61.5132" y1="0" x2="61.5132" y2="15.1885" gradientUnits="userSpaceOnUse">
<stop stop-color="#E83251"/>
<stop offset="1" stop-color="#E9456D"/>
</linearGradient>
<linearGradient id="paint1_linear_11162_13098" x1="19.3647" y1="36.4531" x2="19.3647" y2="67.5895" gradientUnits="userSpaceOnUse">
<stop stop-color="#E83251"/>
<stop offset="1" stop-color="#E9456D"/>
</linearGradient>
<linearGradient id="paint2_linear_11162_13098" x1="30.7561" y1="49.3633" x2="30.7561" y2="70.6272" gradientUnits="userSpaceOnUse">
<stop stop-color="#E83251"/>
<stop offset="1" stop-color="#E9456D"/>
</linearGradient>
<linearGradient id="paint3_linear_11162_13098" x1="14.4288" y1="31.8965" x2="14.4288" y2="52.4009" gradientUnits="userSpaceOnUse">
<stop stop-color="#E83251"/>
<stop offset="1" stop-color="#E9456D"/>
</linearGradient>
<linearGradient id="paint4_linear_11162_13098" x1="35.3131" y1="12.9102" x2="35.3131" y2="58.4756" gradientUnits="userSpaceOnUse">
<stop stop-color="#E83251"/>
<stop offset="1" stop-color="#E9456D"/>
</linearGradient>
<linearGradient id="paint5_linear_11162_13098" x1="6.07539" y1="18.2266" x2="6.07539" y2="28.8585" gradientUnits="userSpaceOnUse">
<stop stop-color="#E83251"/>
<stop offset="1" stop-color="#E9456D"/>
</linearGradient>
<linearGradient id="paint6_linear_11162_13098" x1="52.0202" y1="57.7168" x2="52.0202" y2="69.1082" gradientUnits="userSpaceOnUse">
<stop stop-color="#E83251"/>
<stop offset="1" stop-color="#E9456D"/>
</linearGradient>
</defs>
</svg>
