<svg width="28" height="28" viewBox="0 0 28 28" fill="none" xmlns="http://www.w3.org/2000/svg">
<path fill-rule="evenodd" clip-rule="evenodd" d="M22.3415 3.81478C19.8857 1.3561 16.6197 0.00143555 13.1402 0C5.97054 0 0.13541 5.83496 0.132539 13.0066C0.131555 15.2991 0.730424 17.537 1.86877 19.5096L0.0234375 26.25L6.91902 24.4411C8.81903 25.4776 10.9581 26.0237 13.1349 26.0244H13.1404C20.3093 26.0244 26.1451 20.189 26.1478 13.017C26.1493 9.54125 24.7975 6.27334 22.3415 3.81478ZM13.1402 23.8276H13.1357C11.1958 23.8268 9.29325 23.3055 7.63306 22.3206L7.23849 22.0862L3.14653 23.1597L4.23869 19.1701L3.98153 18.7611C2.89929 17.0397 2.32778 15.0501 2.32876 13.0074C2.33102 7.04648 7.18111 2.19688 13.1446 2.19688C16.0323 2.19782 18.7469 3.32382 20.788 5.36738C22.8292 7.41095 23.9526 10.1273 23.9517 13.0162C23.9492 18.9775 19.0994 23.8276 13.1402 23.8276ZM19.0705 15.7304C18.7456 15.5676 17.1476 14.7816 16.8496 14.673C16.5519 14.5645 16.3349 14.5105 16.1185 14.8358C15.9017 15.161 15.2789 15.8932 15.0892 16.1099C14.8996 16.3269 14.7102 16.3541 14.3851 16.1914C14.06 16.0287 13.0128 15.6854 11.7713 14.5781C10.8052 13.7163 10.153 12.652 9.96328 12.3268C9.77391 12.0012 9.96164 11.8423 10.1059 11.6634C10.4577 11.2265 10.81 10.7685 10.9183 10.5517C11.0268 10.3347 10.9725 10.1449 10.8911 9.9823C10.81 9.81967 10.16 8.2199 9.88925 7.56894C9.62523 6.93545 9.35748 7.02097 9.15786 7.01108C8.96849 7.00161 8.75172 6.99968 8.53496 6.99968C8.31831 6.99968 7.96615 7.08089 7.66817 7.40647C7.37032 7.73189 6.53081 8.51808 6.53081 10.1179C6.53081 11.7176 7.69541 13.2631 7.85787 13.48C8.02029 13.697 10.1498 16.9798 13.41 18.3875C14.1855 18.7226 14.7908 18.9224 15.2629 19.0722C16.0416 19.3196 16.7499 19.2847 17.31 19.201C17.9345 19.1076 19.2328 18.4147 19.5039 17.6555C19.7747 16.8963 19.7747 16.2457 19.6933 16.1099C19.6122 15.9744 19.3954 15.8932 19.0705 15.7304Z" fill="#E8395C"/>
</svg>
